<svg width="588" height="533" viewBox="0 0 588 533" fill="none" xmlns="http://www.w3.org/2000/svg">
<g clip-path="url(#clip0_1_6258)">
<rect x="0.416443" width="587.167" height="533" rx="12" fill="#F3F5F7"/>
<g filter="url(#filter0_dddddd_1_6258)">
<path d="M68.4219 20.3691H513.578C516.892 20.3691 519.578 23.0554 519.578 26.3691V182.369C519.578 185.683 516.892 188.369 513.578 188.369H74.4219C71.1082 188.369 68.4219 185.683 68.4219 182.369V20.3691Z" fill="#EBF5FF" shape-rendering="crispEdges"/>
<path d="M93.4219 56.3691C93.4219 50.2941 98.3469 45.3691 104.422 45.3691C110.497 45.3691 115.422 50.2941 115.422 56.3691C115.422 62.4441 110.497 67.3691 104.422 67.3691C98.3469 67.3691 93.4219 62.4441 93.4219 56.3691ZM109.702 53.6491C109.834 53.5069 109.906 53.3188 109.903 53.1245C109.9 52.9302 109.821 52.7447 109.684 52.6071C109.546 52.4699 109.361 52.3913 109.167 52.388C108.972 52.3846 108.784 52.4567 108.642 52.5891L102.672 58.5591L100.202 56.0891C100.06 55.9567 99.8716 55.8846 99.6772 55.888C99.4829 55.8913 99.2975 55.9699 99.1599 56.1071C99.0226 56.2447 98.9441 56.4302 98.9407 56.6245C98.9374 56.8188 99.0095 57.0069 99.1419 57.1491L102.142 60.1491C102.283 60.2896 102.473 60.3685 102.672 60.3685C102.871 60.3685 103.061 60.2896 103.202 60.1491L109.702 53.6491Z" fill="#3FB950"/>
<path d="M130.734 62.6895C129.089 62.6895 127.831 62.2415 126.961 61.3457C125.794 60.2467 125.211 58.6634 125.211 56.5957C125.211 54.4863 125.794 52.903 126.961 51.8457C127.831 50.9499 129.089 50.502 130.734 50.502C132.38 50.502 133.638 50.9499 134.508 51.8457C135.669 52.903 136.25 54.4863 136.25 56.5957C136.25 58.6634 135.669 60.2467 134.508 61.3457C133.638 62.2415 132.38 62.6895 130.734 62.6895ZM133.008 59.5957C133.565 58.8926 133.844 57.8926 133.844 56.5957C133.844 55.304 133.562 54.3066 133 53.6035C132.443 52.8952 131.688 52.541 130.734 52.541C129.781 52.541 129.021 52.8926 128.453 53.5957C127.885 54.2988 127.602 55.2988 127.602 56.5957C127.602 57.8926 127.885 58.8926 128.453 59.5957C129.021 60.2988 129.781 60.6504 130.734 60.6504C131.688 60.6504 132.445 60.2988 133.008 59.5957ZM141.922 55.502C141.167 55.502 140.648 55.8223 140.367 56.4629C140.221 56.8014 140.148 57.2337 140.148 57.7598V62.3691H137.93V53.8691H140.078V55.1113C140.365 54.6738 140.635 54.3587 140.891 54.166C141.349 53.8223 141.93 53.6504 142.633 53.6504C143.513 53.6504 144.232 53.8822 144.789 54.3457C145.352 54.804 145.633 55.5671 145.633 56.6348V62.3691H143.352V57.1895C143.352 56.7415 143.292 56.3978 143.172 56.1582C142.953 55.7207 142.536 55.502 141.922 55.502ZM152.32 62.5957C151.617 62.5957 151.052 62.4551 150.625 62.1738C150.37 62.0072 150.094 61.7155 149.797 61.2988V62.3691H147.617V50.8691H149.836V54.9629C150.117 54.5671 150.427 54.265 150.766 54.0566C151.167 53.7962 151.677 53.666 152.297 53.666C153.417 53.666 154.292 54.0697 154.922 54.877C155.557 55.6842 155.875 56.7259 155.875 58.002C155.875 59.3249 155.562 60.4212 154.938 61.291C154.312 62.1608 153.44 62.5957 152.32 62.5957ZM153.539 58.2363C153.539 57.6322 153.461 57.1322 153.305 56.7363C153.008 55.9863 152.461 55.6113 151.664 55.6113C150.857 55.6113 150.302 55.9785 150 56.7129C149.844 57.1035 149.766 57.6087 149.766 58.2285C149.766 58.9577 149.927 59.5618 150.25 60.041C150.573 60.5202 151.065 60.7598 151.727 60.7598C152.299 60.7598 152.745 60.528 153.062 60.0645C153.38 59.6009 153.539 58.9915 153.539 58.2363ZM164.578 54.9316C165.297 55.8327 165.656 56.8978 165.656 58.127C165.656 59.377 165.297 60.4473 164.578 61.3379C163.859 62.2233 162.768 62.666 161.305 62.666C159.841 62.666 158.75 62.2233 158.031 61.3379C157.312 60.4473 156.953 59.377 156.953 58.127C156.953 56.8978 157.312 55.8327 158.031 54.9316C158.75 54.0306 159.841 53.5801 161.305 53.5801C162.768 53.5801 163.859 54.0306 164.578 54.9316ZM161.297 55.4629C160.646 55.4629 160.143 55.6947 159.789 56.1582C159.44 56.6165 159.266 57.2728 159.266 58.127C159.266 58.9811 159.44 59.64 159.789 60.1035C160.143 60.5671 160.646 60.7988 161.297 60.7988C161.948 60.7988 162.448 60.5671 162.797 60.1035C163.146 59.64 163.32 58.9811 163.32 58.127C163.32 57.2728 163.146 56.6165 162.797 56.1582C162.448 55.6947 161.948 55.4629 161.297 55.4629ZM167.578 54.7754C168.167 54.0254 169.177 53.6504 170.609 53.6504C171.542 53.6504 172.37 53.8353 173.094 54.2051C173.818 54.5749 174.18 55.2728 174.18 56.2988V60.2051C174.18 60.4759 174.185 60.804 174.195 61.1895C174.211 61.4811 174.255 61.679 174.328 61.7832C174.401 61.8874 174.51 61.9733 174.656 62.041V62.3691H172.234C172.167 62.1973 172.12 62.0358 172.094 61.8848C172.068 61.7337 172.047 61.5618 172.031 61.3691C171.724 61.7025 171.37 61.9863 170.969 62.2207C170.49 62.4967 169.948 62.6348 169.344 62.6348C168.573 62.6348 167.935 62.416 167.43 61.9785C166.93 61.5358 166.68 60.9108 166.68 60.1035C166.68 59.0566 167.083 58.2988 167.891 57.8301C168.333 57.5749 168.984 57.3926 169.844 57.2832L170.602 57.1895C171.013 57.1374 171.307 57.0723 171.484 56.9941C171.802 56.8587 171.961 56.6478 171.961 56.3613C171.961 56.0124 171.839 55.7728 171.594 55.6426C171.354 55.5072 171 55.4395 170.531 55.4395C170.005 55.4395 169.633 55.5697 169.414 55.8301C169.258 56.0228 169.154 56.2832 169.102 56.6113H166.953C167 55.8665 167.208 55.2546 167.578 54.7754ZM169.234 60.7598C169.443 60.9316 169.698 61.0176 170 61.0176C170.479 61.0176 170.919 60.877 171.32 60.5957C171.727 60.3145 171.938 59.8014 171.953 59.0566V58.2285C171.812 58.3171 171.669 58.39 171.523 58.4473C171.383 58.4993 171.188 58.5488 170.938 58.5957L170.438 58.6895C169.969 58.7728 169.633 58.8743 169.43 58.9941C169.086 59.1973 168.914 59.5124 168.914 59.9395C168.914 60.3197 169.021 60.5931 169.234 60.7598ZM180.445 55.9082C179.549 55.9082 178.948 56.1999 178.641 56.7832C178.469 57.1113 178.383 57.6165 178.383 58.2988V62.3691H176.141V53.8535H178.266V55.3379C178.609 54.7702 178.909 54.3822 179.164 54.1738C179.581 53.8249 180.122 53.6504 180.789 53.6504C180.831 53.6504 180.865 53.653 180.891 53.6582C180.922 53.6582 180.987 53.6608 181.086 53.666V55.9473C180.945 55.9316 180.82 55.9212 180.711 55.916C180.602 55.9108 180.513 55.9082 180.445 55.9082ZM190.148 50.8691V62.3691H187.984V61.1895C187.667 61.6947 187.305 62.0618 186.898 62.291C186.492 62.5202 185.987 62.6348 185.383 62.6348C184.388 62.6348 183.549 62.2337 182.867 61.4316C182.19 60.6243 181.852 59.5905 181.852 58.3301C181.852 56.877 182.185 55.7337 182.852 54.9004C183.523 54.0671 184.419 53.6504 185.539 53.6504C186.055 53.6504 186.513 53.765 186.914 53.9941C187.315 54.2181 187.641 54.5306 187.891 54.9316V50.8691H190.148ZM184.148 58.166C184.148 58.9525 184.305 59.5801 184.617 60.0488C184.924 60.5228 185.393 60.7598 186.023 60.7598C186.654 60.7598 187.133 60.5254 187.461 60.0566C187.789 59.5879 187.953 58.9811 187.953 58.2363C187.953 57.1947 187.69 56.4499 187.164 56.002C186.841 55.7311 186.466 55.5957 186.039 55.5957C185.388 55.5957 184.909 55.8431 184.602 56.3379C184.299 56.8275 184.148 57.4368 184.148 58.166ZM194.469 53.8535V62.3691H192.211V53.8535H194.469ZM194.469 50.7832V52.8379H192.211V50.7832H194.469ZM200.641 55.502C199.885 55.502 199.367 55.8223 199.086 56.4629C198.94 56.8014 198.867 57.2337 198.867 57.7598V62.3691H196.648V53.8691H198.797V55.1113C199.083 54.6738 199.354 54.3587 199.609 54.166C200.068 53.8223 200.648 53.6504 201.352 53.6504C202.232 53.6504 202.951 53.8822 203.508 54.3457C204.07 54.804 204.352 55.5671 204.352 56.6348V62.3691H202.07V57.1895C202.07 56.7415 202.01 56.3978 201.891 56.1582C201.672 55.7207 201.255 55.502 200.641 55.502ZM208.82 63.8613C209.06 64.0645 209.464 64.166 210.031 64.166C210.833 64.166 211.37 63.8978 211.641 63.3613C211.818 63.0176 211.906 62.4395 211.906 61.627V61.0801C211.693 61.4447 211.464 61.7181 211.219 61.9004C210.776 62.2389 210.201 62.4082 209.492 62.4082C208.398 62.4082 207.523 62.0254 206.867 61.2598C206.216 60.4889 205.891 59.4473 205.891 58.1348C205.891 56.8691 206.206 55.8066 206.836 54.9473C207.466 54.0827 208.359 53.6504 209.516 53.6504C209.943 53.6504 210.315 53.7155 210.633 53.8457C211.174 54.0697 211.612 54.4811 211.945 55.0801V53.8535H214.109V61.9316C214.109 63.0306 213.924 63.8587 213.555 64.416C212.919 65.3743 211.701 65.8535 209.898 65.8535C208.81 65.8535 207.922 65.64 207.234 65.2129C206.547 64.7858 206.167 64.1478 206.094 63.2988H208.516C208.578 63.5592 208.68 63.7467 208.82 63.8613ZM208.445 59.4629C208.747 60.1816 209.289 60.541 210.07 60.541C210.591 60.541 211.031 60.3457 211.391 59.9551C211.75 59.5592 211.93 58.9316 211.93 58.0723C211.93 57.265 211.758 56.6504 211.414 56.2285C211.076 55.8066 210.62 55.5957 210.047 55.5957C209.266 55.5957 208.727 55.9629 208.43 56.6973C208.273 57.0879 208.195 57.5697 208.195 58.1426C208.195 58.6374 208.279 59.0775 208.445 59.4629Z" fill="#292D32"/>
<path d="M452.782 60.3691H450.786V53.5332H448.455V52.207C449.07 52.1797 449.501 52.1387 449.747 52.084C450.139 51.9974 450.458 51.8242 450.704 51.5645C450.873 51.3867 451 51.1497 451.087 50.8535C451.137 50.6758 451.162 50.5436 451.162 50.457H452.782V60.3691ZM460.37 54.9688C460.206 54.6087 459.885 54.4287 459.406 54.4287C458.85 54.4287 458.477 54.6087 458.285 54.9688C458.18 55.1738 458.128 55.4792 458.128 55.8848V60.3691H456.152V52.9316H458.046V54.0186C458.287 53.6312 458.515 53.3555 458.729 53.1914C459.108 52.8997 459.598 52.7539 460.199 52.7539C460.769 52.7539 461.229 52.8792 461.58 53.1299C461.863 53.3623 462.077 53.6608 462.223 54.0254C462.478 53.5879 462.795 53.2666 463.173 53.0615C463.574 52.8564 464.021 52.7539 464.513 52.7539C464.841 52.7539 465.164 52.8177 465.483 52.9453C465.802 53.0729 466.092 53.2962 466.352 53.6152C466.561 53.875 466.702 54.194 466.775 54.5723C466.821 54.8229 466.844 55.1898 466.844 55.6729L466.83 60.3691H464.834V55.625C464.834 55.3424 464.788 55.11 464.697 54.9277C464.524 54.5814 464.205 54.4082 463.74 54.4082C463.202 54.4082 462.831 54.6315 462.626 55.0781C462.521 55.3151 462.469 55.5999 462.469 55.9326V60.3691H460.507V55.9326C460.507 55.4906 460.461 55.1693 460.37 54.9688ZM478.95 56.7119V58.2363H477.829V60.3691H475.922V58.2363H471.998V56.5342L475.642 50.5186H477.829V56.7119H478.95ZM473.44 56.7119H475.922V52.4326L473.44 56.7119ZM484.289 52.4736C484.057 52.1956 483.724 52.0566 483.291 52.0566C482.699 52.0566 482.295 52.2777 482.081 52.7197C481.958 52.9749 481.885 53.3805 481.862 53.9365H479.969C480.001 53.0934 480.153 52.4121 480.427 51.8926C480.946 50.9036 481.869 50.4092 483.195 50.4092C484.243 50.4092 485.077 50.7008 485.697 51.2842C486.317 51.863 486.627 52.6309 486.627 53.5879C486.627 54.3216 486.408 54.9733 485.971 55.543C485.684 55.9212 485.212 56.3428 484.556 56.8076L483.776 57.3613C483.289 57.7077 482.954 57.9583 482.771 58.1133C482.594 58.2682 482.443 58.4482 482.32 58.6533H486.647V60.3691H479.859C479.878 59.6582 480.03 59.0088 480.317 58.4209C480.595 57.7601 481.252 57.0605 482.286 56.3223C483.184 55.6797 483.765 55.2194 484.029 54.9414C484.435 54.5085 484.638 54.0345 484.638 53.5195C484.638 53.1003 484.521 52.7516 484.289 52.4736ZM493.258 53.2598C493.841 53.6335 494.176 54.276 494.263 55.1875H492.314C492.287 54.9368 492.216 54.7386 492.103 54.5928C491.888 54.3285 491.524 54.1963 491.009 54.1963C490.585 54.1963 490.282 54.2624 490.1 54.3945C489.922 54.5267 489.833 54.6816 489.833 54.8594C489.833 55.0827 489.929 55.2445 490.12 55.3447C490.312 55.4495 490.988 55.6296 492.15 55.8848C492.925 56.0671 493.506 56.3428 493.894 56.7119C494.276 57.0856 494.468 57.5527 494.468 58.1133C494.468 58.8516 494.192 59.4554 493.641 59.9248C493.094 60.3896 492.246 60.6221 491.098 60.6221C489.926 60.6221 489.061 60.376 488.5 59.8838C487.944 59.387 487.666 58.7559 487.666 57.9902H489.642C489.683 58.3366 489.771 58.5827 489.908 58.7285C490.15 58.9883 490.596 59.1182 491.248 59.1182C491.631 59.1182 491.934 59.0612 492.157 58.9473C492.385 58.8333 492.499 58.6624 492.499 58.4346C492.499 58.2158 492.408 58.0495 492.226 57.9355C492.043 57.8216 491.367 57.6257 490.195 57.3477C489.352 57.138 488.757 56.876 488.411 56.5615C488.065 56.2516 487.892 55.805 487.892 55.2217C487.892 54.5335 488.16 53.9434 488.698 53.4512C489.241 52.9544 490.002 52.7061 490.981 52.7061C491.911 52.7061 492.67 52.8906 493.258 53.2598Z" fill="#EBF5FF" fill-opacity="0.5"/>
<path d="M93.4219 104.369C93.4219 98.2941 98.3469 93.3691 104.422 93.3691C110.497 93.3691 115.422 98.2941 115.422 104.369C115.422 110.444 110.497 115.369 104.422 115.369C98.3469 115.369 93.4219 110.444 93.4219 104.369ZM109.702 101.649C109.834 101.507 109.906 101.319 109.903 101.125C109.9 100.93 109.821 100.745 109.684 100.607C109.546 100.47 109.361 100.391 109.167 100.388C108.972 100.385 108.784 100.457 108.642 100.589L102.672 106.559L100.202 104.089C100.06 103.957 99.8716 103.885 99.6772 103.888C99.4829 103.891 99.2975 103.97 99.1599 104.107C99.0226 104.245 98.9441 104.43 98.9407 104.625C98.9374 104.819 99.0095 105.007 99.1419 105.149L102.142 108.149C102.283 108.29 102.473 108.368 102.672 108.368C102.871 108.368 103.061 108.29 103.202 108.149L109.702 101.649Z" fill="#3FB950"/>
<path d="M133.766 109.51C132.906 110.296 131.807 110.689 130.469 110.689C128.812 110.689 127.51 110.158 126.562 109.096C125.615 108.028 125.141 106.564 125.141 104.705C125.141 102.695 125.68 101.145 126.758 100.057C127.695 99.1087 128.888 98.6348 130.336 98.6348C132.273 98.6348 133.69 99.2702 134.586 100.541C135.081 101.255 135.346 101.971 135.383 102.689H132.977C132.82 102.137 132.62 101.721 132.375 101.439C131.938 100.939 131.289 100.689 130.43 100.689C129.555 100.689 128.865 101.044 128.359 101.752C127.854 102.455 127.602 103.452 127.602 104.744C127.602 106.036 127.867 107.005 128.398 107.65C128.935 108.291 129.615 108.611 130.438 108.611C131.281 108.611 131.924 108.335 132.367 107.783C132.612 107.486 132.815 107.041 132.977 106.447H135.359C135.151 107.702 134.62 108.723 133.766 109.51ZM137.07 98.8535H139.297V110.369H137.07V98.8535ZM148.578 102.932C149.297 103.833 149.656 104.898 149.656 106.127C149.656 107.377 149.297 108.447 148.578 109.338C147.859 110.223 146.768 110.666 145.305 110.666C143.841 110.666 142.75 110.223 142.031 109.338C141.312 108.447 140.953 107.377 140.953 106.127C140.953 104.898 141.312 103.833 142.031 102.932C142.75 102.031 143.841 101.58 145.305 101.58C146.768 101.58 147.859 102.031 148.578 102.932ZM145.297 103.463C144.646 103.463 144.143 103.695 143.789 104.158C143.44 104.617 143.266 105.273 143.266 106.127C143.266 106.981 143.44 107.64 143.789 108.104C144.143 108.567 144.646 108.799 145.297 108.799C145.948 108.799 146.448 108.567 146.797 108.104C147.146 107.64 147.32 106.981 147.32 106.127C147.32 105.273 147.146 104.617 146.797 104.158C146.448 103.695 145.948 103.463 145.297 103.463ZM155.266 103.502C154.51 103.502 153.992 103.822 153.711 104.463C153.565 104.801 153.492 105.234 153.492 105.76V110.369H151.273V101.869H153.422V103.111C153.708 102.674 153.979 102.359 154.234 102.166C154.693 101.822 155.273 101.65 155.977 101.65C156.857 101.65 157.576 101.882 158.133 102.346C158.695 102.804 158.977 103.567 158.977 104.635V110.369H156.695V105.189C156.695 104.742 156.635 104.398 156.516 104.158C156.297 103.721 155.88 103.502 155.266 103.502ZM168.328 107.869C168.271 108.374 168.008 108.887 167.539 109.408C166.81 110.236 165.789 110.65 164.477 110.65C163.393 110.65 162.438 110.301 161.609 109.604C160.781 108.906 160.367 107.77 160.367 106.197C160.367 104.723 160.74 103.593 161.484 102.807C162.234 102.02 163.206 101.627 164.398 101.627C165.107 101.627 165.745 101.76 166.312 102.025C166.88 102.291 167.349 102.71 167.719 103.283C168.052 103.788 168.268 104.374 168.367 105.041C168.424 105.432 168.448 105.994 168.438 106.729H162.609C162.641 107.583 162.909 108.182 163.414 108.525C163.721 108.739 164.091 108.846 164.523 108.846C164.982 108.846 165.354 108.715 165.641 108.455C165.797 108.314 165.935 108.119 166.055 107.869H168.328ZM166.125 105.26C166.089 104.671 165.909 104.226 165.586 103.924C165.268 103.617 164.872 103.463 164.398 103.463C163.883 103.463 163.482 103.624 163.195 103.947C162.914 104.27 162.737 104.708 162.664 105.26H166.125Z" fill="#292D32"/>
<path d="M452.829 108.369H450.833V101.533H448.502V100.207C449.117 100.18 449.548 100.139 449.794 100.084C450.186 99.9974 450.505 99.8242 450.751 99.5645C450.92 99.3867 451.047 99.1497 451.134 98.8535C451.184 98.6758 451.209 98.5436 451.209 98.457H452.829V108.369ZM460.417 102.969C460.253 102.609 459.932 102.429 459.453 102.429C458.897 102.429 458.523 102.609 458.332 102.969C458.227 103.174 458.175 103.479 458.175 103.885V108.369H456.199V100.932H458.093V102.019C458.334 101.631 458.562 101.355 458.776 101.191C459.155 100.9 459.645 100.754 460.246 100.754C460.816 100.754 461.276 100.879 461.627 101.13C461.91 101.362 462.124 101.661 462.27 102.025C462.525 101.588 462.841 101.267 463.22 101.062C463.621 100.856 464.067 100.754 464.56 100.754C464.888 100.754 465.211 100.818 465.53 100.945C465.849 101.073 466.139 101.296 466.398 101.615C466.608 101.875 466.749 102.194 466.822 102.572C466.868 102.823 466.891 103.19 466.891 103.673L466.877 108.369H464.881V103.625C464.881 103.342 464.835 103.11 464.744 102.928C464.571 102.581 464.252 102.408 463.787 102.408C463.249 102.408 462.878 102.632 462.673 103.078C462.568 103.315 462.516 103.6 462.516 103.933V108.369H460.554V103.933C460.554 103.491 460.508 103.169 460.417 102.969ZM476.543 100.474C476.311 100.196 475.978 100.057 475.545 100.057C474.952 100.057 474.549 100.278 474.335 100.72C474.212 100.975 474.139 101.381 474.116 101.937H472.223C472.255 101.093 472.407 100.412 472.681 99.8926C473.2 98.9036 474.123 98.4092 475.449 98.4092C476.497 98.4092 477.331 98.7008 477.951 99.2842C478.571 99.863 478.881 100.631 478.881 101.588C478.881 102.322 478.662 102.973 478.225 103.543C477.938 103.921 477.466 104.343 476.81 104.808L476.03 105.361C475.543 105.708 475.208 105.958 475.025 106.113C474.848 106.268 474.697 106.448 474.574 106.653H478.901V108.369H472.113C472.132 107.658 472.284 107.009 472.571 106.421C472.849 105.76 473.506 105.061 474.54 104.322C475.438 103.68 476.019 103.219 476.283 102.941C476.689 102.508 476.892 102.035 476.892 101.52C476.892 101.1 476.775 100.752 476.543 100.474ZM486.79 104.712V106.236H485.669V108.369H483.762V106.236H479.838V104.534L483.481 98.5186H485.669V104.712H486.79ZM481.28 104.712H483.762V100.433L481.28 104.712ZM493.305 101.26C493.888 101.633 494.223 102.276 494.31 103.188H492.361C492.334 102.937 492.263 102.739 492.149 102.593C491.935 102.328 491.571 102.196 491.056 102.196C490.632 102.196 490.329 102.262 490.146 102.395C489.969 102.527 489.88 102.682 489.88 102.859C489.88 103.083 489.976 103.244 490.167 103.345C490.358 103.45 491.035 103.63 492.197 103.885C492.972 104.067 493.553 104.343 493.94 104.712C494.323 105.086 494.515 105.553 494.515 106.113C494.515 106.852 494.239 107.455 493.688 107.925C493.141 108.39 492.293 108.622 491.145 108.622C489.973 108.622 489.107 108.376 488.547 107.884C487.991 107.387 487.713 106.756 487.713 105.99H489.688C489.729 106.337 489.818 106.583 489.955 106.729C490.197 106.988 490.643 107.118 491.295 107.118C491.678 107.118 491.981 107.061 492.204 106.947C492.432 106.833 492.546 106.662 492.546 106.435C492.546 106.216 492.455 106.049 492.272 105.936C492.09 105.822 491.413 105.626 490.242 105.348C489.399 105.138 488.804 104.876 488.458 104.562C488.112 104.252 487.938 103.805 487.938 103.222C487.938 102.534 488.207 101.943 488.745 101.451C489.287 100.954 490.049 100.706 491.028 100.706C491.958 100.706 492.717 100.891 493.305 101.26Z" fill="#EBF5FF" fill-opacity="0.5"/>
<path d="M93.4219 152.369C93.4219 146.294 98.3469 141.369 104.422 141.369C110.497 141.369 115.422 146.294 115.422 152.369C115.422 158.444 110.497 163.369 104.422 163.369C98.3469 163.369 93.4219 158.444 93.4219 152.369ZM109.702 149.649C109.834 149.507 109.906 149.319 109.903 149.125C109.9 148.93 109.821 148.745 109.684 148.607C109.546 148.47 109.361 148.391 109.167 148.388C108.972 148.385 108.784 148.457 108.642 148.589L102.672 154.559L100.202 152.089C100.06 151.957 99.8716 151.885 99.6772 151.888C99.4829 151.891 99.2975 151.97 99.1599 152.107C99.0226 152.245 98.9441 152.43 98.9407 152.625C98.9374 152.819 99.0095 153.007 99.1419 153.149L102.142 156.149C102.283 156.29 102.473 156.368 102.672 156.368C102.871 156.368 103.061 156.29 103.202 156.149L109.702 149.649Z" fill="#3FB950"/>
<path d="M130.531 153.854H128.047V158.369H125.695V146.854H131.344C132.151 146.869 132.771 146.968 133.203 147.15C133.641 147.333 134.01 147.601 134.312 147.955C134.562 148.247 134.76 148.57 134.906 148.924C135.052 149.278 135.125 149.682 135.125 150.135C135.125 150.682 134.987 151.221 134.711 151.752C134.435 152.278 133.979 152.65 133.344 152.869C133.875 153.083 134.25 153.387 134.469 153.783C134.693 154.174 134.805 154.773 134.805 155.58V156.354C134.805 156.88 134.826 157.236 134.867 157.424C134.93 157.721 135.076 157.939 135.305 158.08V158.369H132.656C132.583 158.114 132.531 157.908 132.5 157.752C132.438 157.429 132.404 157.098 132.398 156.76L132.383 155.689C132.372 154.955 132.237 154.465 131.977 154.221C131.721 153.976 131.24 153.854 130.531 153.854ZM131.992 151.76C132.471 151.541 132.711 151.109 132.711 150.463C132.711 149.765 132.479 149.296 132.016 149.057C131.755 148.921 131.365 148.854 130.844 148.854H128.047V151.947H130.773C131.315 151.947 131.721 151.885 131.992 151.76ZM142.484 157.166C142.464 157.192 142.411 157.27 142.328 157.4C142.245 157.531 142.146 157.645 142.031 157.744C141.682 158.057 141.344 158.27 141.016 158.385C140.693 158.499 140.312 158.557 139.875 158.557C138.615 158.557 137.766 158.104 137.328 157.197C137.083 156.697 136.961 155.96 136.961 154.986V149.854H139.242V154.986C139.242 155.471 139.299 155.835 139.414 156.08C139.617 156.512 140.016 156.729 140.609 156.729C141.37 156.729 141.891 156.421 142.172 155.807C142.318 155.473 142.391 155.033 142.391 154.486V149.854H144.648V158.369H142.484V157.166ZM150.812 151.502C150.057 151.502 149.539 151.822 149.258 152.463C149.112 152.801 149.039 153.234 149.039 153.76V158.369H146.82V149.869H148.969V151.111C149.255 150.674 149.526 150.359 149.781 150.166C150.24 149.822 150.82 149.65 151.523 149.65C152.404 149.65 153.122 149.882 153.68 150.346C154.242 150.804 154.523 151.567 154.523 152.635V158.369H152.242V153.189C152.242 152.742 152.182 152.398 152.062 152.158C151.844 151.721 151.427 151.502 150.812 151.502ZM161.219 146.854H163.625V156.299H169.328V158.369H161.219V146.854ZM177.922 150.932C178.641 151.833 179 152.898 179 154.127C179 155.377 178.641 156.447 177.922 157.338C177.203 158.223 176.112 158.666 174.648 158.666C173.185 158.666 172.094 158.223 171.375 157.338C170.656 156.447 170.297 155.377 170.297 154.127C170.297 152.898 170.656 151.833 171.375 150.932C172.094 150.031 173.185 149.58 174.648 149.58C176.112 149.58 177.203 150.031 177.922 150.932ZM174.641 151.463C173.99 151.463 173.487 151.695 173.133 152.158C172.784 152.617 172.609 153.273 172.609 154.127C172.609 154.981 172.784 155.64 173.133 156.104C173.487 156.567 173.99 156.799 174.641 156.799C175.292 156.799 175.792 156.567 176.141 156.104C176.49 155.64 176.664 154.981 176.664 154.127C176.664 153.273 176.49 152.617 176.141 152.158C175.792 151.695 175.292 151.463 174.641 151.463ZM187.969 152.908H185.688C185.646 152.59 185.539 152.304 185.367 152.049C185.117 151.705 184.729 151.533 184.203 151.533C183.453 151.533 182.94 151.906 182.664 152.65C182.518 153.046 182.445 153.572 182.445 154.229C182.445 154.854 182.518 155.356 182.664 155.736C182.93 156.445 183.43 156.799 184.164 156.799C184.685 156.799 185.055 156.658 185.273 156.377C185.492 156.096 185.625 155.731 185.672 155.283H187.945C187.893 155.96 187.648 156.601 187.211 157.205C186.513 158.179 185.479 158.666 184.109 158.666C182.74 158.666 181.732 158.26 181.086 157.447C180.44 156.635 180.117 155.58 180.117 154.283C180.117 152.82 180.474 151.682 181.188 150.869C181.901 150.057 182.885 149.65 184.141 149.65C185.208 149.65 186.081 149.89 186.758 150.369C187.44 150.848 187.844 151.695 187.969 152.908ZM189.828 150.775C190.417 150.025 191.427 149.65 192.859 149.65C193.792 149.65 194.62 149.835 195.344 150.205C196.068 150.575 196.43 151.273 196.43 152.299V156.205C196.43 156.476 196.435 156.804 196.445 157.189C196.461 157.481 196.505 157.679 196.578 157.783C196.651 157.887 196.76 157.973 196.906 158.041V158.369H194.484C194.417 158.197 194.37 158.036 194.344 157.885C194.318 157.734 194.297 157.562 194.281 157.369C193.974 157.702 193.62 157.986 193.219 158.221C192.74 158.497 192.198 158.635 191.594 158.635C190.823 158.635 190.185 158.416 189.68 157.979C189.18 157.536 188.93 156.911 188.93 156.104C188.93 155.057 189.333 154.299 190.141 153.83C190.583 153.575 191.234 153.393 192.094 153.283L192.852 153.189C193.263 153.137 193.557 153.072 193.734 152.994C194.052 152.859 194.211 152.648 194.211 152.361C194.211 152.012 194.089 151.773 193.844 151.643C193.604 151.507 193.25 151.439 192.781 151.439C192.255 151.439 191.883 151.57 191.664 151.83C191.508 152.023 191.404 152.283 191.352 152.611H189.203C189.25 151.867 189.458 151.255 189.828 150.775ZM191.484 156.76C191.693 156.932 191.948 157.018 192.25 157.018C192.729 157.018 193.169 156.877 193.57 156.596C193.977 156.314 194.188 155.801 194.203 155.057V154.229C194.062 154.317 193.919 154.39 193.773 154.447C193.633 154.499 193.438 154.549 193.188 154.596L192.688 154.689C192.219 154.773 191.883 154.874 191.68 154.994C191.336 155.197 191.164 155.512 191.164 155.939C191.164 156.32 191.271 156.593 191.484 156.76ZM198.461 146.854H200.688V158.369H198.461V146.854ZM202.914 146.854H205.141V158.369H202.914V146.854ZM210.781 156.135L212.539 149.854H214.906L211.984 158.229C211.422 159.843 210.977 160.843 210.648 161.229C210.32 161.619 209.664 161.814 208.68 161.814C208.482 161.814 208.323 161.812 208.203 161.807C208.083 161.807 207.904 161.799 207.664 161.783V160.002L207.945 160.018C208.164 160.028 208.372 160.02 208.57 159.994C208.768 159.968 208.935 159.908 209.07 159.814C209.201 159.726 209.32 159.541 209.43 159.26C209.544 158.979 209.591 158.807 209.57 158.744L206.445 149.854H208.922L210.781 156.135Z" fill="#292D32"/>
<path d="M453.173 156.369H451.177V149.533H448.846V148.207C449.461 148.18 449.892 148.139 450.138 148.084C450.53 147.997 450.849 147.824 451.095 147.564C451.263 147.387 451.391 147.15 451.478 146.854C451.528 146.676 451.553 146.544 451.553 146.457H453.173V156.369ZM460.761 150.969C460.597 150.609 460.275 150.429 459.797 150.429C459.241 150.429 458.867 150.609 458.676 150.969C458.571 151.174 458.519 151.479 458.519 151.885V156.369H456.543V148.932H458.437V150.019C458.678 149.631 458.906 149.355 459.12 149.191C459.498 148.9 459.988 148.754 460.59 148.754C461.16 148.754 461.62 148.879 461.971 149.13C462.253 149.362 462.467 149.661 462.613 150.025C462.868 149.588 463.185 149.267 463.563 149.062C463.965 148.856 464.411 148.754 464.903 148.754C465.231 148.754 465.555 148.818 465.874 148.945C466.193 149.073 466.482 149.296 466.742 149.615C466.952 149.875 467.093 150.194 467.166 150.572C467.212 150.823 467.234 151.19 467.234 151.673L467.221 156.369H465.225V151.625C465.225 151.342 465.179 151.11 465.088 150.928C464.915 150.581 464.596 150.408 464.131 150.408C463.593 150.408 463.222 150.632 463.017 151.078C462.912 151.315 462.859 151.6 462.859 151.933V156.369H460.897V151.933C460.897 151.491 460.852 151.169 460.761 150.969ZM474.699 148.433C474.48 148.724 474.376 149.114 474.385 149.602H472.566C472.585 149.109 472.669 148.642 472.819 148.2C472.979 147.813 473.229 147.455 473.571 147.127C473.826 146.895 474.13 146.717 474.48 146.594C474.831 146.471 475.262 146.409 475.772 146.409C476.72 146.409 477.484 146.655 478.062 147.147C478.646 147.635 478.938 148.291 478.938 149.116C478.938 149.7 478.764 150.192 478.418 150.593C478.199 150.843 477.971 151.014 477.734 151.105C477.912 151.105 478.167 151.258 478.5 151.563C478.997 152.024 479.245 152.653 479.245 153.45C479.245 154.289 478.953 155.027 478.37 155.665C477.791 156.299 476.932 156.615 475.793 156.615C474.389 156.615 473.414 156.157 472.867 155.241C472.58 154.754 472.421 154.116 472.389 153.327H474.303C474.303 153.724 474.367 154.052 474.494 154.312C474.731 154.79 475.162 155.029 475.786 155.029C476.169 155.029 476.502 154.899 476.784 154.64C477.071 154.375 477.215 153.997 477.215 153.505C477.215 152.853 476.951 152.418 476.422 152.199C476.121 152.076 475.647 152.015 475 152.015V150.62C475.633 150.611 476.076 150.549 476.326 150.436C476.759 150.244 476.976 149.857 476.976 149.273C476.976 148.895 476.864 148.588 476.641 148.351C476.422 148.114 476.112 147.995 475.711 147.995C475.251 147.995 474.913 148.141 474.699 148.433ZM484.092 149.937C484.971 149.937 485.691 150.235 486.252 150.832C486.817 151.429 487.1 152.192 487.1 153.122C487.1 154.047 486.824 154.863 486.272 155.569C485.721 156.276 484.864 156.629 483.702 156.629C482.453 156.629 481.533 156.107 480.94 155.063C480.48 154.248 480.25 153.195 480.25 151.905C480.25 151.149 480.282 150.534 480.346 150.06C480.46 149.216 480.681 148.515 481.009 147.954C481.291 147.476 481.66 147.09 482.116 146.799C482.576 146.507 483.126 146.361 483.764 146.361C484.684 146.361 485.418 146.598 485.965 147.072C486.512 147.542 486.819 148.168 486.888 148.952H484.946C484.946 148.793 484.885 148.617 484.762 148.426C484.552 148.116 484.235 147.961 483.812 147.961C483.178 147.961 482.727 148.316 482.458 149.027C482.312 149.419 482.212 149.998 482.157 150.764C482.399 150.477 482.679 150.267 482.998 150.135C483.317 150.003 483.682 149.937 484.092 149.937ZM482.779 151.796C482.396 152.092 482.205 152.571 482.205 153.231C482.205 153.765 482.349 154.2 482.636 154.537C482.923 154.874 483.287 155.043 483.729 155.043C484.162 155.043 484.502 154.881 484.748 154.558C484.999 154.229 485.124 153.806 485.124 153.286C485.124 152.707 484.983 152.265 484.7 151.96C484.418 151.65 484.071 151.495 483.661 151.495C483.328 151.495 483.035 151.595 482.779 151.796ZM493.648 149.26C494.232 149.633 494.567 150.276 494.653 151.188H492.705C492.678 150.937 492.607 150.739 492.493 150.593C492.279 150.328 491.914 150.196 491.399 150.196C490.976 150.196 490.673 150.262 490.49 150.395C490.312 150.527 490.224 150.682 490.224 150.859C490.224 151.083 490.319 151.244 490.511 151.345C490.702 151.45 491.379 151.63 492.541 151.885C493.316 152.067 493.897 152.343 494.284 152.712C494.667 153.086 494.858 153.553 494.858 154.113C494.858 154.852 494.583 155.455 494.031 155.925C493.484 156.39 492.637 156.622 491.488 156.622C490.317 156.622 489.451 156.376 488.891 155.884C488.335 155.387 488.057 154.756 488.057 153.99H490.032C490.073 154.337 490.162 154.583 490.299 154.729C490.54 154.988 490.987 155.118 491.639 155.118C492.021 155.118 492.325 155.061 492.548 154.947C492.776 154.833 492.89 154.662 492.89 154.435C492.89 154.216 492.799 154.049 492.616 153.936C492.434 153.822 491.757 153.626 490.586 153.348C489.743 153.138 489.148 152.876 488.802 152.562C488.455 152.252 488.282 151.805 488.282 151.222C488.282 150.534 488.551 149.943 489.089 149.451C489.631 148.954 490.392 148.706 491.372 148.706C492.302 148.706 493.061 148.891 493.648 149.26Z" fill="#EBF5FF" fill-opacity="0.5"/>
</g>
<path d="M112.899 512C162.318 512 202.381 506.618 202.381 499.98C202.381 493.341 162.318 487.96 112.899 487.96C63.479 487.96 23.4164 493.341 23.4164 499.98C23.4164 506.618 63.479 512 112.899 512Z" fill="#E8EAEE"/>
<path d="M556.036 415.306H150.695V486.891H556.036V415.306Z" fill="#F6F8FA"/>
<path d="M153.633 416.107C168.191 424.521 185.553 428.528 202.648 427.459C219.743 426.391 236.438 420.514 253.533 421.984C266.621 423.186 278.908 428.795 291.462 432.401C306.421 436.675 322.314 438.277 337.94 436.942C364.918 434.671 392.03 424.12 418.207 430.531C427.823 432.802 436.771 437.342 445.853 440.681C478.173 452.434 503.014 449.362 532.664 432.668C541.078 427.86 549.091 421.85 553.766 413.703" fill="#F0F1F2"/>
<path d="M525.318 383.119H184.885L141.346 397.142H564.45L525.318 383.119Z" fill="#F6F8FA"/>
<path d="M348.624 385.122H207.59L186.488 392.201H341.946L348.624 385.122Z" fill="#959DA5"/>
<path d="M186.488 392.201L207.723 385.122H191.429L169.793 391.8C169.793 391.8 186.755 392.601 186.488 392.201Z" fill="#E8EAEE"/>
<path d="M218.14 386.057L204.518 391.266" stroke="#6A737D" stroke-width="0.866089" stroke-miterlimit="10"/>
<path d="M238.842 386.057L225.219 391.266" stroke="#6A737D" stroke-width="0.866089" stroke-miterlimit="10"/>
<path d="M259.543 386.057L245.92 391.266" stroke="#6A737D" stroke-width="0.866089" stroke-miterlimit="10"/>
<path d="M280.244 386.057L266.488 391.266" stroke="#6A737D" stroke-width="0.866089" stroke-miterlimit="10"/>
<path d="M300.945 386.057L287.189 391.266" stroke="#6A737D" stroke-width="0.866089" stroke-miterlimit="10"/>
<path d="M321.646 386.057L307.89 391.266" stroke="#6A737D" stroke-width="0.866089" stroke-miterlimit="10"/>
<path d="M342.347 386.057L328.591 391.266" stroke="#6A737D" stroke-width="0.866089" stroke-miterlimit="10"/>
<path d="M142.147 417.175L563.649 416.374L564.584 397.543L142.147 397.142V417.175Z" fill="#E1E4E8"/>
<path d="M363.583 389.396L328.992 388.728L329.259 385.122L366.387 385.523L363.583 389.396Z" fill="#D1D5DA" stroke="#FAFBFC" stroke-width="1.15475" stroke-miterlimit="10"/>
<path d="M237.907 362.952H222.414V386.591H237.907V362.952Z" fill="#E1E4E8"/>
<path d="M233.9 363.753C232.832 367.76 227.089 378.979 227.089 378.979L237.506 378.845L238.04 362.952L233.9 363.753Z" fill="#D1D5DA"/>
<path d="M234.568 388.995H193.299V378.311L234.568 377.51V388.995Z" fill="#E8EAEE"/>
<path d="M234.568 388.995L247.256 386.324L246.588 376.174L234.568 377.51V388.995Z" fill="#D1D5DA"/>
<path d="M193.299 378.311L214 375.907L246.588 376.174L234.568 377.509L193.299 378.311Z" fill="#F6F8FA"/>
<path d="M218.808 380.047H197.039V386.725H218.808V380.047Z" fill="#F6F8FA"/>
<path d="M228.825 380.047H222.014V386.725H228.825V380.047Z" fill="#F6F8FA"/>
<path d="M285.853 388.862L245.386 387.66L244.985 331.299H284.25L285.853 388.862Z" fill="#E8EAEE"/>
<path d="M292.798 385.523L285.185 389.262L283.716 330.899L292.798 327.293V385.523Z" fill="#E1E4E8"/>
<path d="M291.462 339.179L286.922 341.449V335.172L291.462 333.035V339.179Z" fill="#E8EAEE"/>
<path d="M291.329 382.184L287.055 384.321V346.258L291.329 344.121V382.184Z" fill="#E8EAEE"/>
<path d="M292.798 327.293L283.449 331.566L244.985 331.299L256.204 328.361L292.798 327.293Z" fill="#F6F8FA"/>
<path d="M282.381 334.772H247.923V341.182H282.381V334.772Z" fill="#F6F8FA"/>
<path d="M269.826 351.867C265.152 349.73 254.601 352.535 254.601 360.014C254.601 367.493 259.676 373.236 266.22 371.767C272.631 370.431 275.97 365.089 275.703 361.616C274.367 362.952 273.165 362.952 272.23 362.017C271.296 361.082 272.498 358.278 272.498 358.278C272.498 358.278 269.96 359.88 269.292 358.01C268.625 356.141 269.96 354.271 269.96 354.271C269.96 354.271 267.155 354.939 267.155 353.87C267.155 352.802 269.826 351.867 269.826 351.867Z" fill="#F6F8FA"/>
<path d="M265.686 369.897C259.543 371.232 256.07 364.154 254.868 358.411C254.735 358.945 254.601 359.48 254.601 360.014C254.601 367.359 259.676 373.236 266.22 371.767C271.429 370.698 274.634 366.959 275.436 363.753C273.967 365.49 270.628 368.828 265.686 369.897Z" fill="#E1E4E8"/>
<path d="M267.824 363.753C268.119 363.753 268.358 363.454 268.358 363.086C268.358 362.717 268.119 362.418 267.824 362.418C267.528 362.418 267.289 362.717 267.289 363.086C267.289 363.454 267.528 363.753 267.824 363.753Z" fill="#E8EAEE"/>
<path d="M261.412 356.007C261.781 356.007 262.08 355.648 262.08 355.206C262.08 354.763 261.781 354.404 261.412 354.404C261.044 354.404 260.745 354.763 260.745 355.206C260.745 355.648 261.044 356.007 261.412 356.007Z" fill="#E8EAEE"/>
<path d="M261.546 366.291C261.842 366.291 262.081 366.052 262.081 365.757C262.081 365.462 261.842 365.222 261.546 365.222C261.251 365.222 261.012 365.462 261.012 365.757C261.012 366.052 261.251 366.291 261.546 366.291Z" fill="#E8EAEE"/>
<path d="M263.149 361.082C263.517 361.082 263.816 360.783 263.816 360.414C263.816 360.046 263.517 359.747 263.149 359.747C262.78 359.747 262.481 360.046 262.481 360.414C262.481 360.783 262.78 361.082 263.149 361.082Z" fill="#E8EAEE"/>
<path d="M285.853 388.862C285.185 388.194 284.785 387.393 284.384 386.591C283.716 384.989 283.182 383.252 282.247 381.783C279.71 377.643 273.833 376.708 269.292 378.578C267.289 379.379 265.419 380.715 263.149 380.982C260.611 381.249 258.074 380.047 256.738 377.91C255.536 375.907 255.402 373.503 254.334 371.366C252.731 367.894 248.725 366.157 244.985 366.424L245.386 387.66L285.853 388.862Z" fill="#E1E4E8"/>
<path d="M238.228 363.78C238.305 362.75 234.849 361.652 230.51 361.328C226.17 361.004 222.59 361.576 222.513 362.606C222.436 363.636 225.891 364.733 230.231 365.057C234.571 365.381 238.151 364.809 238.228 363.78Z" fill="#E8EAEE"/>
<path d="M349.559 359.88H280.912L261.813 325.69H332.998L349.559 359.88Z" fill="#79B8FF"/>
<path d="M342.748 395.807L270.361 394.338V370.832L342.748 372.301V395.807Z" fill="#79B8FF"/>
<path d="M342.614 395.807L349.158 388.995L349.292 366.959L342.614 372.301V395.807Z" fill="#2188FF"/>
<path d="M270.361 370.832L290.127 366.425L349.426 366.959L342.748 372.301L270.361 370.832Z" fill="#C8E1FF"/>
<path d="M349.559 359.88L351.963 355.607L334.601 321.149L332.998 325.69L349.559 359.88Z" fill="#2188FF"/>
<path d="M334.601 321.149H265.553L261.813 325.69H332.998L334.601 321.149Z" fill="#C8E1FF"/>
<path d="M318.975 347.994H298.407L296.27 344.254H316.972L318.975 347.994Z" fill="#2188FF"/>
<path d="M314.568 345.056H300.01V370.698H314.568V345.056Z" fill="#959DA5"/>
<path d="M314.434 345.056L316.437 347.727V369.763L314.434 370.698V345.056Z" fill="#6A737D"/>
<path d="M342.748 395.807V379.379C340.077 378.712 337.005 379.914 334.601 381.65C331.663 383.787 329.125 386.591 325.786 387.793C323.382 388.595 320.845 388.595 318.307 388.328C312.564 387.793 306.821 386.324 301.078 385.924C295.336 385.523 289.192 386.191 284.384 389.53C282.247 390.999 280.244 393.136 278.107 394.471L342.748 395.807Z" fill="#2188FF"/>
<path d="M349.158 382.852C348.357 383.386 347.422 383.787 346.621 383.92C344.751 384.187 343.683 380.047 342.481 379.379V395.94L349.025 389.129L349.158 382.852Z" fill="#0366D6"/>
<path d="M335.269 355.473H333.265L330.995 350.932H332.865L335.269 355.473Z" fill="#6A737D"/>
<path d="M339.542 355.473H337.673L335.269 350.932H337.138L339.542 355.473Z" fill="#6A737D"/>
<path d="M374.267 378.845H343.95V395.005H374.267V378.845Z" fill="#FFD1AC"/>
<path d="M377.472 391.8L373.866 395.005V378.845L377.472 377.51V391.8Z" fill="#FFAB70"/>
<path d="M377.472 377.51L373.866 378.845H343.95L350.628 377.51H377.472Z" fill="#FFEBDA"/>
<path d="M370.26 377.91H352.23V378.311H370.26V377.91Z" fill="#FFAB70"/>
<path d="M353.566 377.91C356.103 370.832 348.758 361.483 345.552 361.082H365.986C372.13 365.356 369.058 377.91 369.058 377.91C369.058 377.91 353.432 378.445 353.566 377.91Z" fill="#FFF5B1"/>
<path d="M365.719 364.154H353.032L352.097 363.486H364.784L365.719 364.154Z" fill="#FFD1AC"/>
<path d="M366.387 367.092H354.768L353.966 366.157H365.853L366.387 367.092Z" fill="#FFD1AC"/>
<path d="M361.045 370.031H356.103L355.703 369.096H360.778L361.045 370.031Z" fill="#FFD1AC"/>
<path d="M360.778 373.369H356.638V372.301H360.644L360.778 373.369Z" fill="#FFD1AC"/>
<path d="M362.38 376.041H356.504V375.106H362.38V376.041Z" fill="#FFD1AC"/>
<path d="M377.339 383.653C376.938 384.187 376.938 385.122 376.671 385.79C376.404 386.458 375.602 387.126 374.935 386.725C374.668 386.591 374.534 386.191 374.4 385.924C374.267 385.79 374.133 385.523 374 385.389V395.005L377.472 391.934L377.339 383.653Z" fill="#FB8532"/>
<path d="M374.267 385.79C373.466 384.722 371.729 384.722 370.527 385.523C369.325 386.324 368.524 387.526 367.589 388.595C365.319 391.266 361.846 392.868 358.24 392.868C354.768 392.868 351.295 391.533 347.823 392.067C347.155 392.201 345.419 392.735 344.083 393.536V395.005H374.401V385.79H374.267Z" fill="#FFAB70"/>
<path d="M478.574 337.042C495.535 329.964 506.22 309.129 508.49 295.373C510.494 283.219 509.425 274.672 507.288 268.528C508.357 261.049 502.614 244.622 494.6 243.286C483.515 243.286 474.834 251.967 472.297 255.573" stroke="#0366D6" stroke-width="2.31111" stroke-miterlimit="10"/>
<path d="M485.652 251.567C488.19 248.361 492.33 249.563 494.066 250.231C495.802 250.899 498.607 260.381 495.001 275.607" stroke="#0366D6" stroke-width="2.31111" stroke-miterlimit="10"/>
<path d="M489.659 243.153C480.31 232.068 456.003 230.198 444.384 231.934C432.898 233.804 406.855 243.82 402.18 262.251C397.506 280.682 403.649 300.181 407.255 306.191C400.711 312.735 405.118 324.622 411.529 331.433C418.073 338.244 441.579 344.788 452.397 344.655C461.879 344.521 466.687 342.251 466.687 342.251" stroke="#0366D6" stroke-width="2.31111" stroke-miterlimit="10"/>
<path d="M415.803 316.074C415.402 318.611 422.747 322.885 424.083 319.146C425.419 315.406 417.138 312.334 415.803 316.074Z" stroke="#0366D6" stroke-width="2.31111" stroke-miterlimit="10"/>
<path d="M401.112 266.258C404.05 270.932 409.793 276.675 417.672 276.675C425.552 276.675 439.309 270.131 448.657 272.001C458.006 273.87 468.824 281.082 469.626 295.774C470.293 309.797 463.616 314.338 459.075 321.283C458.674 321.95 460.544 323.553 460.945 324.221C464.951 330.899 462.681 332.368 461.212 336.374C459.742 340.648 450.394 345.456 443.182 343.586" stroke="#0366D6" stroke-width="2.31111" stroke-miterlimit="10"/>
<path d="M480.444 323.553C488.056 318.879 503.949 320.615 506.754 322.885" stroke="#0366D6" stroke-width="2.31111" stroke-miterlimit="10"/>
<path d="M480.444 327.159C486.187 326.758 494.2 332.635 497.005 337.309" stroke="#0366D6" stroke-width="2.31111" stroke-miterlimit="10"/>
<path d="M405.519 308.729C401.245 303.653 395.369 301.917 390.694 302.585" stroke="#0366D6" stroke-width="2.31111" stroke-miterlimit="10"/>
<path d="M403.248 313.136C398.574 310.598 397.105 309.93 393.9 310.598" stroke="#0366D6" stroke-width="2.31111" stroke-miterlimit="10"/>
<path d="M405.519 308.729C401.245 303.653 395.369 301.917 390.694 302.585" stroke="#0366D6" stroke-width="2.31111" stroke-miterlimit="10" stroke-linecap="round"/>
<path d="M403.248 313.136C398.574 310.598 397.105 309.93 393.9 310.598" stroke="#0366D6" stroke-width="2.31111" stroke-miterlimit="10" stroke-linecap="round"/>
<path d="M470.293 348.528C476.036 354.538 480.711 365.757 482.714 372.568" stroke="#0366D6" stroke-width="2.31111" stroke-miterlimit="10"/>
<path d="M488.056 373.369C474.3 375.239 462.146 366.825 442.247 367.893C427.155 368.695 411.93 378.711 413.399 385.523C410.861 384.454 406.187 385.523 407.656 389.129C409.125 392.735 427.556 392.735 445.853 392.735C464.15 392.735 499.542 389.529 502.747 384.454C505.953 379.379 496.203 359.479 490.46 350.932C484.183 341.583 471.896 328.628 466.821 333.97C463.215 337.576 467.756 341.449 467.355 345.055" stroke="#0366D6" stroke-width="2.31111" stroke-miterlimit="10"/>
<path d="M471.362 349.463C472.697 355.874 472.564 358.545 473.632 371.5" stroke="#0366D6" stroke-width="2.31111" stroke-miterlimit="10"/>
<path d="M457.338 351.199C457.338 357.61 454.4 367.626 454.4 367.626" stroke="#0366D6" stroke-width="2.31111" stroke-miterlimit="10"/>
<path d="M449.993 345.189C449.325 352.134 438.106 366.024 434.233 369.229" stroke="#0366D6" stroke-width="2.31111" stroke-miterlimit="10"/>
<path d="M441.846 343.453C434.233 348.528 409.793 350.665 403.649 336.508C397.506 322.485 398.975 301.116 391.763 290.298C384.551 279.48 362.38 274.271 350.895 286.959C339.409 299.647 347.022 313.136 347.022 316.475C347.022 319.68 340.878 324.755 344.083 328.361C347.289 331.967 352.097 323.419 359.042 318.745C365.986 314.071 380.143 309.129 386.688 313.403" stroke="#0366D6" stroke-width="2.31111" stroke-miterlimit="10"/>
<path d="M383.482 311.667C386.42 315.941 387.489 321.016 383.883 322.485C380.277 323.954 375.602 315.941 375.202 312.067" stroke="#0366D6" stroke-width="2.31111" stroke-miterlimit="10"/>
<path d="M385.619 332.902C389.092 330.631 399.642 348.394 395.903 352.935C392.297 357.476 378.674 337.443 385.619 332.902Z" stroke="#0366D6" stroke-width="2.31111" stroke-miterlimit="10"/>
<path d="M364.384 314.872C368.39 317.009 370.661 326.358 374.534 335.039C378.941 344.922 382.414 360.949 404.45 362.818C426.487 364.688 445.452 353.469 449.859 347.593" stroke="#0366D6" stroke-width="2.31111" stroke-miterlimit="10"/>
<path d="M420.21 362.151C415.936 358.945 401.112 354.538 404.317 362.818" stroke="#0366D6" stroke-width="2.31111" stroke-miterlimit="10"/>
<path d="M432.23 234.872C422.48 233.002 403.783 235.941 401.245 239.547C398.707 243.153 403.783 251.834 404.851 253.971" stroke="#0366D6" stroke-width="2.31111" stroke-miterlimit="10"/>
<path d="M406.187 242.084C409.392 242.084 414.066 245.29 414.066 245.29" stroke="#0366D6" stroke-width="2.31111" stroke-miterlimit="10"/>
<path d="M499.008 320.882C502.747 321.283 505.686 322.084 506.754 322.885" stroke="#0366D6" stroke-width="2.31111" stroke-miterlimit="10" stroke-linecap="round"/>
<path d="M492.33 332.101C494.333 333.703 496.07 335.573 497.138 337.309" stroke="#0366D6" stroke-width="2.31111" stroke-miterlimit="10" stroke-linecap="round"/>
<path d="M232.564 284.822C227.089 278.411 218.675 272.669 218.675 272.669L227.089 256.775C227.089 256.775 239.376 264.789 239.376 279.346" fill="#FFDF5D"/>
<path d="M235.088 281.822C237.191 281.431 238.601 279.528 238.237 277.569C237.874 275.611 235.874 274.341 233.771 274.731C231.668 275.121 230.258 277.025 230.621 278.983C230.985 280.941 232.984 282.212 235.088 281.822Z" fill="#FFAB70"/>
<path d="M240.978 278.678C242.047 271.466 242.715 257.176 240.711 253.971L259.008 252.902C259.008 252.902 258.341 267.994 250.728 279.48L240.978 278.678Z" fill="#FFDF5D"/>
<path d="M250.371 275.956C251.279 273.072 250.704 270.32 249.086 269.811C247.468 269.301 245.42 271.226 244.511 274.111C243.603 276.995 244.178 279.747 245.796 280.256C247.414 280.766 249.462 278.841 250.371 275.956Z" fill="#FFAB70"/>
<path d="M70.9623 275.874C69.6267 274.939 68.2911 273.87 66.2878 274.538C64.2845 275.206 56.9389 286.157 61.3463 300.181" stroke="#0366D6" stroke-width="2.31111" stroke-miterlimit="10"/>
<path d="M154.702 274.672C152.03 271.066 146.688 269.196 144.284 270.932C142.014 272.535 139.343 282.284 128.258 289.63C117.306 296.976 98.6083 292.969 91.5298 296.308C84.5849 299.647 79.5099 308.328 83.2494 325.957C86.989 343.586 98.6083 343.987 100.211 347.326C101.814 350.665 98.2076 355.606 98.8754 359.346C99.5432 362.952 106.488 370.03 113.834 369.63" stroke="#0366D6" stroke-width="2.31111" stroke-miterlimit="10"/>
<path d="M144.818 331.967C146.555 333.837 154.702 329.964 153.5 326.758C152.298 323.553 142.949 328.094 144.818 331.967Z" stroke="#0366D6" stroke-width="2.31111" stroke-miterlimit="10"/>
<path d="M166.989 313.937C168.591 307.927 172.331 302.585 176.605 301.65" stroke="#0366D6" stroke-width="2.31111" stroke-miterlimit="10"/>
<path d="M169.927 319.012C172.865 314.738 179.543 314.338 181.279 314.738" stroke="#0366D6" stroke-width="2.31111" stroke-miterlimit="10"/>
<path d="M166.855 313.67C168.458 307.66 172.331 302.718 176.605 301.65" stroke="#0366D6" stroke-width="2.31111" stroke-miterlimit="10" stroke-linecap="round"/>
<path d="M169.927 319.012C172.865 314.738 179.543 314.338 181.279 314.738" stroke="#0366D6" stroke-width="2.31111" stroke-miterlimit="10" stroke-linecap="round"/>
<path d="M124.251 254.905C128.525 250.899 143.616 244.622 148.959 247.56C154.301 250.498 153.9 267.193 151.897 272.535" stroke="#0366D6" stroke-width="2.31111" stroke-miterlimit="10"/>
<path d="M139.61 262.518C140.945 256.909 144.551 252.501 146.288 252.234" stroke="#0366D6" stroke-width="2.31111" stroke-miterlimit="10"/>
<path d="M76.1709 353.737C70.8287 354.671 66.6885 356.808 64.5516 358.411" stroke="#0366D6" stroke-width="2.31111" stroke-miterlimit="10" stroke-linecap="round"/>
<path d="M80.044 359.88C76.9722 361.483 74.1675 364.154 72.9655 367.092" stroke="#0366D6" stroke-width="2.31111" stroke-miterlimit="10" stroke-linecap="round"/>
<path d="M221.88 327.693C213.466 335.707 177.406 349.463 155.102 353.47" stroke="#0366D6" stroke-width="2.31111" stroke-miterlimit="10"/>
<path d="M247.122 327.026C238.174 327.293 223.082 326.091 220.411 306.324C217.74 286.692 236.438 279.613 244.451 278.946C252.464 278.278 264.484 277.61 268.758 296.308C273.032 315.006 268.624 327.159 260.077 336.508C250.594 347.059 216.671 364.288 149.76 362.818" stroke="#0366D6" stroke-width="2.31111" stroke-miterlimit="10"/>
<path d="M221.346 310.999C217.74 314.605 216.404 322.351 219.342 325.957C221.346 328.628 227.356 329.563 232.965 325.69" stroke="#0366D6" stroke-width="2.31111" stroke-miterlimit="10"/>
<path d="M241.913 327.025C236.571 332.635 217.339 345.723 213.065 340.247C210.795 337.309 228.157 329.964 228.691 327.827" stroke="#0366D6" stroke-width="2.31111" stroke-miterlimit="10"/>
<path d="M203.182 345.723C205.186 348.929 195.169 353.603 189.159 355.206C182.882 356.808 170.194 357.877 170.06 355.606C169.793 353.603 180.077 351.199 187.289 349.062C193.566 347.059 201.58 343.319 203.182 345.723Z" stroke="#0366D6" stroke-width="2.31111" stroke-miterlimit="10"/>
<path d="M146.287 360.014C151.229 366.024 171.262 371.633 183.282 373.369C195.302 374.972 200.912 388.194 198.241 394.337C197.306 396.608 192.898 397.943 190.227 402.351C187.556 406.625 183.95 414.638 181.947 425.322C179.943 436.007 181.947 455.372 175.002 454.705C168.057 454.037 168.725 451.366 168.324 448.695" stroke="#0366D6" stroke-width="2.31111" stroke-miterlimit="10"/>
<path d="M179.276 386.725C171.263 388.328 148.291 400.748 150.561 422.384C152.832 444.02 165.92 448.695 171.93 448.695" stroke="#0366D6" stroke-width="2.31111" stroke-miterlimit="10"/>
<path d="M167.924 391.399C161.914 389.396 148.425 378.578 145.753 371.232" stroke="#0366D6" stroke-width="2.31111" stroke-miterlimit="10"/>
<path d="M142.682 366.825C147.623 372.434 155.369 389.796 154.702 404.087" stroke="#0366D6" stroke-width="2.31111" stroke-miterlimit="10"/>
<path d="M161.379 444.154C161.379 453.102 160.445 460.18 159.109 464.187" stroke="#0366D6" stroke-width="2.31111" stroke-miterlimit="10"/>
<path d="M150.027 461.783C155.636 462.718 178.742 469.129 180.077 485.823" stroke="#0366D6" stroke-width="2.31111" stroke-miterlimit="10"/>
<path d="M113.433 369.496C105.82 373.503 87.5231 381.917 79.1091 391.266C71.4964 399.68 68.6917 408.628 74.8353 418.645" stroke="#0366D6" stroke-width="2.31111" stroke-miterlimit="10"/>
<path d="M112.364 384.989C115.97 378.712 119.844 373.77 124.785 370.698" stroke="#0366D6" stroke-width="2.31111" stroke-miterlimit="10"/>
<path d="M132.398 426.792C130.662 435.74 128.792 446.558 125.319 456.574C117.707 478.344 118.374 489.696 119.977 494.371C121.58 499.045 138.408 500.915 149.76 501.983C160.444 502.918 174.334 502.117 181.279 497.442C188.224 492.768 190.227 487.826 186.621 485.823C179.009 481.549 174.468 498.644 164.451 501.583" stroke="#0366D6" stroke-width="2.31111" stroke-miterlimit="10"/>
<path d="M133.333 369.897C136.004 376.575 136.271 388.728 136.004 397.943" stroke="#0366D6" stroke-width="2.31111" stroke-miterlimit="10"/>
<path d="M132.131 428.127C128.525 438.411 120.912 453.503 113.299 465.923C105.553 478.745 94.0673 495.84 90.1942 497.576C78.1742 502.518 55.6033 505.589 44.3847 504.655C37.974 504.12 37.4398 497.843 42.1142 496.241C46.7886 494.638 52.5316 504.12 61.2127 503.853" stroke="#0366D6" stroke-width="2.31111" stroke-miterlimit="10"/>
<path d="M47.0558 496.641C47.0558 489.028 51.0625 474.738 59.0758 468.594C64.8187 464.187 78.3078 460.314 84.5849 462.317" stroke="#0366D6" stroke-width="2.31111" stroke-miterlimit="10"/>
<path d="M84.5849 452.033C82.3144 456.708 77.9071 461.382 77.9071 461.382" stroke="#0366D6" stroke-width="2.31111" stroke-miterlimit="10"/>
<path d="M66.5549 421.716C68.5582 415.706 92.5981 418.377 95.937 418.377C99.2759 418.377 109.293 419.045 112.631 421.049C115.97 423.052 109.293 457.109 109.293 457.109C109.293 457.109 95.937 458.444 92.5981 457.776C89.2593 457.109 64.5515 453.77 62.5482 449.763C60.5449 445.756 66.5549 421.716 66.5549 421.716Z" fill="#FFDF5D"/>
<path d="M101.279 418.778C92.5982 421.049 84.3178 439.746 76.5716 439.079C71.8971 438.678 67.2227 423.72 66.5549 421.716C65.8871 419.713 66.5549 416.374 71.4964 417.042C76.5715 417.71 101.279 418.778 101.279 418.778Z" fill="#FFAB70"/>
<path d="M62.1475 446.825C70.1609 454.838 90.1942 454.571 95.5364 452.568C100.879 450.564 100.612 420.915 100.612 419.045C100.612 419.045 109.96 419.045 112.632 421.049C115.303 423.052 111.964 453.102 109.293 457.109C106.622 461.115 99.276 457.777 92.5982 457.777C85.9204 457.777 63.216 453.102 62.5482 449.763C61.8805 446.424 62.1475 446.825 62.1475 446.825Z" fill="#F9C513"/>
<path d="M111.296 427.059C137.339 401.683 144.017 360.548 144.017 360.548L139.343 362.151C131.997 386.858 108.625 413.035 101.947 421.716L111.296 427.059Z" fill="#FFAB70"/>
<path d="M93.9337 391.399C103.283 385.79 117.974 381.115 126.922 387.793C135.87 394.471 142.682 410.097 136.805 421.182C133.199 427.86 127.857 430.531 124.384 430.531" stroke="#0366D6" stroke-width="2.31111" stroke-miterlimit="10"/>
<path d="M101.68 418.378C110.628 414.772 112.899 423.987 115.436 432.668C117.707 440.281 128.391 436.675 127.857 430.398" stroke="#0366D6" stroke-width="2.31111" stroke-miterlimit="10"/>
<path d="M105.152 432.935C105.964 432.935 106.622 432.277 106.622 431.466C106.622 430.655 105.964 429.997 105.152 429.997C104.341 429.997 103.683 430.655 103.683 431.466C103.683 432.277 104.341 432.935 105.152 432.935Z" fill="#FFAB70"/>
<path d="M78.4187 435.649C78.6112 434.484 78.1183 433.433 77.3178 433.301C76.5173 433.168 75.7123 434.005 75.5199 435.169C75.3274 436.334 75.8203 437.385 76.6208 437.517C77.4213 437.65 78.2262 436.813 78.4187 435.649Z" fill="#FB8532"/>
<path d="M68.8253 269.864C79.9104 258.244 97.1391 251.032 119.576 253.436C131.196 254.638 144.818 264.121 152.431 272.134C163.116 283.219 164.318 311.399 164.318 311.399C164.318 311.399 167.523 313.803 169.927 319.012C172.197 323.954 176.738 333.57 162.982 346.792C152.698 356.808 132.798 370.832 106.488 369.897C80.1776 368.962 68.024 359.479 58.9422 343.586C49.994 328.094 49.1927 309.396 51.196 297.777C50.2611 288.695 54.5349 273.47 59.61 268.127C60.1442 267.593 61.4798 267.326 62.2811 267.326C68.8253 267.86 78.9756 271.867 83.9171 278.945" stroke="#0366D6" stroke-width="2.31111" stroke-miterlimit="10"/>
<path d="M85.9205 353.603C76.3045 352 67.8905 355.874 64.5516 358.278" stroke="#0366D6" stroke-width="2.31111" stroke-miterlimit="10"/>
<path d="M86.5882 358.01C81.6466 358.01 74.9688 362.017 72.9655 366.959" stroke="#0366D6" stroke-width="2.31111" stroke-miterlimit="10"/>
<path d="M122.649 372.568C123.05 376.575 121.713 384.989 121.713 384.989" stroke="#0366D6" stroke-width="2.31111" stroke-miterlimit="10"/>
</g>
<defs>
<filter id="filter0_dddddd_1_6258" x="-20.7632" y="20.3691" width="629.526" height="353.23" filterUnits="userSpaceOnUse" color-interpolation-filters="sRGB">
<feFlood flood-opacity="0" result="BackgroundImageFix"/>
<feColorMatrix in="SourceAlpha" type="matrix" values="0 0 0 0 0 0 0 0 0 0 0 0 0 0 0 0 0 0 127 0" result="hardAlpha"/>
<feOffset dy="96.0454"/>
<feGaussianBlur stdDeviation="44.5925"/>
<feComposite in2="hardAlpha" operator="out"/>
<feColorMatrix type="matrix" values="0 0 0 0 0 0 0 0 0 0 0 0 0 0 0 0 0 0 0.09 0"/>
<feBlend mode="normal" in2="BackgroundImageFix" result="effect1_dropShadow_1_6258"/>
<feColorMatrix in="SourceAlpha" type="matrix" values="0 0 0 0 0 0 0 0 0 0 0 0 0 0 0 0 0 0 127 0" result="hardAlpha"/>
<feOffset dy="41.1623"/>
<feGaussianBlur stdDeviation="20.5812"/>
<feComposite in2="hardAlpha" operator="out"/>
<feColorMatrix type="matrix" values="0 0 0 0 0 0 0 0 0 0 0 0 0 0 0 0 0 0 0.07 0"/>
<feBlend mode="normal" in2="effect1_dropShadow_1_6258" result="effect2_dropShadow_1_6258"/>
<feColorMatrix in="SourceAlpha" type="matrix" values="0 0 0 0 0 0 0 0 0 0 0 0 0 0 0 0 0 0 127 0" result="hardAlpha"/>
<feOffset dy="20.5812"/>
<feGaussianBlur stdDeviation="10.2906"/>
<feComposite in2="hardAlpha" operator="out"/>
<feColorMatrix type="matrix" values="0 0 0 0 0 0 0 0 0 0 0 0 0 0 0 0 0 0 0.06 0"/>
<feBlend mode="normal" in2="effect2_dropShadow_1_6258" result="effect3_dropShadow_1_6258"/>
<feColorMatrix in="SourceAlpha" type="matrix" values="0 0 0 0 0 0 0 0 0 0 0 0 0 0 0 0 0 0 127 0" result="hardAlpha"/>
<feOffset dy="13.7208"/>
<feGaussianBlur stdDeviation="5.4883"/>
<feComposite in2="hardAlpha" operator="out"/>
<feColorMatrix type="matrix" values="0 0 0 0 0 0 0 0 0 0 0 0 0 0 0 0 0 0 0.05 0"/>
<feBlend mode="normal" in2="effect3_dropShadow_1_6258" result="effect4_dropShadow_1_6258"/>
<feColorMatrix in="SourceAlpha" type="matrix" values="0 0 0 0 0 0 0 0 0 0 0 0 0 0 0 0 0 0 127 0" result="hardAlpha"/>
<feOffset dy="5.48831"/>
<feGaussianBlur stdDeviation="2.74415"/>
<feComposite in2="hardAlpha" operator="out"/>
<feColorMatrix type="matrix" values="0 0 0 0 0 0 0 0 0 0 0 0 0 0 0 0 0 0 0.04 0"/>
<feBlend mode="normal" in2="effect4_dropShadow_1_6258" result="effect5_dropShadow_1_6258"/>
<feColorMatrix in="SourceAlpha" type="matrix" values="0 0 0 0 0 0 0 0 0 0 0 0 0 0 0 0 0 0 127 0" result="hardAlpha"/>
<feOffset dy="2.74416"/>
<feGaussianBlur stdDeviation="1.37208"/>
<feComposite in2="hardAlpha" operator="out"/>
<feColorMatrix type="matrix" values="0 0 0 0 0 0 0 0 0 0 0 0 0 0 0 0 0 0 0.027 0"/>
<feBlend mode="normal" in2="effect5_dropShadow_1_6258" result="effect6_dropShadow_1_6258"/>
<feBlend mode="normal" in="SourceGraphic" in2="effect6_dropShadow_1_6258" result="shape"/>
</filter>
<clipPath id="clip0_1_6258">
<rect x="0.416443" width="587.167" height="533" rx="12" fill="white"/>
</clipPath>
</defs>
</svg>
