<svg width="385" height="390" viewBox="0 0 385 390" fill="none" xmlns="http://www.w3.org/2000/svg">
<g clip-path="url(#clip0_1_8032)">
<rect x="0.5" width="384" height="390" rx="12" fill="#F3F5F7"/>
<g clip-path="url(#clip1_1_8032)">
<g clip-path="url(#clip2_1_8032)">
<path d="M87.5 69.5C87.5 62.8726 92.8726 57.5 99.5 57.5H388.5V390.5H87.5V69.5Z" fill="white"/>
<rect x="209.333" y="146.833" width="179.167" height="8.95833" rx="4.47917" fill="#C3D4E9"/>
<rect x="209.333" y="177.292" width="179.167" height="8.95833" rx="4.47917" fill="#C3D4E9"/>
<rect x="209.333" y="207.75" width="179.167" height="8.95833" rx="4.47917" fill="#C3D4E9"/>
<path d="M166 263.083C156.128 263.083 148.083 271.128 148.083 281C148.083 290.872 156.128 298.917 166 298.917C175.872 298.917 183.917 290.872 183.917 281C183.917 271.128 175.872 263.083 166 263.083ZM174.564 276.879L164.405 287.038C164.155 287.289 163.814 287.432 163.456 287.432C163.097 287.432 162.757 287.289 162.506 287.038L157.436 281.967C156.916 281.448 156.916 280.588 157.436 280.068C157.955 279.549 158.815 279.549 159.335 280.068L163.456 284.189L172.665 274.98C173.185 274.46 174.045 274.46 174.564 274.98C175.084 275.5 175.084 276.342 174.564 276.879Z" fill="#9CD323"/>
<rect x="209.333" y="259.708" width="179.167" height="8.95833" rx="4.47917" fill="#C3D4E9"/>
<rect x="209.333" y="290.167" width="179.167" height="8.95833" rx="4.47917" fill="#C3D4E9"/>
<rect x="209.333" y="320.625" width="179.167" height="8.95833" rx="4.47917" fill="#C3D4E9"/>
<path d="M154.848 154.774C155.772 156.688 157.191 158.298 158.945 159.423C160.7 160.547 162.722 161.143 164.784 161.143H168.387C168.85 159.784 169.76 158.638 170.958 157.908C172.155 157.179 173.563 156.912 174.931 157.156C176.3 157.4 177.541 158.138 178.436 159.24C179.331 160.342 179.822 161.737 179.822 163.179C179.822 164.62 179.331 166.015 178.436 167.117C177.541 168.219 176.3 168.958 174.931 169.201C173.563 169.445 172.155 169.178 170.958 168.449C169.76 167.719 168.85 166.574 168.387 165.215H164.784C162.692 165.217 160.622 164.765 158.708 163.888C156.795 163.01 155.079 161.727 153.672 160.119V169.634C154.98 170.114 156.083 171.059 156.785 172.302C157.487 173.545 157.744 175.005 157.509 176.425C157.274 177.845 156.564 179.133 155.502 180.062C154.441 180.991 153.098 181.5 151.711 181.5C150.323 181.5 148.98 180.991 147.919 180.062C146.858 179.133 146.147 177.845 145.912 176.425C145.678 175.005 145.934 173.545 146.636 172.302C147.338 171.059 148.441 170.114 149.75 169.634V155.366C148.494 154.905 147.427 154.016 146.721 152.844C146.016 151.671 145.714 150.285 145.866 148.911C146.018 147.538 146.614 146.259 147.557 145.283C148.5 144.307 149.734 143.691 151.057 143.538C152.38 143.384 153.715 143.701 154.842 144.437C155.969 145.173 156.823 146.284 157.263 147.589C157.703 148.893 157.704 150.314 157.265 151.62C156.827 152.925 155.975 154.037 154.848 154.774ZM151.711 177.43C152.231 177.43 152.729 177.216 153.097 176.834C153.465 176.452 153.672 175.934 153.672 175.394C153.672 174.854 153.465 174.336 153.097 173.954C152.729 173.573 152.231 173.358 151.711 173.358C151.19 173.358 150.692 173.573 150.324 173.954C149.956 174.336 149.75 174.854 149.75 175.394C149.75 175.934 149.956 176.452 150.324 176.834C150.692 177.216 151.19 177.43 151.711 177.43ZM173.935 165.215C174.455 165.215 174.954 165 175.322 164.618C175.69 164.236 175.896 163.719 175.896 163.179C175.896 162.639 175.69 162.121 175.322 161.739C174.954 161.357 174.455 161.143 173.935 161.143C173.415 161.143 172.916 161.357 172.549 161.739C172.181 162.121 171.974 162.639 171.974 163.179C171.974 163.719 172.181 164.236 172.549 164.618C172.916 165 173.415 165.215 173.935 165.215ZM153.672 149.606C153.67 149.067 153.462 148.55 153.094 148.169C152.725 147.789 152.227 147.576 151.707 147.577C151.188 147.578 150.69 147.793 150.323 148.174C149.956 148.556 149.75 149.073 149.75 149.613C149.75 150.152 149.956 150.669 150.323 151.051C150.69 151.433 151.188 151.648 151.707 151.649C152.227 151.649 152.725 151.436 153.094 151.056C153.462 150.675 153.67 150.159 153.672 149.619V149.606Z" fill="#A371F7"/>
</g>
</g>
</g>
<defs>
<clipPath id="clip0_1_8032">
<rect x="0.5" width="384" height="390" rx="12" fill="white"/>
</clipPath>
<clipPath id="clip1_1_8032">
<rect width="393" height="446" fill="white" transform="translate(0.5)"/>
</clipPath>
<clipPath id="clip2_1_8032">
<rect x="55.5" y="57.5" width="338" height="331" rx="16" fill="white"/>
</clipPath>
</defs>
</svg>
