<svg width="385" height="386" viewBox="0 0 385 386" fill="none" xmlns="http://www.w3.org/2000/svg">
<g clip-path="url(#clip0_1_7955)">
<rect x="0.5" width="384" height="386" rx="12" fill="#F3F5F7"/>
<g clip-path="url(#clip1_1_7955)">
<path d="M4.2 60H336.8C339.4 60 341.5 64.5 341.5 70V376C341.5 381.5 339.4 386 336.8 386H4.2C1.6 386 -0.5 381.5 -0.5 376V70C-0.5 64.5 1.6 60 4.2 60Z" fill="white"/>
<path d="M65.6 161.1C65 161.1 64.5 161 64 160.8C63.5 160.6 63.1 160.3 62.8 159.9C62.5 159.5 62.2 159.1 62 158.6L63.4 158C63.6 158.5 63.9 158.9 64.3 159.2C64.7 159.5 65.2 159.6 65.7 159.6C66 159.6 66.2 159.6 66.4 159.5C66.6 159.4 66.8 159.3 66.9 159.1C67 158.9 67.1 158.7 67.1 158.5C67.1 158.2 67 158 66.9 157.9C66.7 157.7 66.5 157.6 66.2 157.5L64.4 157C63.7 156.8 63.2 156.5 62.8 156C62.4 155.6 62.3 155.1 62.3 154.5C62.3 154 62.4 153.5 62.7 153.1C63 152.7 63.3 152.4 63.8 152.2C64.3 152 64.8 151.9 65.4 151.9C65.9 151.9 66.4 152 66.9 152.2C67.3 152.4 67.7 152.6 68.1 153C68.4 153.3 68.7 153.7 68.8 154.2L67.5 154.8C67.3 154.4 67.1 154 66.7 153.8C66.3 153.6 65.9 153.4 65.5 153.4C65.2 153.4 65 153.4 64.8 153.5C64.6 153.6 64.4 153.7 64.3 153.9C64.2 154.1 64.1 154.3 64.1 154.5C64.1 154.7 64.2 155 64.3 155.2C64.5 155.4 64.7 155.5 65 155.6L66.6 156.1C67.3 156.3 67.8 156.7 68.2 157.1C68.6 157.5 68.7 158 68.7 158.6C68.7 159.1 68.6 159.6 68.3 160C68 160.4 67.7 160.7 67.2 160.9C66.7 161 66.2 161.1 65.6 161.1ZM72.7 161.1C72 161.1 71.4 160.9 71 160.5C70.6 160.1 70.4 159.5 70.4 158.8V155.9H69.3V154.5H69.4C69.7 154.5 70 154.4 70.1 154.2C70.2 154 70.4 153.8 70.4 153.5V153H72V154.5H73.5V155.9H72V158.7C72 158.9 72 159.1 72.1 159.3C72.2 159.5 72.3 159.6 72.5 159.6C72.7 159.7 72.9 159.7 73.1 159.7C73.2 159.7 73.2 159.7 73.3 159.7C73.4 159.7 73.5 159.7 73.5 159.7V161C73.4 161 73.3 161 73.1 161C73 161.1 72.9 161.1 72.7 161.1ZM77.6 161.1C77 161.1 76.4 161 75.8 160.7C75.3 160.4 74.9 160 74.6 159.5C74.3 159 74.1 158.4 74.1 157.7C74.1 157 74.3 156.5 74.6 155.9C74.9 155.4 75.3 155 75.8 154.7C76.3 154.4 76.9 154.3 77.6 154.3C78.2 154.3 78.8 154.4 79.3 154.7C79.8 155 80.2 155.4 80.5 155.9C80.8 156.4 81 157 81 157.7C81 158.4 80.8 158.9 80.5 159.5C80.2 160 79.8 160.4 79.3 160.7C78.8 161 78.2 161.1 77.6 161.1ZM77.6 159.7C78 159.7 78.3 159.6 78.5 159.4C78.8 159.2 79 159 79.1 158.7C79.3 158.4 79.3 158.1 79.3 157.7C79.3 157.3 79.2 157 79.1 156.7C78.9 156.4 78.7 156.2 78.5 156C78.2 155.8 77.9 155.7 77.6 155.7C77.2 155.7 76.9 155.8 76.7 156C76.4 156.2 76.2 156.4 76.1 156.7C75.9 157 75.9 157.3 75.9 157.7C75.9 158.1 76 158.4 76.1 158.7C76.3 159 76.5 159.2 76.7 159.4C76.9 159.6 77.3 159.7 77.6 159.7ZM82 161V154.5H83.5V156L83.4 155.8C83.6 155.3 83.8 155 84.1 154.8C84.4 154.6 84.8 154.5 85.3 154.5H85.7V155.9H85.1C84.7 155.9 84.3 156 84 156.3C83.7 156.6 83.6 157 83.6 157.5V161.1H82V161ZM87 163.7C86.8 163.7 86.7 163.7 86.5 163.7C86.3 163.7 86.2 163.6 86 163.6V162.3C86.1 162.3 86.2 162.3 86.4 162.4C86.6 162.4 86.7 162.4 86.8 162.4C87.2 162.4 87.4 162.3 87.6 162.1C87.8 161.9 87.9 161.7 88 161.4L88.4 160.4V161.7L85.6 154.5H87.3L89.3 159.8H88.7L90.7 154.5H92.4L89.6 161.7C89.4 162.1 89.2 162.5 89 162.8C88.8 163.1 88.5 163.3 88.2 163.5C87.8 163.6 87.5 163.7 87 163.7ZM95.1 161V152.1H98.4C99 152.1 99.5 152.2 100 152.4C100.5 152.6 100.8 152.9 101.1 153.4C101.4 153.8 101.5 154.3 101.5 154.9C101.5 155.5 101.4 156 101.1 156.4C100.8 156.8 100.5 157.1 100 157.4C99.5 157.6 99 157.7 98.4 157.7H96.7V161H95.1ZM96.7 156.3H98.4C98.7 156.3 99 156.2 99.2 156.1C99.4 156 99.6 155.8 99.7 155.6C99.8 155.4 99.9 155.2 99.9 154.9C99.9 154.6 99.8 154.4 99.7 154.2C99.6 154 99.4 153.8 99.2 153.7C99 153.6 98.7 153.5 98.4 153.5H96.7V156.3ZM105.4 161.1C104.8 161.1 104.2 161 103.6 160.7C103.1 160.4 102.7 160 102.4 159.5C102.1 159 101.9 158.4 101.9 157.7C101.9 157 102.1 156.5 102.4 155.9C102.7 155.4 103.1 155 103.6 154.7C104.1 154.4 104.7 154.3 105.4 154.3C106 154.3 106.6 154.4 107.1 154.7C107.6 155 108 155.4 108.3 155.9C108.6 156.4 108.8 157 108.8 157.7C108.8 158.4 108.6 158.9 108.3 159.5C108 160 107.6 160.4 107.1 160.7C106.6 161 106.1 161.1 105.4 161.1ZM105.4 159.7C105.8 159.7 106.1 159.6 106.3 159.4C106.6 159.2 106.8 159 106.9 158.7C107.1 158.4 107.1 158.1 107.1 157.7C107.1 157.3 107 157 106.9 156.7C106.7 156.4 106.5 156.2 106.3 156C106 155.8 105.7 155.7 105.4 155.7C105 155.7 104.7 155.8 104.5 156C104.2 156.2 104 156.4 103.9 156.7C103.7 157 103.7 157.3 103.7 157.7C103.7 158.1 103.8 158.4 103.9 158.7C104.1 159 104.3 159.2 104.5 159.4C104.8 159.6 105.1 159.7 105.4 159.7ZM109.8 161V154.5H111.4V161H109.8ZM109.8 153.7V152H111.4V153.7H109.8ZM112.6 161V154.5H114.1V155.8L114 155.6C114.2 155.2 114.4 154.9 114.7 154.7C115.1 154.5 115.5 154.4 115.9 154.4C116.4 154.4 116.8 154.5 117.2 154.7C117.6 154.9 117.9 155.2 118.1 155.6C118.3 156 118.4 156.4 118.4 156.9V161.1H116.8V157.3C116.8 157 116.7 156.8 116.6 156.6C116.5 156.4 116.3 156.2 116.1 156.1C115.9 156 115.7 155.9 115.4 155.9C115.1 155.9 114.9 156 114.7 156.1C114.5 156.2 114.3 156.4 114.2 156.6C114.1 156.8 114 157.1 114 157.3V161.1H112.6V161ZM122.5 161.1C121.8 161.1 121.2 160.9 120.8 160.5C120.4 160.1 120.2 159.5 120.2 158.8V155.9H119.1V154.5H119.2C119.5 154.5 119.8 154.4 119.9 154.2C120 154 120.2 153.8 120.2 153.5V153H121.8V154.5H123.3V155.9H121.8V158.7C121.8 158.9 121.8 159.1 121.9 159.3C122 159.5 122.1 159.6 122.3 159.6C122.5 159.7 122.7 159.7 122.9 159.7C123 159.7 123 159.7 123.1 159.7C123.2 159.7 123.3 159.7 123.3 159.7V161C123.2 161 123.1 161 122.9 161C122.7 161.1 122.6 161.1 122.5 161.1ZM126.7 161.1C126 161.1 125.4 160.9 124.9 160.6C124.4 160.3 124 159.8 123.8 159.2L125 158.6C125.2 159 125.4 159.3 125.7 159.5C126 159.7 126.3 159.8 126.7 159.8C127 159.8 127.2 159.7 127.4 159.6C127.6 159.5 127.7 159.3 127.7 159.1C127.7 159 127.7 158.9 127.6 158.8C127.5 158.7 127.4 158.6 127.3 158.6C127.2 158.5 127.1 158.5 126.9 158.4L125.8 158.1C125.2 157.9 124.8 157.7 124.5 157.4C124.2 157.1 124.1 156.7 124.1 156.2C124.1 155.8 124.2 155.5 124.4 155.2C124.6 154.9 124.9 154.7 125.3 154.5C125.7 154.3 126.1 154.2 126.6 154.2C127.2 154.2 127.8 154.3 128.2 154.6C128.7 154.9 129 155.3 129.2 155.8L128 156.4C127.9 156.1 127.7 155.9 127.4 155.7C127.1 155.5 126.8 155.4 126.5 155.4C126.2 155.4 126 155.5 125.9 155.6C125.8 155.7 125.7 155.9 125.7 156.1C125.7 156.2 125.7 156.3 125.8 156.4C125.9 156.5 126 156.6 126.1 156.6C126.2 156.7 126.4 156.7 126.5 156.8L127.5 157.1C128 157.3 128.4 157.5 128.7 157.8C129 158.1 129.1 158.5 129.1 159C129.1 159.4 129 159.7 128.8 160C128.6 160.3 128.3 160.5 127.9 160.7C127.6 161.1 127.2 161.1 126.7 161.1Z" fill="#90A3BF"/>
<path d="M212.6 161.1C212 161.1 211.5 161 211 160.8C210.5 160.6 210.1 160.3 209.8 159.9C209.5 159.5 209.2 159.1 209 158.6L210.4 158C210.6 158.5 210.9 158.9 211.3 159.2C211.7 159.5 212.2 159.6 212.7 159.6C213 159.6 213.2 159.6 213.4 159.5C213.6 159.4 213.8 159.3 213.9 159.1C214 158.9 214.1 158.7 214.1 158.5C214.1 158.2 214 158 213.9 157.9C213.7 157.7 213.5 157.6 213.2 157.5L211.5 156.9C210.8 156.7 210.3 156.4 209.9 155.9C209.5 155.4 209.4 155 209.4 154.4C209.4 153.9 209.5 153.4 209.8 153C210.1 152.6 210.4 152.3 210.9 152.1C211.4 151.9 211.9 151.8 212.5 151.8C213 151.8 213.5 151.9 214 152.1C214.4 152.3 214.8 152.5 215.2 152.9C215.5 153.2 215.8 153.6 215.9 154.1L214.6 154.7C214.4 154.3 214.2 153.9 213.8 153.7C213.4 153.5 213 153.3 212.6 153.3C212.3 153.3 212.1 153.3 211.9 153.4C211.7 153.5 211.5 153.6 211.4 153.8C211.3 154 211.2 154.2 211.2 154.4C211.2 154.6 211.3 154.9 211.4 155.1C211.6 155.3 211.8 155.4 212.1 155.5L213.7 156C214.4 156.2 214.9 156.6 215.3 157C215.7 157.4 215.8 157.9 215.8 158.5C215.8 159 215.7 159.5 215.4 159.9C215.1 160.3 214.8 160.6 214.3 160.8C213.7 161 213.2 161.1 212.6 161.1ZM219.7 161.1C219 161.1 218.4 160.9 218 160.5C217.6 160.1 217.4 159.5 217.4 158.8V155.9H216.3V154.5H216.4C216.7 154.5 217 154.4 217.1 154.2C217.3 154 217.4 153.8 217.4 153.5V153H219V154.5H220.5V155.9H219V158.7C219 158.9 219 159.1 219.1 159.3C219.2 159.5 219.3 159.6 219.5 159.6C219.7 159.7 219.9 159.7 220.1 159.7C220.2 159.7 220.2 159.7 220.3 159.7C220.4 159.7 220.5 159.7 220.5 159.7V161C220.4 161 220.3 161 220.1 161C220 161.1 219.9 161.1 219.7 161.1ZM223.4 161.1C222.9 161.1 222.5 161 222.2 160.9C221.9 160.8 221.6 160.5 221.4 160.3C221.2 160 221.1 159.7 221.1 159.3C221.1 158.9 221.2 158.6 221.3 158.3C221.5 158 221.7 157.8 222 157.6C222.3 157.4 222.8 157.3 223.3 157.2L225.4 156.9V158L223.6 158.3C223.3 158.4 223.1 158.5 222.9 158.6C222.7 158.7 222.7 158.9 222.7 159.2C222.7 159.4 222.8 159.6 223 159.7C223.2 159.8 223.4 159.9 223.6 159.9C223.9 159.9 224.2 159.8 224.5 159.7C224.8 159.6 225 159.4 225.1 159.1C225.2 158.9 225.3 158.6 225.3 158.3V156.6C225.3 156.3 225.2 156.1 225 155.9C224.8 155.7 224.5 155.6 224.1 155.6C223.8 155.6 223.5 155.7 223.2 155.9C222.9 156.1 222.8 156.3 222.6 156.6L221.3 156C221.4 155.7 221.6 155.4 221.9 155.1C222.2 154.8 222.5 154.6 222.9 154.5C223.3 154.4 223.7 154.3 224.1 154.3C224.6 154.3 225.1 154.4 225.5 154.6C225.9 154.8 226.2 155.1 226.4 155.4C226.6 155.7 226.7 156.1 226.7 156.6V160.9H225.5V159.8H225.8C225.6 160.1 225.4 160.3 225.2 160.5C225 160.7 224.7 160.8 224.4 160.9C224.1 161.1 223.8 161.1 223.4 161.1ZM231 161.1C230.3 161.1 229.7 160.9 229.3 160.5C228.9 160.1 228.7 159.5 228.7 158.8V155.9H227.6V154.5H227.7C228 154.5 228.3 154.4 228.4 154.2C228.5 154 228.7 153.8 228.7 153.5V153H230.3V154.5H231.8V155.9H230.3V158.7C230.3 158.9 230.3 159.1 230.4 159.3C230.5 159.5 230.6 159.6 230.8 159.6C231 159.7 231.2 159.7 231.4 159.7C231.5 159.7 231.5 159.7 231.6 159.7C231.7 159.7 231.8 159.7 231.8 159.7V161C231.7 161 231.6 161 231.4 161C231.3 161.1 231.2 161.1 231 161.1ZM235.1 161.1C234.6 161.1 234.2 161 233.8 160.8C233.4 160.6 233.1 160.3 232.9 159.9C232.7 159.5 232.6 159 232.6 158.5V154.5H234.2V158.4C234.2 158.7 234.3 158.9 234.4 159.1C234.5 159.3 234.7 159.5 234.9 159.6C235.1 159.7 235.3 159.8 235.6 159.8C235.9 159.8 236.1 159.7 236.3 159.6C236.5 159.5 236.7 159.3 236.8 159.1C236.9 158.9 237 158.6 237 158.4V154.6H238.6V161.1H237.1V159.8L237.2 160C237 160.4 236.8 160.7 236.4 160.9C236 161 235.6 161.1 235.1 161.1ZM242.1 161.1C241.4 161.1 240.8 160.9 240.3 160.6C239.8 160.3 239.4 159.8 239.2 159.2L240.4 158.6C240.6 159 240.8 159.3 241.1 159.5C241.4 159.7 241.7 159.8 242.1 159.8C242.4 159.8 242.6 159.7 242.8 159.6C243 159.5 243.1 159.3 243.1 159.1C243.1 159 243.1 158.9 243 158.8C242.9 158.7 242.8 158.6 242.7 158.6C242.6 158.5 242.5 158.5 242.3 158.4L241.2 158.1C240.6 157.9 240.2 157.7 239.9 157.4C239.6 157.1 239.5 156.7 239.5 156.2C239.5 155.8 239.6 155.5 239.8 155.2C240 154.9 240.3 154.7 240.7 154.5C241.1 154.3 241.5 154.2 242 154.2C242.6 154.2 243.2 154.3 243.6 154.6C244.1 154.9 244.4 155.3 244.6 155.8L243.4 156.4C243.3 156.1 243.1 155.9 242.8 155.7C242.5 155.5 242.2 155.4 241.9 155.4C241.6 155.4 241.4 155.5 241.3 155.6C241.1 155.7 241.1 155.9 241.1 156.1C241.1 156.2 241.1 156.3 241.2 156.4C241.3 156.5 241.4 156.6 241.5 156.6C241.6 156.7 241.8 156.7 241.9 156.8L242.9 157.1C243.4 157.3 243.8 157.5 244.1 157.8C244.4 158.1 244.5 158.5 244.5 159C244.5 159.4 244.4 159.7 244.2 160C244 160.3 243.7 160.5 243.3 160.7C242.9 160.9 242.6 161.1 242.1 161.1Z" fill="#90A3BF"/>
<path d="M62.1 220V218.6L64.9 215.6C65.5 215 65.9 214.5 66.2 214.2C66.5 213.8 66.7 213.5 66.8 213.3C66.9 213.1 67 212.8 67 212.5C67 212.1 66.9 211.7 66.6 211.5C66.3 211.2 66 211.1 65.5 211.1C65.1 211.1 64.7 211.2 64.3 211.5C64 211.8 63.7 212.1 63.6 212.6L61.9 212.1C62 211.5 62.2 211.1 62.6 210.7C62.9 210.3 63.4 210 63.9 209.8C64.4 209.6 64.9 209.5 65.5 209.5C66.2 209.5 66.8 209.6 67.3 209.9C67.8 210.1 68.2 210.5 68.5 210.9C68.8 211.3 68.9 211.9 68.9 212.4C68.9 212.8 68.8 213.1 68.7 213.5C68.6 213.9 68.4 214.2 68.1 214.6C67.8 215 67.5 215.4 67 215.9L64.6 218.5H69.1V220.1H62.1V220Z" fill="#1A202C"/>
<path d="M212.5 211C216.9 211 220.5 214.6 220.5 219C220.5 223.4 216.9 227 212.5 227C208.1 227 204.5 223.4 204.5 219C204.5 214.6 208.1 211 212.5 211Z" fill="#BCE455" fill-opacity="0.3"/>
<path d="M212.5 223C214.709 223 216.5 221.209 216.5 219C216.5 216.791 214.709 215 212.5 215C210.291 215 208.5 216.791 208.5 219C208.5 221.209 210.291 223 212.5 223Z" fill="#7FB519"/>
<path d="M233.6 224.1C233 224.1 232.4 224 231.8 223.8C231.3 223.6 230.8 223.2 230.4 222.8C230 222.4 229.7 221.9 229.5 221.3C229.3 220.7 229.2 220.1 229.2 219.5C229.2 218.9 229.3 218.2 229.5 217.7C229.7 217.1 230 216.6 230.4 216.2C230.8 215.8 231.3 215.5 231.8 215.2C232.3 215 232.9 214.9 233.6 214.9C234.3 214.9 234.8 215 235.3 215.2C235.8 215.4 236.2 215.7 236.6 216.1C237 216.5 237.2 216.8 237.4 217.3L235.9 218C235.7 217.6 235.4 217.2 235 216.9C234.6 216.6 234.1 216.5 233.5 216.5C232.9 216.5 232.4 216.6 232 216.9C231.6 217.2 231.2 217.5 231 218C230.8 218.5 230.7 219 230.7 219.6C230.7 220.2 230.8 220.8 231 221.2C231.2 221.7 231.6 222 232 222.3C232.4 222.6 232.9 222.7 233.5 222.7C234.1 222.7 234.6 222.6 235 222.3C235.4 222 235.7 221.6 235.9 221.2L237.4 221.9C237.2 222.3 237 222.7 236.6 223.1C236.2 223.5 235.8 223.7 235.3 224C234.8 224 234.2 224.1 233.6 224.1ZM241.4 224.1C240.8 224.1 240.2 224 239.6 223.7C239.1 223.4 238.7 223 238.4 222.5C238.1 222 237.9 221.4 237.9 220.7C237.9 220 238.1 219.5 238.4 218.9C238.7 218.4 239.1 218 239.6 217.7C240.1 217.4 240.7 217.3 241.4 217.3C242 217.3 242.6 217.4 243.1 217.7C243.6 218 244 218.4 244.3 218.9C244.6 219.4 244.8 220 244.8 220.7C244.8 221.4 244.6 221.9 244.3 222.5C244 223 243.6 223.4 243.1 223.7C242.6 224 242 224.1 241.4 224.1ZM241.4 222.7C241.8 222.7 242.1 222.6 242.3 222.4C242.6 222.2 242.8 222 242.9 221.7C243.1 221.4 243.1 221.1 243.1 220.7C243.1 220.3 243 220 242.9 219.7C242.7 219.4 242.5 219.2 242.3 219C242 218.8 241.7 218.7 241.4 218.7C241 218.7 240.7 218.8 240.5 219C240.2 219.2 240 219.4 239.9 219.7C239.7 220 239.7 220.3 239.7 220.7C239.7 221.1 239.8 221.4 239.9 221.7C240.1 222 240.3 222.2 240.5 222.4C240.7 222.6 241 222.7 241.4 222.7ZM245.8 224V217.5H247.3V219L247.1 218.7C247.2 218.2 247.5 217.9 247.8 217.6C248.2 217.4 248.6 217.3 249.1 217.3C249.6 217.3 250.1 217.4 250.5 217.7C250.9 218 251.2 218.3 251.3 218.8H250.9C251.1 218.3 251.4 217.9 251.8 217.6C252.2 217.3 252.7 217.2 253.2 217.2C253.7 217.2 254.1 217.3 254.4 217.5C254.8 217.7 255.1 218 255.3 218.4C255.5 218.8 255.6 219.2 255.6 219.7V223.9H254V220.1C254 219.8 253.9 219.6 253.8 219.4C253.7 219.2 253.6 219 253.4 218.9C253.2 218.8 253 218.7 252.7 218.7C252.5 218.7 252.2 218.8 252 218.9C251.8 219 251.7 219.2 251.6 219.4C251.5 219.6 251.4 219.9 251.4 220.1V223.9H249.8V220.1C249.8 219.8 249.7 219.6 249.6 219.4C249.5 219.2 249.3 219 249.2 218.9C249 218.8 248.8 218.7 248.5 218.7C248.3 218.7 248 218.8 247.8 218.9C247.6 219 247.5 219.2 247.4 219.4C247.3 219.6 247.2 219.9 247.2 220.1V223.9H245.8V224ZM256.6 226.4V217.5H258.1V218.8L258 218.5C258.2 218.1 258.5 217.9 258.9 217.7C259.3 217.5 259.7 217.4 260.2 217.4C260.8 217.4 261.4 217.6 261.9 217.9C262.4 218.2 262.8 218.6 263.1 219.1C263.4 219.6 263.5 220.2 263.5 220.8C263.5 221.4 263.4 222 263.1 222.5C262.8 223 262.4 223.4 261.9 223.7C261.4 224 260.8 224.1 260.2 224.1C259.7 224.1 259.3 224 258.9 223.8C258.5 223.6 258.2 223.3 258 223L258.3 222.7V226.4H256.6ZM260 222.7C260.4 222.7 260.7 222.6 261 222.4C261.3 222.2 261.5 222 261.6 221.7C261.8 221.4 261.8 221.1 261.8 220.7C261.8 220.3 261.7 220 261.6 219.7C261.4 219.4 261.2 219.2 261 219C260.7 218.8 260.4 218.7 260 218.7C259.7 218.7 259.3 218.8 259.1 219C258.8 219.2 258.6 219.4 258.5 219.7C258.3 220 258.3 220.3 258.3 220.7C258.3 221.1 258.4 221.4 258.5 221.7C258.7 222 258.9 222.2 259.1 222.4C259.3 222.6 259.6 222.7 260 222.7ZM264.4 224V214.9H266V224H264.4ZM270.3 224.1C269.6 224.1 269 223.9 268.5 223.6C268 223.3 267.6 222.9 267.3 222.4C267 221.9 266.9 221.3 266.9 220.7C266.9 220 267 219.5 267.3 219C267.6 218.5 268 218.1 268.5 217.8C269 217.5 269.5 217.4 270.2 217.4C270.7 217.4 271.2 217.5 271.5 217.7C271.9 217.9 272.2 218.1 272.5 218.4C272.8 218.7 273 219 273.1 219.4C273.2 219.8 273.3 220.2 273.3 220.6C273.3 220.7 273.3 220.8 273.3 220.9C273.3 221 273.3 221.1 273.2 221.2H268.2V220H272.4L271.7 220.6C271.8 220.2 271.8 219.9 271.6 219.6C271.5 219.3 271.3 219.1 271.1 218.9C270.9 218.7 270.6 218.6 270.2 218.6C269.9 218.6 269.6 218.7 269.3 218.9C269 219.1 268.8 219.3 268.7 219.6C268.6 219.9 268.5 220.3 268.6 220.7C268.6 221.1 268.6 221.5 268.8 221.8C268.9 222.1 269.2 222.3 269.4 222.5C269.7 222.7 270 222.8 270.4 222.8C270.8 222.8 271.1 222.7 271.3 222.6C271.6 222.4 271.8 222.2 271.9 222L273.2 222.6C273.1 222.9 272.9 223.2 272.6 223.4C272.3 223.6 272 223.8 271.6 224C271.2 224.1 270.8 224.1 270.3 224.1ZM277.3 224.1C276.6 224.1 276 223.9 275.6 223.5C275.2 223.1 275 222.5 275 221.8V218.9H273.9V217.5H274C274.3 217.5 274.6 217.4 274.7 217.2C274.8 217 275 216.8 275 216.5V216H276.6V217.5H278.1V218.9H276.5V221.7C276.5 221.9 276.5 222.1 276.6 222.3C276.7 222.5 276.8 222.6 277 222.6C277.2 222.7 277.4 222.7 277.6 222.7C277.7 222.7 277.7 222.7 277.8 222.7C277.9 222.7 278 222.7 278 222.7V224C277.9 224 277.8 224 277.6 224C277.5 224.1 277.4 224.1 277.3 224.1ZM282.1 224.1C281.4 224.1 280.8 223.9 280.3 223.6C279.8 223.3 279.4 222.9 279.1 222.4C278.8 221.9 278.7 221.3 278.7 220.7C278.7 220 278.8 219.5 279.1 219C279.4 218.5 279.8 218.1 280.3 217.8C280.8 217.5 281.3 217.4 282 217.4C282.5 217.4 283 217.5 283.3 217.7C283.7 217.9 284 218.1 284.3 218.4C284.6 218.7 284.8 219 284.9 219.4C285 219.8 285.1 220.2 285.1 220.6C285.1 220.7 285.1 220.8 285.1 220.9C285.1 221 285.1 221.1 285 221.2H280V220H284.2L283.5 220.6C283.6 220.2 283.6 219.9 283.4 219.6C283.3 219.3 283.1 219.1 282.9 218.9C282.7 218.7 282.4 218.6 282 218.6C281.7 218.6 281.4 218.7 281.1 218.9C280.8 219.1 280.6 219.3 280.5 219.6C280.4 219.9 280.3 220.3 280.4 220.7C280.4 221.1 280.4 221.5 280.6 221.8C280.7 222.1 281 222.3 281.2 222.5C281.5 222.7 281.8 222.8 282.2 222.8C282.6 222.8 282.9 222.7 283.1 222.6C283.4 222.4 283.6 222.2 283.7 222L285 222.6C284.9 222.9 284.7 223.2 284.4 223.4C284.1 223.6 283.8 223.8 283.4 224C282.9 224.1 282.5 224.1 282.1 224.1ZM289.1 224.1C288.5 224.1 287.9 224 287.4 223.7C286.9 223.4 286.5 223 286.2 222.5C285.9 222 285.8 221.4 285.8 220.8C285.8 220.2 285.9 219.6 286.2 219.1C286.5 218.6 286.9 218.2 287.4 217.9C287.9 217.6 288.5 217.4 289.1 217.4C289.6 217.4 290 217.5 290.4 217.7C290.8 217.9 291.1 218.2 291.3 218.5L291.1 218.8V214.9H292.7V224H291.2V222.7L291.4 223C291.2 223.4 290.9 223.6 290.5 223.8C290 224.1 289.6 224.1 289.1 224.1ZM289.3 222.7C289.7 222.7 290 222.6 290.2 222.4C290.4 222.2 290.7 222 290.8 221.7C291 221.4 291 221.1 291 220.7C291 220.3 290.9 220 290.8 219.7C290.6 219.4 290.4 219.2 290.2 219C290 218.8 289.6 218.7 289.3 218.7C288.9 218.7 288.6 218.8 288.4 219C288.1 219.2 287.9 219.4 287.7 219.7C287.5 220 287.5 220.3 287.5 220.7C287.5 221.1 287.6 221.4 287.7 221.7C287.9 222 288.1 222.2 288.4 222.4C288.7 222.6 288.9 222.7 289.3 222.7Z" fill="#1A202C"/>
<path d="M2.5 246H301.5" stroke="#F3F5F7"/>
<path d="M65.6 284.2C65 284.2 64.5 284.1 64 283.9C63.5 283.7 63.1 283.4 62.7 283C62.3 282.6 62.1 282.1 62 281.6L63.7 281C63.9 281.5 64.1 281.8 64.5 282.1C64.8 282.3 65.3 282.5 65.7 282.5C66.1 282.5 66.4 282.4 66.7 282.3C67 282.2 67.2 282 67.4 281.7C67.6 281.4 67.6 281.1 67.6 280.7C67.6 280.3 67.5 280 67.4 279.8C67.3 279.5 67 279.3 66.8 279.2C66.6 279.1 66.2 279 65.8 279C65.6 279 65.4 279 65.2 279.1C65 279.1 64.8 279.2 64.7 279.3L64.3 278.4L67 275.3H62.5V273.7H68.9V275.2L66.2 278.4V277.7C66.8 277.7 67.4 277.8 67.8 278.1C68.3 278.4 68.6 278.7 68.9 279.2C69.2 279.7 69.3 280.2 69.3 280.8C69.3 281.5 69.1 282.1 68.8 282.6C68.5 283.1 68 283.6 67.5 283.9C67 284 66.3 284.2 65.6 284.2Z" fill="#1A202C"/>
<path d="M212.5 275C216.9 275 220.5 278.6 220.5 283C220.5 287.4 216.9 291 212.5 291C208.1 291 204.5 287.4 204.5 283C204.5 278.6 208.1 275 212.5 275Z" fill="#DBA32A" fill-opacity="0.14"/>
<path d="M212.5 287C214.709 287 216.5 285.209 216.5 283C216.5 280.791 214.709 279 212.5 279C210.291 279 208.5 280.791 208.5 283C208.5 285.209 210.291 287 212.5 287Z" fill="#DBA32A"/>
<path d="M229.4 288V279.1H232.7C233.3 279.1 233.8 279.2 234.3 279.4C234.8 279.6 235.1 279.9 235.4 280.4C235.7 280.8 235.8 281.3 235.8 281.9C235.8 282.5 235.7 283 235.4 283.4C235.1 283.8 234.8 284.1 234.3 284.4C233.8 284.7 233.3 284.7 232.7 284.7H231V288H229.4ZM231 283.3H232.7C233 283.3 233.3 283.2 233.5 283.1C233.7 283 233.9 282.8 234 282.6C234.1 282.4 234.2 282.2 234.2 281.9C234.2 281.6 234.1 281.4 234 281.2C233.9 281 233.7 280.8 233.5 280.7C233.3 280.6 233 280.5 232.7 280.5H231V283.3ZM239.6 288.1C238.9 288.1 238.3 287.9 237.8 287.6C237.3 287.3 236.9 286.9 236.6 286.4C236.3 285.9 236.2 285.3 236.2 284.7C236.2 284 236.3 283.5 236.6 283C236.9 282.5 237.3 282.1 237.8 281.8C238.3 281.5 238.8 281.4 239.5 281.4C240 281.4 240.5 281.5 240.8 281.7C241.2 281.9 241.5 282.1 241.8 282.4C242.1 282.7 242.3 283 242.4 283.4C242.5 283.8 242.6 284.2 242.6 284.6C242.6 284.7 242.6 284.8 242.6 284.9C242.6 285 242.6 285.1 242.5 285.2H237.5V284H241.7L241 284.6C241.1 284.2 241.1 283.9 240.9 283.6C240.8 283.3 240.6 283.1 240.4 282.9C240.2 282.7 239.9 282.6 239.5 282.6C239.2 282.6 238.9 282.7 238.6 282.9C238.3 283.1 238.1 283.3 238 283.6C237.9 283.9 237.8 284.3 237.9 284.7C237.9 285.1 237.9 285.5 238.1 285.8C238.2 286.1 238.5 286.3 238.7 286.5C239 286.7 239.3 286.8 239.7 286.8C240.1 286.8 240.4 286.7 240.6 286.6C240.9 286.4 241.1 286.2 241.2 286L242.5 286.6C242.4 286.9 242.2 287.2 241.9 287.4C241.6 287.6 241.3 287.8 240.9 288C240.5 288.1 240.1 288.1 239.6 288.1ZM243.6 288V281.5H245.1V282.8L245 282.6C245.2 282.2 245.4 281.9 245.7 281.7C246.1 281.5 246.5 281.4 246.9 281.4C247.4 281.4 247.8 281.5 248.2 281.7C248.6 281.9 248.9 282.2 249.1 282.6C249.3 283 249.4 283.4 249.4 283.9V288.1H247.8V284.3C247.8 284 247.7 283.8 247.6 283.6C247.5 283.4 247.3 283.2 247.1 283.1C246.9 283 246.7 282.9 246.4 282.9C246.1 282.9 245.9 283 245.7 283.1C245.5 283.2 245.3 283.4 245.2 283.6C245.1 283.8 245 284.1 245 284.3V288.1H243.6V288ZM253.6 288.1C253 288.1 252.4 288 251.9 287.7C251.4 287.4 251 287 250.7 286.5C250.4 286 250.3 285.4 250.3 284.8C250.3 284.2 250.4 283.6 250.7 283.1C251 282.6 251.4 282.2 251.9 281.9C252.4 281.6 253 281.4 253.6 281.4C254.1 281.4 254.5 281.5 254.9 281.7C255.3 281.9 255.6 282.2 255.8 282.5L255.6 282.8V278.9H257.2V288H255.7V286.7L255.9 287C255.7 287.4 255.4 287.6 255 287.8C254.5 288.1 254 288.1 253.6 288.1ZM253.7 286.7C254.1 286.7 254.4 286.6 254.6 286.4C254.8 286.2 255.1 286 255.2 285.7C255.4 285.4 255.4 285.1 255.4 284.7C255.4 284.3 255.3 284 255.2 283.7C255 283.4 254.8 283.2 254.6 283C254.4 282.8 254 282.7 253.7 282.7C253.3 282.7 253 282.8 252.8 283C252.5 283.2 252.3 283.4 252.1 283.7C251.9 284 251.9 284.3 251.9 284.7C251.9 285.1 252 285.4 252.1 285.7C252.3 286 252.5 286.2 252.8 286.4C253.1 286.6 253.4 286.7 253.7 286.7ZM258.3 288V281.5H259.9V288H258.3ZM258.3 280.7V279H259.9V280.7H258.3ZM261.1 288V281.5H262.6V282.8L262.5 282.6C262.7 282.2 262.9 281.9 263.2 281.7C263.6 281.5 264 281.4 264.4 281.4C264.9 281.4 265.3 281.5 265.7 281.7C266.1 281.9 266.4 282.2 266.6 282.6C266.8 283 266.9 283.4 266.9 283.9V288.1H265.3V284.3C265.3 284 265.2 283.8 265.1 283.6C265 283.4 264.8 283.2 264.6 283.1C264.4 283 264.2 282.9 263.9 282.9C263.6 282.9 263.4 283 263.2 283.1C263 283.2 262.8 283.4 262.7 283.6C262.6 283.8 262.5 284.1 262.5 284.3V288.1H261.1V288ZM271.2 290.6C270.7 290.6 270.3 290.5 269.8 290.4C269.4 290.2 269 290 268.7 289.7C268.4 289.4 268.2 289.1 268.1 288.7L269.6 288.1C269.7 288.4 269.9 288.6 270.2 288.8C270.5 289 270.8 289.1 271.3 289.1C271.6 289.1 271.9 289 272.1 288.9C272.3 288.8 272.5 288.6 272.7 288.4C272.8 288.2 272.9 287.9 272.9 287.6V286.1L273.2 286.5C273 286.9 272.7 287.2 272.3 287.4C271.9 287.6 271.5 287.7 271 287.7C270.4 287.7 269.8 287.6 269.4 287.3C269 287 268.5 286.6 268.3 286.1C268 285.6 267.9 285.1 267.9 284.5C267.9 283.9 268 283.3 268.3 282.9C268.6 282.4 268.9 282 269.4 281.8C269.9 281.5 270.4 281.4 271 281.4C271.5 281.4 271.9 281.5 272.3 281.7C272.7 281.9 273 282.2 273.2 282.6L273 283V281.6H274.5V287.8C274.5 288.4 274.4 288.9 274.1 289.3C273.8 289.7 273.5 290.1 273 290.4C272.3 290.5 271.8 290.6 271.2 290.6ZM271.1 286.3C271.4 286.3 271.7 286.2 272 286.1C272.3 285.9 272.5 285.7 272.6 285.5C272.7 285.2 272.8 284.9 272.8 284.6C272.8 284.3 272.7 284 272.6 283.7C272.5 283.4 272.3 283.2 272 283.1C271.8 282.9 271.5 282.9 271.1 282.9C270.7 282.9 270.5 283 270.2 283.1C269.9 283.3 269.7 283.5 269.6 283.7C269.5 284 269.4 284.3 269.4 284.6C269.4 284.9 269.5 285.2 269.6 285.5C269.8 285.8 270 286 270.2 286.1C270.5 286.2 270.8 286.3 271.1 286.3Z" fill="#1A202C"/>
<path d="M2.5 310H301.5" stroke="#F3F5F7"/>
<path d="M65.9 348.2C65.1 348.2 64.5 348.1 63.9 347.8C63.3 347.5 62.9 347.1 62.6 346.6C62.3 346.1 62.2 345.6 62.2 345C62.2 344.3 62.4 343.7 62.7 343.3C63.1 342.8 63.6 342.5 64.3 342.2L64.2 342.7C63.7 342.5 63.3 342.2 63 341.8C62.7 341.3 62.6 340.8 62.6 340.3C62.6 339.7 62.7 339.3 63 338.8C63.3 338.4 63.7 338 64.2 337.8C64.7 337.6 65.3 337.4 65.9 337.4C66.5 337.4 67.1 337.5 67.6 337.8C68.1 338 68.5 338.4 68.8 338.8C69.1 339.2 69.2 339.7 69.2 340.3C69.2 340.9 69.1 341.4 68.8 341.8C68.5 342.2 68.1 342.6 67.6 342.7L67.5 342.2C68.2 342.4 68.7 342.8 69.1 343.3C69.5 343.8 69.6 344.3 69.6 345C69.6 345.6 69.4 346.1 69.1 346.6C68.8 347.1 68.4 347.5 67.8 347.7C67.3 348 66.7 348.2 65.9 348.2ZM65.9 346.6C66.3 346.6 66.6 346.5 66.9 346.4C67.2 346.3 67.4 346.1 67.5 345.8C67.6 345.5 67.7 345.3 67.7 344.9C67.7 344.6 67.6 344.3 67.5 344.1C67.4 343.9 67.1 343.7 66.9 343.5C66.6 343.4 66.3 343.3 65.9 343.3C65.5 343.3 65.2 343.4 64.9 343.5C64.6 343.6 64.4 343.8 64.3 344.1C64.2 344.3 64.1 344.6 64.1 344.9C64.1 345.2 64.2 345.5 64.3 345.8C64.4 346 64.7 346.2 64.9 346.4C65.2 346.5 65.6 346.6 65.9 346.6ZM65.9 341.7C66.2 341.7 66.4 341.6 66.6 341.5C66.8 341.4 67 341.2 67.1 341C67.2 340.8 67.3 340.6 67.3 340.3C67.3 340 67.2 339.8 67.1 339.6C67 339.4 66.8 339.2 66.6 339.1C66.4 339 66.2 338.9 65.9 338.9C65.6 338.9 65.4 339 65.2 339.1C65 339.2 64.8 339.4 64.7 339.6C64.6 339.8 64.5 340 64.5 340.3C64.5 340.6 64.6 340.8 64.7 341C64.8 341.2 65 341.4 65.2 341.5C65.4 341.7 65.7 341.7 65.9 341.7Z" fill="#1A202C"/>
<path d="M212.5 339C216.9 339 220.5 342.6 220.5 347C220.5 351.4 216.9 355 212.5 355C208.1 355 204.5 351.4 204.5 347C204.5 342.6 208.1 339 212.5 339Z" fill="#DB2719" fill-opacity="0.3"/>
<path d="M212.5 351C214.709 351 216.5 349.209 216.5 347C216.5 344.791 214.709 343 212.5 343C210.291 343 208.5 344.791 208.5 347C208.5 349.209 210.291 351 212.5 351Z" fill="#DB2719"/>
<path d="M233.8 352.1C233.1 352.1 232.5 352 232 351.8C231.4 351.6 230.9 351.2 230.5 350.8C230.1 350.4 229.7 349.9 229.5 349.3C229.3 348.7 229.2 348.1 229.2 347.5C229.2 346.8 229.3 346.2 229.5 345.7C229.7 345.2 230.1 344.7 230.5 344.2C230.9 343.8 231.4 343.5 232 343.2C232.6 343 233.2 342.9 233.8 342.9C234.4 342.9 235.1 343 235.6 343.2C236.2 343.4 236.7 343.8 237.1 344.2C237.5 344.6 237.9 345.1 238.1 345.7C238.3 346.3 238.5 346.9 238.5 347.5C238.5 348.2 238.4 348.8 238.1 349.3C237.9 349.9 237.5 350.3 237.1 350.8C236.7 351.2 236.2 351.5 235.6 351.8C235 352 234.4 352.1 233.8 352.1ZM233.8 350.7C234.2 350.7 234.6 350.6 235 350.5C235.4 350.3 235.7 350.1 236 349.8C236.3 349.5 236.5 349.2 236.6 348.8C236.8 348.4 236.8 348 236.8 347.6C236.8 347.2 236.7 346.7 236.6 346.4C236.5 346 236.2 345.7 236 345.4C235.7 345.1 235.4 344.9 235 344.7C234.6 344.5 234.2 344.5 233.8 344.5C233.4 344.5 233 344.6 232.6 344.7C232.2 344.9 231.9 345.1 231.6 345.4C231.3 345.7 231.1 346 231 346.4C230.8 346.8 230.8 347.2 230.8 347.6C230.8 348 230.9 348.5 231 348.8C231.2 349.2 231.4 349.5 231.6 349.8C231.9 350.1 232.2 350.3 232.6 350.5C232.9 350.6 233.3 350.7 233.8 350.7ZM239.5 352V345.5H241V346.8L240.9 346.6C241.1 346.2 241.3 345.9 241.6 345.7C242 345.5 242.4 345.4 242.8 345.4C243.3 345.4 243.7 345.5 244.1 345.7C244.5 345.9 244.8 346.2 245 346.6C245.2 347 245.3 347.4 245.3 347.9V352.1H243.7V348.3C243.7 348 243.6 347.8 243.5 347.6C243.4 347.4 243.2 347.2 243 347.1C242.8 347 242.6 346.9 242.3 346.9C242 346.9 241.8 347 241.6 347.1C241.4 347.2 241.2 347.4 241.1 347.6C241 347.8 240.9 348.1 240.9 348.3V352.1H239.5V352ZM248.4 352V343.1H250V347H253.8V343.1H255.4V352H253.8V348.4H250V352H248.4ZM260 352.1C259.4 352.1 258.8 352 258.2 351.7C257.7 351.4 257.3 351 257 350.5C256.7 350 256.5 349.4 256.5 348.7C256.5 348 256.7 347.5 257 346.9C257.3 346.4 257.7 346 258.2 345.7C258.7 345.4 259.3 345.3 260 345.3C260.6 345.3 261.2 345.4 261.7 345.7C262.2 346 262.6 346.4 262.9 346.9C263.2 347.4 263.4 348 263.4 348.7C263.4 349.4 263.2 349.9 262.9 350.5C262.6 351.1 262.2 351.4 261.7 351.7C261.3 352 260.7 352.1 260 352.1ZM260 350.7C260.4 350.7 260.7 350.6 260.9 350.4C261.2 350.2 261.4 350 261.5 349.7C261.7 349.4 261.7 349.1 261.7 348.7C261.7 348.3 261.6 348 261.5 347.7C261.3 347.4 261.1 347.2 260.9 347C260.6 346.8 260.3 346.7 260 346.7C259.6 346.7 259.3 346.8 259.1 347C258.8 347.2 258.6 347.4 258.5 347.7C258.3 348 258.3 348.3 258.3 348.7C258.3 349.1 258.4 349.4 258.5 349.7C258.7 350 258.9 350.2 259.1 350.4C259.3 350.6 259.7 350.7 260 350.7ZM264.4 352V342.9H266V352H264.4ZM270.3 352.1C269.7 352.1 269.1 352 268.6 351.7C268.1 351.4 267.7 351 267.4 350.5C267.1 350 267 349.4 267 348.8C267 348.2 267.1 347.6 267.4 347.1C267.7 346.6 268.1 346.2 268.6 345.9C269.1 345.6 269.7 345.4 270.3 345.4C270.8 345.4 271.2 345.5 271.6 345.7C272 345.9 272.3 346.2 272.5 346.5L272.3 346.8V342.9H273.9V352H272.4V350.7L272.6 351C272.4 351.4 272.1 351.6 271.7 351.8C271.2 352.1 270.7 352.1 270.3 352.1ZM270.4 350.7C270.8 350.7 271.1 350.6 271.3 350.4C271.5 350.2 271.8 350 271.9 349.7C272.1 349.4 272.1 349.1 272.1 348.7C272.1 348.3 272 348 271.9 347.7C271.7 347.4 271.5 347.2 271.3 347C271.1 346.8 270.7 346.7 270.4 346.7C270 346.7 269.7 346.8 269.5 347C269.2 347.2 269 347.4 268.8 347.7C268.6 348 268.6 348.3 268.6 348.7C268.6 349.1 268.7 349.4 268.8 349.7C269 350 269.2 350.2 269.5 350.4C269.8 350.6 270.1 350.7 270.4 350.7Z" fill="#1A202C"/>
<path d="M2.5 374H301.5" stroke="#F3F5F7"/>
<path d="M187.5 88.5V90.7" stroke="#292D32" stroke-width="1.5" stroke-miterlimit="10" stroke-linecap="round" stroke-linejoin="round"/>
<path d="M193.5 88.5V90.7" stroke="#292D32" stroke-width="1.5" stroke-miterlimit="10" stroke-linecap="round" stroke-linejoin="round"/>
<path d="M184.1 93.7998H196.9" stroke="#292D32" stroke-width="1.5" stroke-miterlimit="10" stroke-linecap="round" stroke-linejoin="round"/>
<path d="M197.3 93.4001V99.8001C197.3 102 196.2 103.6 193.5 103.6H187.5C184.9 103.6 183.7 102.1 183.7 99.8001V93.4001C183.7 91.2001 184.8 89.6001 187.5 89.6001H193.5C196.1 89.6001 197.3 91.1001 197.3 93.4001Z" stroke="#292D32" stroke-width="1.5" stroke-miterlimit="10" stroke-linecap="round" stroke-linejoin="round"/>
<path d="M209.6 100.5V92.9999H207.9V91.5999H211.3V100.5H209.6ZM214.5 100.5V98.9999H215C215.4 98.9999 215.7 98.8999 215.9 98.6999C216.1 98.4999 216.2 98.1999 216.2 97.7999V91.5999H217.8V97.7999C217.8 98.3999 217.7 98.7999 217.4 99.2999C217.2 99.6999 216.8 99.9999 216.4 100.3C216 100.5 215.5 100.6 214.9 100.6H214.5V100.5ZM221.2 100.6C220.7 100.6 220.3 100.5 220 100.4C219.7 100.2 219.4 99.9999 219.2 99.7999C219 99.4999 218.9 99.1999 218.9 98.7999C218.9 98.3999 219 98.0999 219.1 97.7999C219.3 97.4999 219.5 97.2999 219.8 97.0999C220.1 96.8999 220.6 96.7999 221.1 96.6999L223.2 96.3999V97.5999L221.4 97.8999C221.1 97.9999 220.9 98.0999 220.7 98.1999C220.5 98.2999 220.5 98.4999 220.5 98.7999C220.5 98.9999 220.6 99.1999 220.8 99.2999C221 99.3999 221.2 99.4999 221.4 99.4999C221.7 99.4999 222 99.3999 222.3 99.2999C222.6 99.1999 222.8 98.9999 222.9 98.6999C223 98.4999 223.1 98.1999 223.1 97.8999V96.1999C223.1 95.8999 223 95.6999 222.8 95.4999C222.6 95.2999 222.3 95.1999 221.9 95.1999C221.6 95.1999 221.3 95.2999 221 95.4999C220.7 95.6999 220.6 95.8999 220.4 96.1999L219.1 95.5999C219.2 95.2999 219.4 94.9999 219.7 94.6999C220 94.3999 220.3 94.1999 220.7 94.0999C221.1 93.9999 221.5 93.8999 221.9 93.8999C222.4 93.8999 222.9 93.9999 223.3 94.1999C223.7 94.3999 224 94.6999 224.2 94.9999C224.4 95.2999 224.5 95.6999 224.5 96.1999V100.5H223V99.3999H223.3C223.1 99.6999 222.9 99.8999 222.7 100.1C222.5 100.3 222.2 100.4 221.9 100.5C221.9 100.6 221.5 100.6 221.2 100.6ZM225.9 100.5V93.9999H227.4V95.2999L227.3 95.0999C227.5 94.6999 227.7 94.3999 228 94.1999C228.4 93.9999 228.8 93.8999 229.2 93.8999C229.7 93.8999 230.1 93.9999 230.5 94.1999C230.9 94.3999 231.2 94.6999 231.4 95.0999C231.6 95.4999 231.7 95.8999 231.7 96.3999V100.6H230.1V96.7999C230.1 96.4999 230 96.2999 229.9 96.0999C229.8 95.8999 229.6 95.6999 229.4 95.5999C229.2 95.4999 229 95.3999 228.7 95.3999C228.4 95.3999 228.2 95.4999 228 95.5999C227.8 95.6999 227.6 95.8999 227.5 96.0999C227.4 96.2999 227.3 96.5999 227.3 96.7999V100.6H225.9V100.5ZM235 97.8999V96.4999H240.1V97.8999H235ZM244.9 100.5V92.9999H243.2V91.5999H246.6V100.5H244.9ZM250.2 100.5V91.5999H256.2V92.9999H251.9V95.4999H255.7V96.8999H251.9V100.5H250.2ZM259.8 100.6C259.1 100.6 258.5 100.4 258 100.1C257.5 99.7999 257.1 99.3999 256.8 98.8999C256.5 98.3999 256.4 97.7999 256.4 97.1999C256.4 96.4999 256.5 95.9999 256.8 95.4999C257.1 94.9999 257.5 94.5999 258 94.2999C258.5 93.9999 259 93.8999 259.7 93.8999C260.2 93.8999 260.7 93.9999 261 94.1999C261.4 94.3999 261.7 94.5999 262 94.8999C262.3 95.1999 262.5 95.4999 262.6 95.8999C262.7 96.2999 262.8 96.6999 262.8 97.0999C262.8 97.1999 262.8 97.2999 262.8 97.3999C262.8 97.4999 262.8 97.5999 262.7 97.6999H257.7V96.4999H261.9L261.2 97.0999C261.3 96.6999 261.3 96.3999 261.1 96.0999C261 95.7999 260.8 95.5999 260.6 95.3999C260.4 95.1999 260.1 95.0999 259.7 95.0999C259.4 95.0999 259.1 95.1999 258.8 95.3999C258.5 95.5999 258.3 95.7999 258.2 96.0999C258.1 96.3999 258 96.7999 258.1 97.1999C258.1 97.5999 258.1 97.9999 258.3 98.2999C258.4 98.5999 258.7 98.7999 258.9 98.9999C259.2 99.1999 259.5 99.2999 259.9 99.2999C260.3 99.2999 260.6 99.1999 260.8 99.0999C261.1 98.8999 261.3 98.6999 261.4 98.4999L262.7 99.0999C262.6 99.3999 262.4 99.6999 262.1 99.8999C261.8 100.1 261.5 100.3 261.1 100.5C260.6 100.6 260.2 100.6 259.8 100.6ZM267.3 100.6C266.8 100.6 266.4 100.5 266 100.3C265.6 100.1 265.3 99.7999 265.1 99.4999L265.3 99.1999V100.5H263.8V91.3999H265.4V95.2999L265.2 94.9999C265.4 94.5999 265.7 94.3999 266.1 94.1999C266.5 93.9999 266.9 93.8999 267.4 93.8999C268 93.8999 268.6 94.0999 269.1 94.3999C269.6 94.6999 270 95.0999 270.3 95.5999C270.6 96.0999 270.7 96.6999 270.7 97.2999C270.7 97.8999 270.6 98.4999 270.3 98.9999C270 99.4999 269.6 99.8999 269.1 100.2C268.5 100.5 268 100.6 267.3 100.6ZM267.2 99.1999C267.6 99.1999 267.9 99.0999 268.2 98.8999C268.5 98.6999 268.7 98.4999 268.8 98.1999C269 97.8999 269 97.5999 269 97.1999C269 96.7999 268.9 96.4999 268.8 96.1999C268.6 95.8999 268.4 95.6999 268.2 95.4999C267.9 95.2999 267.6 95.1999 267.2 95.1999C266.9 95.1999 266.5 95.2999 266.3 95.4999C266 95.6999 265.8 95.8999 265.7 96.1999C265.5 96.4999 265.5 96.7999 265.5 97.1999C265.5 97.5999 265.6 97.8999 265.7 98.1999C265.9 98.4999 266.1 98.6999 266.3 98.8999C266.5 99.0999 266.8 99.1999 267.2 99.1999ZM273.3 100.5V99.2999L275.7 96.7999C276.2 96.2999 276.5 95.8999 276.8 95.5999C277.1 95.2999 277.2 94.9999 277.4 94.7999C277.6 94.5999 277.6 94.3999 277.6 94.0999C277.6 93.6999 277.5 93.3999 277.2 93.1999C277 92.9999 276.7 92.8999 276.3 92.8999C275.9 92.8999 275.6 92.9999 275.3 93.1999C275 93.3999 274.8 93.6999 274.7 94.1999L273.3 93.7999C273.4 93.2999 273.6 92.8999 273.9 92.5999C274.2 92.1999 274.6 91.9999 275 91.7999C275.4 91.5999 275.9 91.4999 276.4 91.4999C277 91.4999 277.5 91.5999 277.9 91.7999C278.3 91.9999 278.7 92.2999 278.9 92.6999C279.1 93.0999 279.3 93.4999 279.3 93.9999C279.3 94.2999 279.2 94.5999 279.1 94.8999C279 95.1999 278.8 95.4999 278.6 95.8999C278.4 96.1999 278 96.5999 277.7 96.9999L275.6 99.1999H279.5V100.6H273.3V100.5ZM283.9 100.6C283.2 100.6 282.6 100.4 282 99.9999C281.5 99.5999 281 99.0999 280.7 98.3999C280.4 97.6999 280.3 96.8999 280.3 95.9999C280.3 95.0999 280.4 94.2999 280.7 93.5999C281 92.8999 281.4 92.3999 281.9 91.9999C282.4 91.5999 283.1 91.3999 283.8 91.3999C284.5 91.3999 285.2 91.5999 285.7 91.9999C286.2 92.3999 286.7 92.8999 287 93.5999C287.3 94.2999 287.5 95.0999 287.5 95.9999C287.5 96.8999 287.3 97.6999 287 98.3999C286.7 99.0999 286.3 99.5999 285.8 99.9999C285.3 100.5 284.7 100.6 283.9 100.6ZM283.9 99.1999C284.3 99.1999 284.7 99.0999 284.9 98.7999C285.2 98.4999 285.4 98.1999 285.6 97.6999C285.8 97.1999 285.8 96.6999 285.8 95.9999C285.8 95.3999 285.7 94.7999 285.6 94.2999C285.4 93.7999 285.2 93.4999 284.9 93.1999C284.6 92.9999 284.3 92.7999 283.8 92.7999C283.4 92.7999 283.1 92.8999 282.8 93.1999C282.5 93.3999 282.3 93.7999 282.1 94.2999C281.9 94.7999 281.9 95.2999 281.9 95.9999C281.9 96.5999 282 97.1999 282.1 97.6999C282.3 98.1999 282.5 98.4999 282.8 98.7999C283.2 98.9999 283.5 99.1999 283.9 99.1999ZM288.5 100.5V99.2999L290.9 96.7999C291.4 96.2999 291.7 95.8999 292 95.5999C292.3 95.2999 292.4 94.9999 292.6 94.7999C292.8 94.5999 292.8 94.3999 292.8 94.0999C292.8 93.6999 292.7 93.3999 292.4 93.1999C292.2 92.9999 291.9 92.8999 291.5 92.8999C291.1 92.8999 290.8 92.9999 290.5 93.1999C290.2 93.3999 290 93.6999 289.9 94.1999L288.5 93.7999C288.6 93.2999 288.8 92.8999 289.1 92.5999C289.4 92.1999 289.8 91.9999 290.2 91.7999C290.6 91.5999 291.1 91.4999 291.6 91.4999C292.2 91.4999 292.7 91.5999 293.1 91.7999C293.5 91.9999 293.9 92.2999 294.1 92.6999C294.3 93.0999 294.5 93.4999 294.5 93.9999C294.5 94.2999 294.4 94.5999 294.3 94.8999C294.2 95.1999 294 95.4999 293.8 95.8999C293.6 96.1999 293.2 96.5999 292.9 96.9999L290.8 99.1999H294.7V100.6H288.5V100.5ZM295.4 100.5V99.2999L297.8 96.7999C298.3 96.2999 298.6 95.8999 298.9 95.5999C299.2 95.2999 299.3 94.9999 299.5 94.7999C299.6 94.5999 299.7 94.3999 299.7 94.0999C299.7 93.6999 299.6 93.3999 299.3 93.1999C299.1 92.9999 298.8 92.8999 298.4 92.8999C298 92.8999 297.7 92.9999 297.4 93.1999C297.1 93.3999 296.9 93.6999 296.8 94.1999L295.4 93.7999C295.5 93.2999 295.7 92.8999 296 92.5999C296.3 92.1999 296.7 91.9999 297.1 91.7999C297.5 91.5999 298 91.4999 298.5 91.4999C299.1 91.4999 299.6 91.5999 300 91.7999C300.4 91.9999 300.8 92.2999 301 92.6999C301.2 93.0999 301.4 93.4999 301.4 93.9999C301.4 94.2999 301.3 94.5999 301.2 94.8999C301.1 95.1999 300.9 95.4999 300.7 95.8999C300.5 96.1999 300.1 96.5999 299.8 96.9999L297.7 99.1999H301.6V100.6H295.4V100.5Z" fill="#1A202C"/>
<path d="M171.5 79.5H312.5C315.5 79.5 318 82 318 85V107C318 110 315.5 112.5 312.5 112.5H171.5C168.5 112.5 166 110 166 107V85C166 82 168.5 79.5 171.5 79.5Z" stroke="#C3D4E9"/>
</g>
</g>
<defs>
<clipPath id="clip0_1_7955">
<rect x="0.5" width="384" height="386" rx="12" fill="white"/>
</clipPath>
<clipPath id="clip1_1_7955">
<rect width="341" height="326" fill="white" transform="translate(0.5 60)"/>
</clipPath>
</defs>
</svg>
