<svg width="198" height="63" viewBox="0 0 198 63" fill="none" xmlns="http://www.w3.org/2000/svg">
<g clip-path="url(#clip0_1_6215)">
<path d="M28.6847 52.5993L23.6082 52.7711C22.6217 52.8044 21.6483 52.5587 20.8237 52.0681C19.9991 51.5776 19.3645 50.8667 19.0082 50.0345L11.6927 32.9517C11.5086 32.5217 11.1865 32.1513 10.7679 31.8879C10.3492 31.6246 9.85308 31.4803 9.34306 31.4736L4.67692 31.4123C3.94546 31.4027 3.22638 31.2403 2.5759 30.9378C1.92543 30.6352 1.3612 30.2008 0.927339 29.6684C0.493482 29.136 0.201758 28.5202 0.074988 27.8689C-0.0517824 27.2177 -0.0101634 26.5488 0.196588 25.9146L8.10162 1.66268C8.78992 -0.448691 12.0412 -0.585084 12.9432 1.45945L32.9125 46.7281C33.1938 47.3658 33.3016 48.0553 33.2267 48.7385C33.1517 49.4217 32.8964 50.0786 32.482 50.654C32.0677 51.2294 31.5065 51.7065 30.8457 52.045C30.1849 52.3835 29.4438 52.5736 28.6847 52.5993Z" fill="#5422CA"/>
<path opacity="0.8" d="M15.6776 10.1627L20.7542 9.99128C21.7406 9.95792 22.714 10.2036 23.5385 10.6941C24.3631 11.1846 24.9978 11.8954 25.3541 12.7275L32.6692 29.8104C32.8533 30.2403 33.1754 30.6108 33.594 30.8742C34.0127 31.1376 34.5088 31.282 35.0188 31.2888L39.685 31.3501C40.4164 31.3596 41.1355 31.5221 41.786 31.8246C42.4365 32.1271 43.0008 32.5616 43.4346 33.094C43.8685 33.6263 44.1602 34.2422 44.287 34.8935C44.4137 35.5447 44.3721 36.2136 44.1653 36.8479L36.26 61.0996C35.5717 63.2109 32.3204 63.3476 31.4183 61.3028L11.4498 16.0343C11.1684 15.3965 11.0606 14.707 11.1355 14.0238C11.2104 13.3405 11.4658 12.6835 11.8801 12.1081C12.2945 11.5326 12.8557 11.0556 13.5165 10.717C14.1774 10.3785 14.9185 10.1884 15.6776 10.1627Z" fill="url(#paint0_linear_1_6215)"/>
<path d="M89.3576 26.5204L89.338 44.2804L84.058 44.2756L84.0633 39.4356L83.9033 39.4355C82.9148 41.1146 81.4733 42.46 79.5789 43.4716C77.6845 44.4565 75.5506 44.9479 73.1772 44.9458C69.0439 44.9421 65.5122 43.4322 62.5822 40.4162C59.6522 37.4002 58.1897 33.6789 58.1946 29.2522C58.1995 24.7989 59.777 21.0803 62.9269 18.0965C66.1036 15.086 70.0253 13.5829 74.6919 13.5871C78.0253 13.5901 81.1043 14.5129 83.9289 16.3555C86.7535 18.198 88.5642 20.6263 89.3608 23.6404L83.2008 23.6348C82.4558 22.1675 81.3237 20.9931 79.8047 20.1118C78.2857 19.2304 76.5795 18.7888 74.6862 18.7871C71.7262 18.7845 69.2184 19.8222 67.1627 21.9003C65.1338 23.9252 64.1178 26.3776 64.1146 29.2576C64.1114 32.1376 65.082 34.6051 67.0264 36.6602C68.9975 38.7153 71.383 39.7442 74.183 39.7467C76.503 39.7488 78.5972 38.9907 80.4655 37.4724C82.3339 35.9541 83.4559 34.1151 83.8316 31.9554L74.6716 31.9471L74.6776 26.5071L89.3576 26.5204ZM94.3342 44.2849L94.3599 21.1249L100.04 21.1301L100.014 44.2901L94.3342 44.2849ZM94.0447 16.7246C94.0457 15.8713 94.3532 15.1382 94.9672 14.5255C95.6078 13.9127 96.3549 13.6067 97.2082 13.6075C98.0615 13.6083 98.7945 13.9156 99.4072 14.5295C100.046 15.1434 100.366 15.877 100.365 16.7303C100.364 17.6103 100.056 18.3567 99.4423 18.9695C98.8283 19.5556 98.0813 19.8483 97.2013 19.8475C96.3213 19.8467 95.5749 19.5527 94.9623 18.9655C94.3496 18.3516 94.0438 17.6046 94.0447 16.7246ZM105.531 37.455L105.544 25.535L103.424 25.5331L103.429 21.1331L105.549 21.135L105.554 15.895L111.234 15.9002L111.229 21.1402L115.189 21.1437L115.184 25.5437L111.224 25.5402L111.21 37.8602C111.21 38.2602 111.343 38.5936 111.609 38.8605C111.875 39.1274 112.195 39.2611 112.569 39.2614L115.169 39.2637L115.163 44.3037L112.563 44.3014C110.456 44.2995 108.75 43.6846 107.445 42.4568C106.166 41.2023 105.528 39.535 105.531 37.455ZM131.764 34.7987L124.244 34.7919L124.233 44.3119L118.553 44.3068L118.586 14.3068L131.786 14.3187C134.72 14.3214 137.212 15.3103 139.263 17.2855C141.314 19.2607 142.338 21.6883 142.335 24.5683C142.332 27.475 141.302 29.914 139.247 31.8855C137.218 33.8303 134.724 34.8014 131.764 34.7987ZM131.78 19.7587L124.26 19.7519L124.25 29.3519L131.77 29.3587C133.076 29.3599 134.17 28.8942 135.051 27.9617C135.959 27.0559 136.413 25.9229 136.415 24.5629C136.416 23.2029 135.964 22.0692 135.059 21.1617C134.18 20.2276 133.087 19.7599 131.78 19.7587ZM161.647 37.7458C162.929 36.3336 163.571 34.6675 163.573 32.7475C163.575 30.8542 162.937 29.2002 161.659 27.7858C160.38 26.3979 158.767 25.7031 156.821 25.7014C154.874 25.6996 153.26 26.3915 151.979 27.777C150.697 29.1892 150.055 30.8419 150.053 32.7353C150.051 34.6553 150.689 36.3225 151.967 37.737C153.246 39.1248 154.859 39.8196 156.805 39.8214C158.752 39.8231 160.366 39.1313 161.647 37.7458ZM169.24 44.3526L163.56 44.3475L163.564 40.9475L163.484 40.9474C161.454 43.6656 158.879 45.0233 155.759 45.0204C152.319 45.0173 149.521 43.8548 147.363 41.5328C145.206 39.2109 144.129 36.2766 144.133 32.7299C144.137 29.2099 145.22 26.2909 147.383 23.9729C149.545 21.6548 152.347 20.4973 155.787 20.5004C158.933 20.5033 161.505 21.8523 163.502 24.5474L163.582 24.5475L163.586 21.1875L169.266 21.1926L169.24 44.3526ZM189.767 21.2112L195.647 21.2165L184.014 51.206L178.174 51.2007L181.022 43.8433L172.247 21.1953L178.127 21.2006L183.911 36.2859L183.991 36.286L189.767 21.2112Z" fill="white"/>
</g>
<defs>
<linearGradient id="paint0_linear_1_6215" x1="95.1922" y1="150.315" x2="145.896" y2="168.497" gradientUnits="userSpaceOnUse">
<stop stop-color="#0086F5"/>
<stop offset="1" stop-color="#01C4FF"/>
</linearGradient>
<clipPath id="clip0_1_6215">
<rect width="198" height="63" fill="white"/>
</clipPath>
</defs>
</svg>
