<svg width="242" height="63" viewBox="0 0 242 63" fill="none" xmlns="http://www.w3.org/2000/svg">
<g clip-path="url(#clip0_1_6215)">
<path d="M35.0593 52.5993L28.8546 52.7711C27.6489 52.8044 26.4592 52.5586 25.4514 52.0681C24.4436 51.5776 23.6679 50.8667 23.2324 50.0345L14.2913 32.9517C14.0663 32.5217 13.6726 32.1513 13.161 31.8879C12.6493 31.6246 12.0428 31.4803 11.4195 31.4736L5.71643 31.4123C4.82243 31.4027 3.94355 31.2403 3.14852 30.9378C2.35349 30.6352 1.66388 30.2008 1.13361 29.6684C0.603341 29.136 0.24679 28.5202 0.0918487 27.8689C-0.063093 27.2177 -0.0122252 26.5488 0.240471 25.9146L9.90217 1.66268C10.7434 -0.448691 14.7172 -0.585084 15.8197 1.45945L40.2266 46.7281C40.5704 47.3658 40.7021 48.0553 40.6105 48.7385C40.519 49.4217 40.2068 50.0786 39.7004 50.654C39.194 51.2294 38.5081 51.7065 37.7005 52.045C36.8928 52.3835 35.987 52.5736 35.0593 52.5993Z" fill="#5422CA"/>
<path opacity="0.8" d="M19.1615 10.1627L25.3662 9.99128C26.5718 9.95792 27.7615 10.2036 28.7693 10.6941C29.7771 11.1846 30.5529 11.8954 30.9884 12.7275L39.929 29.8104C40.1541 30.2403 40.5477 30.6108 41.0594 30.8742C41.571 31.1376 42.1774 31.282 42.8008 31.2888L48.5039 31.3501C49.3979 31.3596 50.2768 31.5221 51.0718 31.8246C51.8668 32.1271 52.5565 32.5616 53.0867 33.094C53.617 33.6263 53.9736 34.2422 54.1285 34.8935C54.2834 35.5447 54.2325 36.2136 53.9798 36.8479L44.3177 61.0996C43.4765 63.2109 39.5027 63.3476 38.4002 61.3028L13.9942 16.0343C13.6503 15.3965 13.5186 14.707 13.6101 14.0238C13.7016 13.3405 14.0137 12.6835 14.5202 12.1081C15.0266 11.5326 15.7125 11.0556 16.5202 10.717C17.3279 10.3785 18.2337 10.1884 19.1615 10.1627Z" fill="url(#paint0_linear_1_6215)"/>
<path d="M101.979 26.515L101.955 44.275L96.6753 44.2711L96.6819 39.4311L96.5219 39.431C95.5329 41.1103 94.0911 42.4559 92.1964 43.4678C90.3018 44.4531 88.1678 44.9448 85.7944 44.9431C81.6611 44.94 78.1298 43.4308 75.2005 40.4153C72.2713 37.3998 70.8096 33.6787 70.8156 29.252C70.8216 24.7987 72.4 21.0798 75.5507 18.0955C78.7281 15.0845 82.6502 13.5807 87.3168 13.5842C90.6502 13.5867 93.7289 14.5089 96.5531 16.351C99.3773 18.1931 101.187 20.6211 101.983 23.635L95.8232 23.6305C95.0786 22.1633 93.9468 20.9891 92.428 20.108C90.9092 19.2269 89.2031 18.7856 87.3098 18.7842C84.3498 18.782 81.8417 19.8202 79.7856 21.8986C77.7562 23.9238 76.7395 26.3764 76.7356 29.2564C76.7317 32.1364 77.7017 34.6038 79.6456 36.6585C81.6162 38.7133 84.0014 39.7418 86.8014 39.7438C89.1214 39.7455 91.2158 38.9871 93.0845 37.4685C94.9533 35.9499 96.0757 34.1107 96.452 31.951L87.292 31.9442L87.2994 26.5042L101.979 26.515ZM106.952 44.2787L106.983 21.1187L112.663 21.1229L112.632 44.2829L106.952 44.2787ZM106.669 16.7185C106.67 15.8652 106.978 15.1321 107.592 14.5192C108.233 13.9063 108.98 13.6002 109.833 13.6008C110.686 13.6015 111.419 13.9087 112.032 14.5225C112.671 15.1363 112.99 15.8699 112.989 16.7232C112.988 17.6032 112.68 18.3496 112.066 18.9625C111.452 19.5487 110.705 19.8415 109.825 19.8408C108.945 19.8402 108.198 19.5463 107.586 18.9592C106.973 18.3454 106.668 17.5985 106.669 16.7185ZM118.15 37.447L118.166 25.527L116.046 25.5255L116.052 21.1255L118.172 21.127L118.179 15.887L123.859 15.8912L123.852 21.1312L127.812 21.1341L127.806 25.5341L123.846 25.5312L123.829 37.8512C123.829 38.2512 123.961 38.5846 124.228 38.8515C124.494 39.1184 124.814 39.2519 125.187 39.2522L127.787 39.2541L127.78 44.2941L125.18 44.2922C123.074 44.2907 121.368 43.6761 120.063 42.4484C118.785 41.1942 118.147 39.527 118.15 37.447ZM131.17 44.2966L131.211 14.2967L141.651 14.3044C146.024 14.3076 149.676 15.737 152.605 18.5925C155.561 21.4213 157.036 24.9958 157.031 29.3158C157.025 33.6624 155.54 37.248 152.576 40.0725C149.666 42.897 146.01 44.3076 141.61 44.3044L131.17 44.2966ZM151.111 29.3114C151.114 26.6981 150.184 24.4574 148.32 22.5893C146.482 20.6946 144.257 19.7463 141.644 19.7444L136.884 19.7409L136.858 38.8608L141.618 38.8644C144.231 38.8663 146.459 37.9346 148.301 36.0693C150.171 34.204 151.107 31.9514 151.111 29.3114ZM179.474 32.7324C179.477 30.599 178.866 28.8786 177.641 27.571C176.417 26.2101 174.778 25.5289 172.724 25.5274C170.671 25.5258 169.03 26.2046 167.801 27.5637C166.573 28.8962 165.957 30.6157 165.954 32.7224C165.952 34.8557 166.563 36.5895 167.787 37.9237C169.012 39.2846 170.651 39.9658 172.705 39.9674C174.758 39.9689 176.399 39.3034 177.627 37.971C178.856 36.6386 179.472 34.8924 179.474 32.7324ZM185.394 32.7367C185.39 36.2034 184.159 39.1225 181.703 41.494C179.273 43.8389 176.271 45.01 172.698 45.0074C169.151 45.0047 166.153 43.8292 163.703 41.4807C161.253 39.1056 160.03 36.1847 160.034 32.718C160.039 29.278 161.27 26.3722 163.726 24.0007C166.183 21.6559 169.184 20.4847 172.731 20.4874C176.304 20.49 179.303 21.6656 181.726 24.014C184.176 26.3892 185.399 29.2967 185.394 32.7367ZM195.072 30.8239L195.053 44.3439L189.373 44.3397L189.405 21.1797L194.645 21.1836L194.64 24.5036L194.72 24.5036C195.389 23.2775 196.337 22.3048 197.564 21.5857C198.819 20.8667 200.259 20.5077 201.886 20.5089C204.552 20.5109 206.711 21.4325 208.362 23.2737C210.04 25.0616 210.876 27.4222 210.872 30.3556L210.853 44.3556L205.173 44.3514L205.192 30.8314C205.194 29.418 204.702 28.2177 203.717 27.2303C202.705 26.2162 201.519 25.7087 200.159 25.7077C198.772 25.7066 197.571 26.2124 196.557 27.225C195.569 28.2109 195.074 29.4106 195.072 30.8239ZM239.958 32.7771C239.957 33.5238 239.849 34.3903 239.635 35.3769L220.955 35.363C221.273 36.6699 222.031 37.7905 223.23 38.7247C224.482 39.659 225.882 40.1267 227.428 40.1278C228.522 40.1286 229.535 39.8761 230.469 39.3701C231.403 38.8641 232.124 38.2113 232.632 37.4117L238.792 37.4162C237.962 39.7356 236.506 41.5879 234.424 42.973C232.369 44.3582 230.035 45.0498 227.422 45.0478C223.902 45.0452 220.93 43.8697 218.506 41.5212C216.083 39.1728 214.874 36.2519 214.878 32.7585C214.883 29.3185 216.113 26.4128 218.57 24.0413C221 21.6964 223.988 20.5253 227.535 20.5279C230.948 20.5304 233.88 21.7193 236.33 24.0944C238.753 26.4429 239.963 29.3371 239.958 32.7771ZM221.041 30.4431L233.881 30.4526C233.563 28.959 232.832 27.7318 231.686 26.771C230.568 25.8101 229.182 25.3291 227.528 25.3279C225.875 25.3267 224.461 25.819 223.286 26.8048C222.112 27.7639 221.363 28.9767 221.041 30.4431Z" fill="white"/>
</g>
<defs>
<linearGradient id="paint0_linear_1_6215" x1="116.346" y1="150.315" x2="175.017" y2="176.029" gradientUnits="userSpaceOnUse">
<stop stop-color="#0086F5"/>
<stop offset="1" stop-color="#01C4FF"/>
</linearGradient>
<clipPath id="clip0_1_6215">
<rect width="242" height="63" fill="white"/>
</clipPath>
</defs>
</svg>
