<svg width="589" height="385" viewBox="0 0 589 385" fill="none" xmlns="http://www.w3.org/2000/svg">
<rect width="589" height="385" rx="12" fill="#F3F5F7"/>
<g clip-path="url(#clip0_1_6465)">
<path d="M589 41H69V385H589V41Z" fill="white"/>
<path d="M96.2 145.8V137.8H93.7V136.3H100.4V137.8H98V145.8H96.2ZM101 145.8V138.8H102.7V145.8H101ZM101 138V136.2H102.7V138H101ZM107.4 145.9C106.7 145.9 106.1 145.7 105.5 145.4C105 145.1 104.5 144.6 104.2 144.1C103.9 143.5 103.7 142.9 103.7 142.2C103.7 141.5 103.9 140.9 104.2 140.3C104.5 139.8 104.9 139.3 105.5 139C106.1 138.7 106.7 138.5 107.4 138.5C107.9 138.5 108.4 138.6 108.8 138.8C109.2 139 109.6 139.2 109.9 139.5C110.2 139.8 110.4 140.2 110.6 140.6L109.1 141.2C109 140.9 108.8 140.6 108.4 140.4C108.1 140.2 107.8 140.1 107.4 140.1C107 140.1 106.7 140.2 106.4 140.4C106.1 140.6 105.9 140.8 105.7 141.1C105.5 141.4 105.5 141.8 105.5 142.2C105.5 142.6 105.6 143 105.7 143.3C105.9 143.6 106.1 143.9 106.4 144C106.7 144.2 107 144.3 107.4 144.3C107.8 144.3 108.2 144.2 108.4 144C108.7 143.8 108.9 143.5 109 143.1L110.5 143.8C110.4 144.2 110.1 144.5 109.8 144.9C109.5 145.2 109.1 145.5 108.7 145.6C108.3 145.8 107.9 145.9 107.4 145.9ZM111.5 145.8V136.1H113.2V142.4L112.6 142.2L115.9 138.8H118L115.4 141.6L118 145.8H116.1L113.8 142.2L114.8 142L112.7 144.3L113.2 143.3V145.9H111.5V145.8ZM121.8 145.9C121.1 145.9 120.5 145.7 119.9 145.4C119.4 145.1 118.9 144.6 118.6 144.1C118.3 143.5 118.2 142.9 118.2 142.3C118.2 141.6 118.3 141 118.6 140.4C118.9 139.9 119.3 139.4 119.8 139.1C120.3 138.8 120.9 138.6 121.6 138.6C122.1 138.6 122.6 138.7 123 138.9C123.4 139.1 123.8 139.3 124.1 139.6C124.4 139.9 124.6 140.3 124.8 140.7C125 141.1 125 141.5 125 142C125 142.1 125 142.2 125 142.4C125 142.5 125 142.6 124.9 142.7H119.5V141.4H123.9L123.1 142C123.2 141.6 123.2 141.3 123 141C122.9 140.7 122.7 140.5 122.4 140.3C122.1 140.1 121.8 140 121.5 140C121.2 140 120.8 140.1 120.6 140.3C120.3 140.5 120.1 140.7 120 141.1C119.9 141.4 119.8 141.8 119.8 142.3C119.8 142.7 119.8 143.1 120 143.4C120.2 143.7 120.4 144 120.7 144.2C121 144.4 121.3 144.5 121.7 144.5C122.1 144.5 122.4 144.4 122.7 144.3C123 144.1 123.2 143.9 123.3 143.6L124.7 144.3C124.6 144.6 124.4 144.9 124.1 145.2C123.8 145.5 123.5 145.7 123.1 145.8C122.8 145.8 122.3 145.9 121.8 145.9ZM129.3 145.8C128.5 145.8 127.9 145.6 127.5 145.2C127.1 144.8 126.9 144.2 126.9 143.4V140.3H125.7V138.8H125.8C126.1 138.8 126.4 138.7 126.6 138.5C126.8 138.3 126.9 138.1 126.9 137.7V137.2H128.6V138.8H130.2V140.3H128.6V143.3C128.6 143.5 128.6 143.7 128.7 143.9C128.8 144.1 128.9 144.2 129.1 144.3C129.3 144.4 129.5 144.4 129.8 144.4C129.9 144.4 129.9 144.4 130 144.4C130.1 144.4 130.2 144.4 130.2 144.4V145.8C130.1 145.8 129.9 145.8 129.8 145.9C129.6 145.8 129.4 145.8 129.3 145.8ZM133.8 145.9C133.1 145.9 132.4 145.7 131.9 145.4C131.4 145 131 144.6 130.8 144L132.1 143.4C132.3 143.8 132.5 144.1 132.8 144.3C133.1 144.5 133.5 144.6 133.9 144.6C134.2 144.6 134.5 144.5 134.6 144.4C134.8 144.3 134.9 144.1 134.9 143.9C134.9 143.8 134.9 143.7 134.8 143.6C134.7 143.5 134.6 143.4 134.5 143.4C134.4 143.3 134.2 143.3 134.1 143.2L133 142.9C132.4 142.7 132 142.5 131.7 142.1C131.4 141.8 131.3 141.3 131.3 140.9C131.3 140.5 131.4 140.1 131.6 139.8C131.8 139.5 132.1 139.2 132.5 139C132.9 138.8 133.3 138.7 133.8 138.7C134.5 138.7 135 138.9 135.5 139.2C136 139.5 136.4 140 136.6 140.5L135.3 141.1C135.2 140.8 135 140.5 134.7 140.3C134.4 140.1 134.1 140 133.8 140C133.5 140 133.3 140.1 133.1 140.2C132.9 140.3 132.9 140.5 132.9 140.7C132.9 140.8 132.9 140.9 133 141C133.1 141.1 133.2 141.2 133.3 141.2C133.4 141.3 133.6 141.3 133.7 141.4L134.8 141.7C135.4 141.9 135.8 142.1 136.1 142.5C136.4 142.8 136.6 143.3 136.6 143.8C136.6 144.2 136.5 144.6 136.3 144.9C136.1 145.2 135.8 145.5 135.4 145.6C134.8 145.8 134.3 145.9 133.8 145.9Z" fill="#90A3BF"/>
<path d="M363.2 145.8V136.3H366.3C367.3 136.3 368.2 136.5 368.9 136.9C369.7 137.3 370.2 137.9 370.6 138.6C371 139.3 371.2 140.1 371.2 141.1C371.2 142 371 142.9 370.6 143.6C370.2 144.3 369.6 144.9 368.9 145.3C368.2 145.7 367.3 145.9 366.3 145.9H363.2V145.8ZM364.9 144.2H366.3C366.9 144.2 367.5 144.1 368 143.8C368.5 143.5 368.8 143.2 369.1 142.7C369.4 142.2 369.5 141.6 369.5 141C369.5 140.3 369.4 139.8 369.1 139.3C368.8 138.8 368.5 138.5 368 138.2C367.5 137.9 367 137.8 366.3 137.8H364.9V144.2ZM374.3 145.9C373.8 145.9 373.4 145.8 373 145.7C372.6 145.5 372.4 145.3 372.2 145C372 144.7 371.9 144.3 371.9 143.9C371.9 143.5 372 143.2 372.2 142.9C372.4 142.6 372.6 142.3 373 142.1C373.4 141.9 373.8 141.7 374.4 141.7L376.7 141.3V142.6L374.7 142.9C374.4 143 374.1 143.1 374 143.2C373.8 143.4 373.8 143.6 373.8 143.8C373.8 144 373.9 144.2 374.1 144.4C374.3 144.5 374.5 144.6 374.8 144.6C375.1 144.6 375.5 144.5 375.7 144.4C376 144.2 376.2 144 376.3 143.8C376.5 143.5 376.5 143.2 376.5 142.9V141.1C376.5 140.8 376.4 140.6 376.1 140.4C375.9 140.2 375.6 140.1 375.2 140.1C374.8 140.1 374.5 140.2 374.2 140.4C373.9 140.6 373.7 140.8 373.6 141.2L372.2 140.5C372.3 140.1 372.5 139.8 372.8 139.6C373.1 139.3 373.4 139.1 373.9 139C374.3 138.8 374.7 138.8 375.2 138.8C375.8 138.8 376.3 138.9 376.7 139.1C377.1 139.3 377.5 139.6 377.7 140C377.9 140.4 378.1 140.8 378.1 141.3V145.9H376.5V144.7H376.9C376.7 145 376.5 145.2 376.3 145.5C376.1 145.7 375.8 145.8 375.5 146C375.1 145.9 374.7 145.9 374.3 145.9ZM382.4 145.8C381.6 145.8 381 145.6 380.6 145.2C380.2 144.8 380 144.2 380 143.4V140.3H378.8V138.8H378.9C379.2 138.8 379.5 138.7 379.7 138.5C379.9 138.3 380 138.1 380 137.7V137.2H381.7V138.8H383.3V140.3H381.7V143.3C381.7 143.5 381.7 143.7 381.8 143.9C381.9 144.1 382 144.2 382.2 144.3C382.4 144.4 382.6 144.4 382.9 144.4C383 144.4 383 144.4 383.1 144.4C383.2 144.4 383.3 144.4 383.3 144.4V145.8C383.2 145.8 383 145.8 382.9 145.9C382.7 145.8 382.6 145.8 382.4 145.8ZM387.5 145.9C386.8 145.9 386.2 145.7 385.6 145.4C385.1 145.1 384.6 144.6 384.3 144.1C384 143.5 383.9 142.9 383.9 142.3C383.9 141.6 384 141 384.3 140.4C384.6 139.9 385 139.4 385.5 139.1C386 138.8 386.6 138.6 387.3 138.6C387.8 138.6 388.3 138.7 388.7 138.9C389.1 139.1 389.5 139.3 389.8 139.6C390.1 139.9 390.3 140.3 390.5 140.7C390.7 141.1 390.7 141.5 390.7 142C390.7 142.1 390.7 142.2 390.7 142.4C390.7 142.5 390.7 142.6 390.6 142.7H385.2V141.4H389.6L388.8 142C388.9 141.6 388.9 141.3 388.7 141C388.6 140.7 388.4 140.5 388.1 140.3C387.8 140.1 387.5 140 387.2 140C386.8 140 386.5 140.1 386.3 140.3C386 140.5 385.8 140.7 385.7 141.1C385.6 141.4 385.5 141.8 385.5 142.3C385.5 142.7 385.5 143.1 385.7 143.4C385.9 143.7 386.1 144 386.4 144.2C386.7 144.4 387 144.5 387.4 144.5C387.8 144.5 388.1 144.4 388.4 144.3C388.7 144.1 388.9 143.9 389 143.6L390.4 144.3C390.3 144.6 390 144.9 389.8 145.2C389.5 145.5 389.2 145.7 388.8 145.8C388.4 145.8 388 145.9 387.5 145.9Z" fill="#90A3BF"/>
<path d="M543.6 145.8L546.9 136.3H549.2L552.5 145.8H550.6L549.9 143.8H546.2L545.5 145.8H543.6ZM546.7 142.2H549.4L547.8 137.5H548.3L546.7 142.2ZM553.1 145.8V138.8H554.7V140.4L554.5 140.1C554.6 139.6 554.9 139.2 555.3 139C555.7 138.8 556.1 138.6 556.7 138.6C557.3 138.6 557.8 138.7 558.2 139C558.6 139.3 558.9 139.7 559 140.2H558.5C558.7 139.6 559 139.2 559.5 139C559.9 138.7 560.4 138.6 561 138.6C561.5 138.6 561.9 138.7 562.3 138.9C562.7 139.1 563 139.4 563.2 139.8C563.4 140.2 563.5 140.6 563.5 141.2V145.7H561.8V141.6C561.8 141.3 561.7 141 561.6 140.8C561.5 140.6 561.3 140.4 561.1 140.3C560.9 140.2 560.7 140.1 560.4 140.1C560.1 140.1 559.9 140.2 559.7 140.3C559.5 140.4 559.3 140.6 559.2 140.8C559.1 141 559 141.3 559 141.6V145.7H557.3V141.6C557.3 141.3 557.2 141 557.1 140.8C557 140.6 556.8 140.4 556.6 140.3C556.4 140.2 556.2 140.1 555.9 140.1C555.6 140.1 555.4 140.2 555.2 140.3C555 140.4 554.8 140.6 554.7 140.8C554.6 141 554.5 141.3 554.5 141.6V145.7H553.1V145.8ZM568.1 145.9C567.4 145.9 566.8 145.7 566.2 145.4C565.6 145.1 565.2 144.7 564.9 144.1C564.6 143.6 564.4 142.9 564.4 142.2C564.4 141.5 564.6 140.9 564.9 140.3C565.2 139.8 565.7 139.3 566.2 139C566.8 138.7 567.4 138.5 568.1 138.5C568.8 138.5 569.4 138.7 570 139C570.6 139.3 571 139.7 571.3 140.3C571.6 140.8 571.8 141.5 571.8 142.2C571.8 142.9 571.6 143.5 571.3 144.1C571 144.6 570.5 145.1 570 145.4C569.4 145.7 568.8 145.9 568.1 145.9ZM568.1 144.4C568.5 144.4 568.8 144.3 569.1 144.1C569.4 143.9 569.6 143.7 569.8 143.4C570 143.1 570.1 142.7 570.1 142.3C570.1 141.9 570 141.5 569.8 141.2C569.6 140.9 569.4 140.6 569.1 140.5C568.8 140.3 568.5 140.2 568.1 140.2C567.7 140.2 567.4 140.3 567.1 140.5C566.8 140.7 566.6 140.9 566.4 141.2C566.2 141.5 566.2 141.9 566.2 142.3C566.2 142.7 566.3 143.1 566.4 143.4C566.6 143.7 566.8 144 567.1 144.1C567.4 144.3 567.7 144.4 568.1 144.4ZM575.3 145.9C574.8 145.9 574.3 145.8 573.9 145.5C573.5 145.3 573.2 144.9 573 144.5C572.8 144.1 572.7 143.6 572.7 143V138.7H574.4V142.8C574.4 143.1 574.5 143.3 574.6 143.6C574.7 143.8 574.9 144 575.1 144.1C575.3 144.2 575.6 144.3 575.8 144.3C576 144.3 576.3 144.2 576.5 144.1C576.7 144 576.9 143.8 577 143.6C577.1 143.4 577.2 143.1 577.2 142.8V138.7H578.9V145.7H577.3V144.3L577.4 144.5C577.2 144.9 577 145.2 576.6 145.5C576.2 145.8 575.7 145.9 575.3 145.9ZM580.1 145.8V138.8H581.7V140.2L581.6 140C581.8 139.6 582 139.3 582.4 139.1C582.8 138.9 583.2 138.8 583.7 138.8C584.2 138.8 584.7 138.9 585.1 139.1C585.5 139.3 585.8 139.6 586 140C586.2 140.4 586.3 140.8 586.3 141.4V145.9H584.6V141.8C584.6 141.5 584.5 141.2 584.4 141C584.3 140.8 584.1 140.6 583.9 140.5C583.7 140.4 583.5 140.3 583.2 140.3C582.9 140.3 582.7 140.4 582.5 140.5C582.3 140.6 582.1 140.8 582 141C581.9 141.2 581.8 141.5 581.8 141.8V145.9H580.1V145.8Z" fill="#90A3BF"/>
<path d="M94.8 85.5999V72.8999H99.5C100.4 72.8999 101.1 73.0999 101.8 73.3999C102.5 73.6999 103 74.1999 103.4 74.7999C103.8 75.3999 104 76.0999 104 76.9999C104 77.7999 103.8 78.5999 103.4 79.1999C103 79.7999 102.5 80.1999 101.8 80.5999C101.1 80.8999 100.4 81.0999 99.5 81.0999H97.1V85.7999H94.8V85.5999ZM97.1 78.7999H99.6C100 78.7999 100.4 78.6999 100.7 78.5999C101 78.3999 101.2 78.1999 101.4 77.8999C101.6 77.5999 101.7 77.2999 101.7 76.8999C101.7 76.4999 101.6 76.1999 101.4 75.8999C101.2 75.5999 101 75.3999 100.7 75.1999C100.4 74.9999 100 74.8999 99.6 74.8999H97.1V78.7999ZM107.6 85.7999C107 85.7999 106.4 85.6999 105.9 85.4999C105.4 85.2999 105.1 84.9999 104.8 84.5999C104.5 84.1999 104.4 83.6999 104.4 83.1999C104.4 82.6999 104.5 82.1999 104.7 81.7999C104.9 81.3999 105.3 80.9999 105.8 80.7999C106.3 80.4999 106.9 80.2999 107.6 80.1999L110.6 79.6999V81.3999L108 81.7999C107.6 81.8999 107.2 81.9999 107 82.1999C106.8 82.3999 106.7 82.6999 106.7 82.9999C106.7 83.2999 106.8 83.5999 107.1 83.7999C107.4 83.9999 107.7 84.0999 108 84.0999C108.5 84.0999 108.9 83.9999 109.2 83.7999C109.6 83.5999 109.8 83.2999 110 82.9999C110.2 82.5999 110.3 82.2999 110.3 81.7999V79.3999C110.3 78.9999 110.1 78.6999 109.8 78.3999C109.5 78.0999 109.1 77.9999 108.6 77.9999C108.1 77.9999 107.7 78.0999 107.3 78.3999C106.9 78.6999 106.7 78.9999 106.5 79.3999L104.7 78.4999C104.9 77.9999 105.2 77.5999 105.6 77.1999C106 76.7999 106.5 76.5999 107 76.2999C107.5 76.0999 108.1 75.9999 108.7 75.9999C109.5 75.9999 110.1 76.0999 110.7 76.3999C111.3 76.6999 111.7 77.0999 112 77.5999C112.3 78.0999 112.5 78.6999 112.5 79.2999V85.4999H110.4V83.9999H110.9C110.7 84.3999 110.4 84.6999 110 84.9999C109.7 85.2999 109.3 85.4999 108.9 85.5999C108.6 85.6999 108.1 85.7999 107.6 85.7999ZM115.5 89.3999C115.2 89.3999 115 89.3999 114.8 89.2999C114.6 89.2999 114.3 89.1999 114.2 89.0999V87.1999C114.3 87.1999 114.5 87.2999 114.7 87.2999C114.9 87.2999 115.1 87.3999 115.3 87.3999C115.8 87.3999 116.2 87.2999 116.4 86.9999C116.6 86.7999 116.8 86.3999 117 86.0999L117.6 84.6999V86.5999L113.6 76.3999H116L118.8 83.8999H117.9L120.7 76.3999H123.1L119.1 86.5999C118.9 87.1999 118.6 87.6999 118.2 88.0999C117.9 88.4999 117.5 88.7999 117 89.0999C116.6 89.1999 116.1 89.3999 115.5 89.3999ZM124 85.5999V76.2999H126.1V78.3999L125.9 77.9999C126.1 77.2999 126.4 76.7999 126.9 76.4999C127.4 76.1999 128 75.9999 128.7 75.9999C129.5 75.9999 130.1 76.1999 130.7 76.5999C131.3 76.9999 131.7 77.4999 131.8 78.1999L131.2 78.2999C131.5 77.5999 131.9 76.9999 132.5 76.5999C133.1 76.1999 133.7 75.9999 134.5 75.9999C135.2 75.9999 135.7 76.0999 136.3 76.3999C136.8 76.6999 137.2 77.0999 137.5 77.5999C137.8 78.0999 137.9 78.6999 137.9 79.3999V85.3999H135.7V79.9999C135.7 79.5999 135.6 79.1999 135.5 78.8999C135.4 78.5999 135.1 78.3999 134.9 78.1999C134.6 77.9999 134.3 77.8999 133.9 77.8999C133.5 77.8999 133.2 77.9999 133 78.1999C132.7 78.3999 132.5 78.5999 132.4 78.8999C132.3 79.1999 132.2 79.4999 132.2 79.9999V85.3999H130V79.9999C130 79.5999 129.9 79.1999 129.8 78.8999C129.7 78.5999 129.4 78.3999 129.2 78.1999C128.9 77.9999 128.6 77.8999 128.3 77.8999C127.9 77.8999 127.6 77.9999 127.4 78.1999C127.1 78.3999 126.9 78.5999 126.8 78.8999C126.7 79.1999 126.6 79.4999 126.6 79.9999V85.3999H124V85.5999ZM143.8 85.7999C142.8 85.7999 142 85.5999 141.3 85.1999C140.6 84.7999 140 84.1999 139.6 83.3999C139.2 82.6999 139 81.7999 139 80.8999C139 79.9999 139.2 79.0999 139.6 78.3999C140 77.6999 140.6 77.0999 141.3 76.6999C142 76.2999 142.8 76.0999 143.7 76.0999C144.4 76.0999 145.1 76.1999 145.6 76.4999C146.2 76.6999 146.6 77.0999 147 77.4999C147.4 77.8999 147.7 78.3999 147.9 78.8999C148.1 79.3999 148.2 79.9999 148.2 80.5999C148.2 80.7999 148.2 80.8999 148.2 81.0999C148.2 81.2999 148.2 81.3999 148.1 81.4999H140.9V79.7999H146.8L145.7 80.5999C145.8 80.0999 145.8 79.5999 145.6 79.1999C145.5 78.7999 145.2 78.4999 144.8 78.1999C144.5 77.9999 144 77.7999 143.6 77.7999C143.1 77.7999 142.7 77.8999 142.4 78.1999C142 78.3999 141.8 78.7999 141.6 79.1999C141.4 79.5999 141.3 80.1999 141.4 80.7999C141.4 81.3999 141.4 81.8999 141.6 82.2999C141.8 82.6999 142.1 83.0999 142.5 83.2999C142.9 83.4999 143.4 83.6999 143.9 83.6999C144.4 83.6999 144.8 83.5999 145.2 83.3999C145.6 83.1999 145.8 82.8999 146.1 82.4999L147.9 83.3999C147.7 83.7999 147.4 84.1999 147 84.5999C146.6 84.8999 146.2 85.1999 145.6 85.3999C145 85.6999 144.5 85.7999 143.8 85.7999ZM149.5 85.5999V76.2999H151.6V78.0999L151.4 77.7999C151.6 77.1999 152 76.7999 152.5 76.4999C153 76.1999 153.6 76.0999 154.2 76.0999C154.9 76.0999 155.5 76.1999 156 76.4999C156.5 76.7999 156.9 77.1999 157.2 77.6999C157.5 78.1999 157.6 78.7999 157.6 79.4999V85.4999H155.4V80.0999C155.4 79.6999 155.3 79.2999 155.2 78.9999C155 78.6999 154.8 78.4999 154.5 78.2999C154.2 78.0999 153.9 77.9999 153.5 77.9999C153.1 77.9999 152.8 78.0999 152.5 78.2999C152.2 78.4999 152 78.6999 151.8 78.9999C151.6 79.2999 151.6 79.5999 151.6 80.0999V85.4999H149.5V85.5999ZM163.5 85.6999C162.5 85.6999 161.6 85.3999 161.1 84.7999C160.5 84.1999 160.2 83.3999 160.2 82.3999V78.2999H158.6V76.2999H158.8C159.3 76.2999 159.6 76.1999 159.9 75.8999C160.2 75.6999 160.3 75.2999 160.3 74.8999V74.1999H162.5V76.2999H164.6V78.2999H162.5V82.2999C162.5 82.5999 162.6 82.8999 162.7 83.0999C162.8 83.2999 163 83.4999 163.2 83.5999C163.4 83.6999 163.7 83.7999 164.1 83.7999C164.2 83.7999 164.3 83.7999 164.4 83.7999C164.5 83.7999 164.6 83.7999 164.7 83.7999V85.6999C164.5 85.6999 164.4 85.6999 164.2 85.7999C163.9 85.6999 163.7 85.6999 163.5 85.6999ZM169.5 85.7999C168.5 85.7999 167.6 85.5999 166.9 85.0999C166.2 84.5999 165.7 83.9999 165.4 83.1999L167.1 82.3999C167.3 82.8999 167.7 83.2999 168.1 83.5999C168.5 83.8999 169 83.9999 169.5 83.9999C169.9 83.9999 170.2 83.8999 170.5 83.6999C170.7 83.4999 170.9 83.2999 170.9 82.9999C170.9 82.7999 170.8 82.6999 170.7 82.5999C170.6 82.4999 170.5 82.3999 170.3 82.2999C170.1 82.1999 170 82.0999 169.8 82.0999L168.3 81.6999C167.5 81.4999 166.9 81.0999 166.5 80.6999C166.1 80.1999 165.9 79.6999 165.9 78.9999C165.9 78.3999 166 77.8999 166.3 77.4999C166.6 77.0999 167 76.6999 167.5 76.4999C168 76.2999 168.6 76.0999 169.3 76.0999C170.2 76.0999 170.9 76.2999 171.6 76.6999C172.3 77.0999 172.7 77.6999 173 78.4999L171.3 79.2999C171.1 78.8999 170.9 78.4999 170.5 78.2999C170.1 77.9999 169.7 77.8999 169.2 77.8999C168.8 77.8999 168.5 77.9999 168.3 78.1999C168.1 78.3999 168 78.5999 168 78.8999C168 79.0999 168 79.1999 168.1 79.2999C168.2 79.3999 168.3 79.4999 168.5 79.5999C168.7 79.6999 168.9 79.7999 169.1 79.7999L170.6 80.1999C171.4 80.3999 171.9 80.7999 172.4 81.1999C172.8 81.6999 173 82.1999 173 82.8999C173 83.4999 172.9 83.9999 172.6 84.3999C172.3 84.7999 171.9 85.1999 171.4 85.3999C170.9 85.6999 170.2 85.7999 169.5 85.7999Z" fill="#1A202C"/>
<path d="M118.1 223.4C128.704 223.4 137.3 214.804 137.3 204.2C137.3 193.596 128.704 185 118.1 185C107.496 185 98.9 193.596 98.9 204.2C98.9 214.804 107.496 223.4 118.1 223.4Z" fill="#33B938" fill-opacity="0.1"/>
<path d="M148.1 210.5L151.9 199.4H154.5L158.3 210.5H156.1L155.3 208.1H151L150.2 210.5H148.1ZM151.7 206.3H154.8L152.9 200.8H153.5L151.7 206.3ZM163.2 210.7C162.5 210.7 161.8 210.6 161.2 210.3C160.6 210 160.1 209.7 159.6 209.2C159.2 208.7 158.9 208.2 158.7 207.6L160.4 206.9C160.7 207.5 161.1 208 161.6 208.4C162.1 208.8 162.7 208.9 163.3 208.9C163.7 208.9 164 208.8 164.2 208.7C164.5 208.6 164.7 208.4 164.8 208.2C164.9 208 165 207.8 165 207.5C165 207.2 164.9 206.9 164.7 206.7C164.5 206.5 164.2 206.3 163.8 206.2L161.7 205.5C160.8 205.2 160.2 204.8 159.7 204.3C159.3 203.8 159 203.1 159 202.4C159 201.8 159.2 201.2 159.5 200.7C159.8 200.2 160.3 199.8 160.8 199.6C161.4 199.3 162 199.2 162.7 199.2C163.4 199.2 164 199.3 164.5 199.6C165.1 199.8 165.5 200.2 165.9 200.6C166.3 201 166.6 201.5 166.8 202L165.1 202.7C164.9 202.1 164.6 201.7 164.1 201.4C163.7 201.1 163.2 200.9 162.6 200.9C162.3 200.9 162 201 161.7 201.1C161.4 201.2 161.2 201.4 161.1 201.6C161 201.8 160.9 202 160.9 202.3C160.9 202.6 161 202.9 161.2 203.1C161.4 203.3 161.7 203.5 162.1 203.6L164.1 204.2C165 204.5 165.6 204.9 166.1 205.4C166.5 205.9 166.8 206.5 166.8 207.3C166.8 207.9 166.6 208.5 166.3 209C166 209.5 165.5 209.9 164.9 210.1C164.6 210.6 164 210.7 163.2 210.7ZM168.8 207.3V205.6H175.1V207.3H168.8ZM176.8 210.5V209L179.8 205.9C180.4 205.3 180.9 204.8 181.2 204.4C181.5 204 181.8 203.7 181.9 203.4C182 203.1 182.1 202.9 182.1 202.6C182.1 202.1 182 201.8 181.7 201.5C181.4 201.2 181 201.1 180.6 201.1C180.1 201.1 179.7 201.2 179.4 201.5C179.1 201.8 178.8 202.2 178.6 202.7L176.8 202.1C176.9 201.5 177.2 201 177.5 200.6C177.9 200.2 178.3 199.8 178.8 199.6C179.3 199.4 179.9 199.2 180.5 199.2C181.2 199.2 181.8 199.3 182.4 199.6C182.9 199.9 183.4 200.2 183.7 200.7C184 201.2 184.2 201.7 184.2 202.3C184.2 202.7 184.1 203.1 184 203.5C183.8 203.9 183.6 204.3 183.3 204.7C183 205.1 182.6 205.5 182.1 206L179.5 208.7H184.3V210.4H176.8V210.5ZM190.3 210.5V208.1H185.2V206.4L190.2 199.4H192.3V206.4H193.9V208.1H192.3V210.5H190.3ZM186.6 207.1L186.2 206.4H190.2V201L190.7 201.2L186.6 207.1ZM194.8 210.5V209L197.8 205.9C198.4 205.3 198.9 204.8 199.2 204.4C199.5 204 199.8 203.7 199.9 203.4C200 203.1 200.1 202.9 200.1 202.6C200.1 202.1 200 201.8 199.7 201.5C199.4 201.2 199 201.1 198.6 201.1C198.1 201.1 197.7 201.2 197.4 201.5C197.1 201.8 196.8 202.2 196.6 202.7L194.8 202.1C194.9 201.5 195.2 201 195.5 200.6C195.9 200.2 196.3 199.8 196.8 199.6C197.3 199.4 197.9 199.2 198.5 199.2C199.2 199.2 199.8 199.3 200.4 199.6C200.9 199.9 201.4 200.2 201.7 200.7C202 201.2 202.2 201.7 202.2 202.3C202.2 202.7 202.1 203.1 202 203.5C201.9 203.9 201.6 204.3 201.3 204.7C201 205.1 200.6 205.5 200.1 206L197.5 208.7H202.3V210.4H194.8V210.5ZM205.3 210.5V201.1H203.2V199.4H207.4V210.5H205.3Z" fill="#1A202C"/>
<path d="M362.8 210.5V208.6H363.4C363.9 208.6 364.3 208.5 364.5 208.2C364.8 207.9 364.9 207.6 364.9 207.1V199.4H366.9V207.1C366.9 207.8 366.8 208.4 366.5 208.9C366.2 209.4 365.8 209.8 365.2 210.1C364.7 210.4 364 210.5 363.3 210.5H362.8ZM371.2 210.7C370.6 210.7 370.1 210.6 369.7 210.4C369.3 210.2 369 209.9 368.7 209.6C368.5 209.2 368.4 208.8 368.4 208.4C368.4 208 368.5 207.6 368.7 207.2C368.9 206.8 369.2 206.5 369.6 206.3C370 206.1 370.5 205.9 371.2 205.8L373.9 205.4V206.9L371.6 207.3C371.2 207.4 370.9 207.5 370.7 207.7C370.5 207.9 370.4 208.1 370.4 208.4C370.4 208.7 370.5 208.9 370.7 209.1C370.9 209.3 371.2 209.3 371.5 209.3C371.9 209.3 372.3 209.2 372.6 209C372.9 208.8 373.2 208.6 373.3 208.3C373.5 208 373.6 207.7 373.6 207.3V205.2C373.6 204.9 373.5 204.6 373.2 204.3C372.9 204.1 372.6 203.9 372.1 203.9C371.7 203.9 371.3 204 371 204.2C370.7 204.4 370.4 204.7 370.3 205.1L368.7 204.3C368.9 203.9 369.1 203.5 369.4 203.2C369.7 202.9 370.2 202.6 370.6 202.5C371.1 202.3 371.6 202.2 372.1 202.2C372.8 202.2 373.4 202.3 373.9 202.6C374.4 202.8 374.8 203.2 375.1 203.6C375.4 204 375.5 204.5 375.5 205.1V210.5H373.6V209.1H374C373.8 209.4 373.5 209.7 373.3 210C373 210.2 372.7 210.4 372.3 210.5C372 210.6 371.6 210.7 371.2 210.7ZM377.1 210.5V202.4H378.9V204L378.8 203.7C379 203.2 379.3 202.8 379.7 202.6C380.1 202.3 380.6 202.2 381.2 202.2C381.8 202.2 382.3 202.3 382.8 202.6C383.3 202.9 383.6 203.2 383.9 203.7C384.2 204.2 384.3 204.7 384.3 205.3V210.5H382.3V205.7C382.3 205.3 382.2 205 382.1 204.8C382 204.5 381.8 204.3 381.5 204.2C381.3 204.1 381 204 380.6 204C380.3 204 380 204.1 379.7 204.2C379.5 204.3 379.3 204.5 379.1 204.8C379 205.1 378.9 205.4 378.9 205.7V210.5H377.1ZM392.4 210.7C391.5 210.7 390.7 210.5 390.1 210C389.4 209.5 388.9 208.9 388.5 208C388.1 207.1 387.9 206.1 387.9 205C387.9 203.8 388.1 202.8 388.5 202C388.9 201.1 389.4 200.5 390.1 200C390.8 199.5 391.5 199.3 392.4 199.3C393.3 199.3 394.1 199.5 394.7 200C395.4 200.5 395.9 201.1 396.3 202C396.7 202.9 396.9 203.9 396.9 205C396.9 206.1 396.7 207.1 396.3 208C395.9 208.9 395.4 209.5 394.7 210C394 210.5 393.3 210.7 392.4 210.7ZM392.4 208.8C392.9 208.8 393.3 208.6 393.7 208.3C394.1 208 394.3 207.5 394.5 207C394.7 206.4 394.8 205.7 394.8 204.9C394.8 204.1 394.7 203.4 394.5 202.8C394.3 202.2 394 201.8 393.7 201.5C393.3 201.2 392.9 201 392.4 201C391.9 201 391.5 201.2 391.1 201.5C390.7 201.8 390.5 202.3 390.3 202.8C390.1 203.4 390 204.1 390 204.9C390 205.7 390.1 206.4 390.3 207C390.5 207.6 390.8 208 391.1 208.3C391.4 208.7 391.9 208.8 392.4 208.8ZM399.9 210.5V201.1H397.8V199.4H402V210.5H399.9ZM404.6 212.8V211.8C404.9 211.7 405.2 211.6 405.4 211.3C405.6 211.1 405.7 210.8 405.8 210.4H404.9V208.3H406.9V209.6C406.9 210.5 406.7 211.2 406.3 211.7C405.9 212.3 405.3 212.7 404.6 212.8ZM408.8 210.5V209L411.8 205.9C412.4 205.3 412.9 204.8 413.2 204.4C413.5 204 413.8 203.7 413.9 203.4C414 203.1 414.1 202.9 414.1 202.6C414.1 202.1 414 201.8 413.7 201.5C413.4 201.2 413 201.1 412.6 201.1C412.1 201.1 411.7 201.2 411.4 201.5C411.1 201.8 410.8 202.2 410.6 202.7L408.8 202.1C408.9 201.5 409.2 201 409.5 200.6C409.9 200.2 410.3 199.8 410.8 199.6C411.3 199.4 411.9 199.2 412.5 199.2C413.2 199.2 413.8 199.3 414.4 199.6C414.9 199.9 415.4 200.2 415.7 200.7C416 201.2 416.2 201.7 416.2 202.3C416.2 202.7 416.1 203.1 416 203.5C415.9 203.9 415.6 204.3 415.3 204.7C415 205.1 414.6 205.5 414.1 206L411.5 208.7H416.3V210.4H408.8V210.5ZM422 210.7C421.1 210.7 420.3 210.5 419.7 210C419 209.5 418.5 208.9 418.1 208C417.7 207.1 417.5 206.1 417.5 205C417.5 203.8 417.7 202.8 418.1 202C418.5 201.1 419 200.5 419.7 200C420.4 199.5 421.1 199.3 422 199.3C422.9 199.3 423.7 199.5 424.3 200C425 200.5 425.5 201.1 425.9 202C426.3 202.9 426.5 203.9 426.5 205C426.5 206.1 426.3 207.1 425.9 208C425.5 208.9 425 209.5 424.3 210C423.7 210.5 422.9 210.7 422 210.7ZM422 208.8C422.5 208.8 422.9 208.6 423.3 208.3C423.7 208 423.9 207.5 424.1 207C424.3 206.4 424.4 205.7 424.4 204.9C424.4 204.1 424.3 203.4 424.1 202.8C423.9 202.2 423.6 201.8 423.3 201.5C422.9 201.2 422.5 201 422 201C421.5 201 421.1 201.2 420.7 201.5C420.3 201.8 420.1 202.3 419.9 202.8C419.7 203.4 419.6 204.1 419.6 204.9C419.6 205.7 419.7 206.4 419.9 207C420.1 207.6 420.4 208 420.7 208.3C421.1 208.7 421.5 208.8 422 208.8ZM427.7 210.5V209L430.7 205.9C431.3 205.3 431.8 204.8 432.1 204.4C432.4 204 432.7 203.7 432.8 203.4C432.9 203.1 433 202.9 433 202.6C433 202.1 432.9 201.8 432.6 201.5C432.3 201.2 431.9 201.1 431.5 201.1C431 201.1 430.6 201.2 430.3 201.5C430 201.8 429.7 202.2 429.5 202.7L427.7 202.1C427.8 201.5 428.1 201 428.4 200.6C428.8 200.2 429.2 199.8 429.7 199.6C430.2 199.4 430.8 199.2 431.4 199.2C432.1 199.2 432.7 199.3 433.3 199.6C433.8 199.9 434.3 200.2 434.6 200.7C434.9 201.2 435.1 201.7 435.1 202.3C435.1 202.7 435 203.1 434.9 203.5C434.8 203.9 434.5 204.3 434.2 204.7C433.9 205.1 433.5 205.5 433 206L430.4 208.7H435.2V210.4H427.7V210.5ZM436.3 210.5V209L439.3 205.9C439.9 205.3 440.4 204.8 440.7 204.4C441 204 441.3 203.7 441.4 203.4C441.5 203.1 441.6 202.9 441.6 202.6C441.6 202.1 441.5 201.8 441.2 201.5C440.9 201.2 440.5 201.1 440.1 201.1C439.6 201.1 439.2 201.2 438.9 201.5C438.6 201.8 438.3 202.2 438.1 202.7L436.3 202.1C436.4 201.5 436.7 201 437 200.6C437.4 200.2 437.8 199.8 438.3 199.6C438.8 199.4 439.4 199.2 440 199.2C440.7 199.2 441.3 199.3 441.9 199.6C442.4 199.9 442.9 200.2 443.2 200.7C443.5 201.2 443.7 201.7 443.7 202.3C443.7 202.7 443.6 203.1 443.5 203.5C443.4 203.9 443.1 204.3 442.8 204.7C442.5 205.1 442.1 205.5 441.6 206L439 208.7H443.8V210.4H436.3V210.5Z" fill="#1A202C"/>
<path d="M548.5 210.7C547.8 210.7 547.1 210.6 546.5 210.3C545.9 210 545.4 209.7 544.9 209.2C544.5 208.7 544.2 208.2 544 207.6L545.7 206.9C546 207.5 546.4 208 546.9 208.4C547.4 208.8 548 208.9 548.6 208.9C549 208.9 549.3 208.8 549.5 208.7C549.8 208.6 550 208.4 550.1 208.2C550.2 208 550.3 207.8 550.3 207.5C550.3 207.2 550.2 206.9 550 206.7C549.8 206.5 549.5 206.3 549.1 206.2L547 205.5C546.1 205.2 545.5 204.8 545 204.3C544.6 203.8 544.3 203.1 544.3 202.4C544.3 201.8 544.5 201.2 544.8 200.7C545.1 200.2 545.6 199.8 546.1 199.6C546.7 199.3 547.3 199.2 548 199.2C548.7 199.2 549.3 199.3 549.8 199.6C550.4 199.8 550.8 200.2 551.2 200.6C551.6 201 551.9 201.5 552.1 202L550.4 202.7C550.2 202.1 549.9 201.7 549.4 201.4C549 201.1 548.5 200.9 547.9 200.9C547.6 200.9 547.3 201 547 201.1C546.7 201.2 546.5 201.4 546.4 201.6C546.3 201.8 546.2 202 546.2 202.3C546.2 202.6 546.3 202.9 546.5 203.1C546.7 203.3 547 203.5 547.4 203.6L549.4 204.2C550.3 204.5 550.9 204.9 551.4 205.4C551.8 205.9 552.1 206.5 552.1 207.3C552.1 207.9 551.9 208.5 551.6 209C551.3 209.5 550.8 209.9 550.2 210.1C550 210.6 549.3 210.7 548.5 210.7ZM547.8 212V197.9H549.1V212H547.8ZM558.5 210.5V208.1H553.4V206.4L558.4 199.4H560.5V206.4H562.1V208.1H560.5V210.5H558.5ZM554.9 207.1L554.5 206.4H558.5V201L559 201.2L554.9 207.1ZM567.6 210.7C566.7 210.7 565.9 210.5 565.3 210C564.6 209.5 564.1 208.9 563.7 208C563.3 207.1 563.1 206.1 563.1 205C563.1 203.8 563.3 202.8 563.7 202C564.1 201.1 564.6 200.5 565.3 200C566 199.5 566.7 199.3 567.6 199.3C568.5 199.3 569.3 199.5 569.9 200C570.6 200.5 571.1 201.1 571.5 202C571.9 202.9 572.1 203.9 572.1 205C572.1 206.1 571.9 207.1 571.5 208C571.1 208.9 570.6 209.5 569.9 210C569.3 210.5 568.5 210.7 567.6 210.7ZM567.6 208.8C568.1 208.8 568.5 208.6 568.9 208.3C569.3 208 569.5 207.5 569.7 207C569.9 206.4 570 205.7 570 204.9C570 204.1 569.9 203.4 569.7 202.8C569.5 202.2 569.2 201.8 568.9 201.5C568.5 201.2 568.1 201 567.6 201C567.1 201 566.7 201.2 566.3 201.5C565.9 201.8 565.7 202.3 565.5 202.8C565.3 203.4 565.2 204.1 565.2 204.9C565.2 205.7 565.3 206.4 565.5 207C565.7 207.6 566 208 566.3 208.3C566.7 208.7 567.1 208.8 567.6 208.8ZM577.9 210.7C577 210.7 576.2 210.5 575.6 210C574.9 209.5 574.4 208.9 574 208C573.6 207.1 573.4 206.1 573.4 205C573.4 203.8 573.6 202.8 574 202C574.4 201.1 574.9 200.5 575.6 200C576.3 199.5 577 199.3 577.9 199.3C578.8 199.3 579.6 199.5 580.2 200C580.9 200.5 581.4 201.1 581.8 202C582.2 202.9 582.4 203.9 582.4 205C582.4 206.1 582.2 207.1 581.8 208C581.4 208.9 580.9 209.5 580.2 210C579.5 210.5 578.8 210.7 577.9 210.7ZM577.9 208.8C578.4 208.8 578.8 208.6 579.2 208.3C579.6 208 579.8 207.5 580 207C580.2 206.4 580.3 205.7 580.3 204.9C580.3 204.1 580.2 203.4 580 202.8C579.8 202.2 579.5 201.8 579.2 201.5C578.8 201.2 578.4 201 577.9 201C577.4 201 577 201.2 576.6 201.5C576.2 201.8 576 202.3 575.8 202.8C575.6 203.4 575.5 204.1 575.5 204.9C575.5 205.7 575.6 206.4 575.8 207C576 207.6 576.3 208 576.6 208.3C576.9 208.7 577.4 208.8 577.9 208.8Z" fill="#1A202C"/>
<path d="M90.4 238.3H589.2" stroke="#F3F5F7" stroke-width="1.0661"/>
<path d="M118.1 291.6C128.704 291.6 137.3 283.004 137.3 272.4C137.3 261.796 128.704 253.2 118.1 253.2C107.496 253.2 98.9 261.796 98.9 272.4C98.9 283.004 107.496 291.6 118.1 291.6Z" fill="#EBF4FF"/>
<mask id="mask0_1_6465" style="mask-type:luminance" maskUnits="userSpaceOnUse" x="109" y="262" width="19" height="21">
<path d="M127.2 262.3H109.6V283H127.2V262.3Z" fill="white"/>
</mask>
<g mask="url(#mask0_1_6465)">
<path d="M124.5 263.9C123.5 262.8 121.8 262.3 119.6 262.3H113.2C113 262.3 112.8 262.4 112.6 262.5C112.4 262.6 112.3 262.8 112.3 263.1L109.6 280.1C109.5 280.4 109.8 280.7 110.1 280.7H114.1L115.1 274.4V274.6C115.2 274.2 115.6 273.8 116 273.8H117.9C121.6 273.8 124.5 272.3 125.3 267.9C125.3 267.8 125.3 267.6 125.4 267.5C125.3 267.4 125.3 267.4 125.4 267.5C125.6 266 125.4 264.9 124.5 263.9Z" fill="#27346A"/>
<path d="M116.6 267.1C116.7 267 116.8 267 116.9 267H121.9C122.5 267 123.1 267 123.6 267.1C123.7 267.1 123.9 267.1 124 267.2C124.2 267.2 124.4 267.3 124.6 267.4C124.8 267.5 125.1 267.6 125.3 267.7C125.6 266.1 125.3 265 124.4 264C123.4 262.9 121.7 262.4 119.5 262.4H113.1C112.6 262.4 112.3 262.7 112.2 263.2L109.5 280.2C109.4 280.5 109.7 280.8 110 280.8H114L116.1 267.7C116.1 267.6 116.2 267.4 116.2 267.3C116.4 267.2 116.5 267.1 116.6 267.1Z" fill="#27346A"/>
<path d="M125.3 268C124.5 272.4 121.6 273.9 117.9 273.9H116C115.5 273.9 115.2 274.2 115.1 274.7L113.9 282.6C113.9 282.9 114.1 283.2 114.4 283.2H117.7C117.9 283.2 118.1 283.1 118.2 283C118.3 282.9 118.4 282.7 118.5 282.5V282.3L119.1 278.3V278.1C119.1 277.9 119.2 277.7 119.4 277.6C119.5 277.5 119.7 277.4 119.9 277.4H120.4C123.6 277.4 126.2 276.1 126.9 272.3C127.2 270.7 127 269.4 126.2 268.4C126 268.1 125.6 267.9 125.3 267.7C125.4 267.8 125.3 267.9 125.3 268Z" fill="#2790C3"/>
<path d="M124.5 267.3C124.4 267.3 124.2 267.2 124.1 267.2C124 267.2 123.8 267.1 123.7 267.1C123.2 267 122.6 267 122 267H117C116.9 267 116.8 267 116.7 267.1C116.6 267.2 116.5 267.2 116.4 267.3C116.3 267.4 116.3 267.5 116.3 267.7L115.2 274.5V274.7C115.3 274.3 115.7 273.9 116.1 273.9H118C121.7 273.9 124.6 272.4 125.4 268C125.4 267.9 125.4 267.7 125.5 267.6C125.3 267.5 125.1 267.4 124.8 267.3C124.6 267.3 124.5 267.3 124.5 267.3Z" fill="#1F264F"/>
</g>
<path d="M149 278.8V267.7H153.1C153.9 267.7 154.5 267.8 155.1 268.1C155.7 268.4 156.1 268.8 156.5 269.3C156.8 269.8 157 270.4 157 271.2C157 271.9 156.8 272.6 156.5 273.1C156.2 273.6 155.7 274 155.1 274.3C154.5 274.6 153.9 274.7 153.1 274.7H151V278.8H149ZM151.1 272.9H153.2C153.6 272.9 153.9 272.8 154.2 272.7C154.5 272.6 154.7 272.3 154.8 272.1C154.9 271.8 155 271.5 155 271.2C155 270.9 154.9 270.6 154.8 270.3C154.7 270 154.4 269.8 154.2 269.7C153.9 269.6 153.6 269.5 153.2 269.5H151.1V272.9ZM158.4 278.8V267.7H162.5C163.3 267.7 163.9 267.8 164.5 268.1C165.1 268.4 165.5 268.8 165.9 269.3C166.2 269.8 166.4 270.4 166.4 271.2C166.4 271.9 166.2 272.6 165.9 273.1C165.6 273.6 165.1 274 164.5 274.3C163.9 274.6 163.3 274.7 162.5 274.7H160.4V278.8H158.4ZM160.4 272.9H162.5C162.9 272.9 163.2 272.8 163.5 272.7C163.8 272.6 164 272.3 164.1 272.1C164.2 271.8 164.3 271.5 164.3 271.2C164.3 270.9 164.2 270.6 164.1 270.3C164 270 163.7 269.8 163.5 269.7C163.2 269.6 162.9 269.5 162.5 269.5H160.4V272.9ZM168 275.6V273.9H174.3V275.6H168ZM181 278.8V276.4H175.9V274.7L180.9 267.7H183V274.7H184.6V276.4H183V278.8H181ZM177.4 275.3L177 274.6H181V269.2L181.5 269.4L177.4 275.3ZM190.1 278.9C189.2 278.9 188.4 278.7 187.8 278.2C187.1 277.7 186.6 277.1 186.2 276.2C185.8 275.3 185.6 274.3 185.6 273.2C185.6 272 185.8 271 186.2 270.2C186.6 269.3 187.1 268.7 187.8 268.2C188.5 267.7 189.2 267.5 190.1 267.5C191 267.5 191.8 267.7 192.4 268.2C193.1 268.7 193.6 269.3 194 270.2C194.4 271.1 194.6 272.1 194.6 273.2C194.6 274.3 194.4 275.3 194 276.2C193.6 277.1 193.1 277.7 192.4 278.2C191.8 278.7 191 278.9 190.1 278.9ZM190.1 277.1C190.6 277.1 191 276.9 191.4 276.6C191.8 276.3 192 275.8 192.2 275.3C192.4 274.7 192.5 274 192.5 273.2C192.5 272.4 192.4 271.7 192.2 271.1C192 270.5 191.7 270.1 191.4 269.8C191 269.5 190.6 269.3 190.1 269.3C189.6 269.3 189.2 269.5 188.8 269.8C188.4 270.1 188.2 270.6 188 271.1C187.8 271.7 187.7 272.4 187.7 273.2C187.7 274 187.8 274.7 188 275.3C188.2 275.9 188.5 276.3 188.8 276.6C189.2 276.9 189.6 277.1 190.1 277.1ZM195.8 278.8V277.3L198.8 274.2C199.4 273.6 199.9 273.1 200.2 272.7C200.5 272.3 200.8 272 200.9 271.7C201 271.4 201.1 271.2 201.1 270.9C201.1 270.4 201 270.1 200.7 269.8C200.4 269.5 200 269.4 199.6 269.4C199.1 269.4 198.7 269.5 198.4 269.8C198.1 270.1 197.8 270.5 197.6 271L195.8 270.4C195.9 269.8 196.2 269.3 196.5 268.9C196.9 268.5 197.3 268.1 197.8 267.9C198.3 267.7 198.9 267.5 199.5 267.5C200.2 267.5 200.8 267.6 201.4 267.9C201.9 268.2 202.4 268.5 202.7 269C203 269.5 203.2 270 203.2 270.6C203.2 271 203.1 271.4 203 271.8C202.9 272.2 202.6 272.6 202.3 273C202 273.4 201.6 273.8 201.1 274.3L198.5 277H203.3V278.7H195.8V278.8ZM206.3 278.8V269.4H204.2V267.7H208.4V278.8H206.3Z" fill="#1A202C"/>
<path d="M362.8 278.8V276.9H363.4C363.9 276.9 364.3 276.8 364.5 276.5C364.8 276.2 364.9 275.9 364.9 275.4V267.7H366.9V275.4C366.9 276.1 366.8 276.7 366.5 277.2C366.2 277.7 365.8 278.1 365.2 278.4C364.7 278.7 364 278.8 363.3 278.8H362.8ZM371.2 278.9C370.6 278.9 370.1 278.8 369.7 278.6C369.3 278.4 369 278.1 368.7 277.8C368.5 277.4 368.4 277 368.4 276.6C368.4 276.2 368.5 275.8 368.7 275.4C368.9 275 369.2 274.7 369.6 274.5C370 274.3 370.5 274.1 371.2 274L373.9 273.6V275.1L371.6 275.5C371.2 275.6 370.9 275.7 370.7 275.9C370.5 276.1 370.4 276.3 370.4 276.6C370.4 276.9 370.5 277.1 370.7 277.3C370.9 277.5 371.2 277.5 371.5 277.5C371.9 277.5 372.3 277.4 372.6 277.2C372.9 277 373.2 276.8 373.3 276.5C373.5 276.2 373.6 275.9 373.6 275.5V273.4C373.6 273.1 373.5 272.8 373.2 272.5C372.9 272.3 372.6 272.1 372.1 272.1C371.7 272.1 371.3 272.2 371 272.4C370.7 272.6 370.4 272.9 370.3 273.3L368.7 272.5C368.9 272.1 369.1 271.7 369.4 271.4C369.7 271.1 370.2 270.8 370.6 270.7C371.1 270.5 371.6 270.4 372.1 270.4C372.8 270.4 373.4 270.5 373.9 270.8C374.4 271 374.8 271.4 375.1 271.8C375.4 272.2 375.5 272.7 375.5 273.3V278.7H373.6V277.3H374C373.8 277.6 373.5 277.9 373.3 278.2C373 278.4 372.7 278.6 372.3 278.7C372 278.9 371.6 278.9 371.2 278.9ZM377.1 278.8V270.7H378.9V272.3L378.8 272C379 271.5 379.3 271.1 379.7 270.9C380.1 270.6 380.6 270.5 381.2 270.5C381.8 270.5 382.3 270.6 382.8 270.9C383.3 271.2 383.6 271.5 383.9 272C384.2 272.5 384.3 273 384.3 273.6V278.8H382.3V274C382.3 273.6 382.2 273.3 382.1 273.1C382 272.8 381.8 272.6 381.5 272.5C381.3 272.4 381 272.3 380.6 272.3C380.3 272.3 380 272.4 379.7 272.5C379.5 272.6 379.3 272.8 379.1 273.1C379 273.4 378.9 273.7 378.9 274V278.8H377.1ZM392.4 278.9C391.5 278.9 390.7 278.7 390.1 278.2C389.4 277.7 388.9 277.1 388.5 276.2C388.1 275.3 387.9 274.3 387.9 273.2C387.9 272 388.1 271 388.5 270.2C388.9 269.3 389.4 268.7 390.1 268.2C390.8 267.7 391.5 267.5 392.4 267.5C393.3 267.5 394.1 267.7 394.7 268.2C395.4 268.7 395.9 269.3 396.3 270.2C396.7 271.1 396.9 272.1 396.9 273.2C396.9 274.3 396.7 275.3 396.3 276.2C395.9 277.1 395.4 277.7 394.7 278.2C394 278.7 393.3 278.9 392.4 278.9ZM392.4 277.1C392.9 277.1 393.3 276.9 393.7 276.6C394.1 276.3 394.3 275.8 394.5 275.3C394.7 274.7 394.8 274 394.8 273.2C394.8 272.4 394.7 271.7 394.5 271.1C394.3 270.5 394 270.1 393.7 269.8C393.3 269.5 392.9 269.3 392.4 269.3C391.9 269.3 391.5 269.5 391.1 269.8C390.7 270.1 390.5 270.6 390.3 271.1C390.1 271.7 390 272.4 390 273.2C390 274 390.1 274.7 390.3 275.3C390.5 275.9 390.8 276.3 391.1 276.6C391.4 276.9 391.9 277.1 392.4 277.1ZM403 278.8V276.4H397.9V274.7L402.9 267.7H405V274.7H406.6V276.4H405V278.8H403ZM399.4 275.3L399 274.6H403V269.2L403.5 269.4L399.4 275.3ZM408.3 281.1V280.1C408.6 280 408.9 279.9 409.1 279.6C409.3 279.4 409.4 279.1 409.5 278.7H408.6V276.6H410.6V277.9C410.6 278.8 410.4 279.5 410 280C409.7 280.6 409.1 280.9 408.3 281.1ZM412.5 278.8V277.3L415.5 274.2C416.1 273.6 416.6 273.1 416.9 272.7C417.2 272.3 417.5 272 417.6 271.7C417.7 271.4 417.8 271.2 417.8 270.9C417.8 270.4 417.7 270.1 417.4 269.8C417.1 269.5 416.7 269.4 416.3 269.4C415.8 269.4 415.4 269.5 415.1 269.8C414.8 270.1 414.5 270.5 414.3 271L412.5 270.4C412.6 269.8 412.9 269.3 413.2 268.9C413.6 268.5 414 268.1 414.5 267.9C415 267.7 415.6 267.5 416.2 267.5C416.9 267.5 417.5 267.6 418.1 267.9C418.6 268.2 419.1 268.5 419.4 269C419.7 269.5 419.9 270 419.9 270.6C419.9 271 419.8 271.4 419.7 271.8C419.6 272.2 419.3 272.6 419 273C418.7 273.4 418.3 273.8 417.8 274.3L415.2 277H420V278.7H412.5V278.8ZM425.7 278.9C424.8 278.9 424 278.7 423.4 278.2C422.7 277.7 422.2 277.1 421.8 276.2C421.4 275.3 421.2 274.3 421.2 273.2C421.2 272 421.4 271 421.8 270.2C422.2 269.3 422.7 268.7 423.4 268.2C424.1 267.7 424.8 267.5 425.7 267.5C426.6 267.5 427.4 267.7 428 268.2C428.7 268.7 429.2 269.3 429.6 270.2C430 271.1 430.2 272.1 430.2 273.2C430.2 274.3 430 275.3 429.6 276.2C429.2 277.1 428.7 277.7 428 278.2C427.4 278.7 426.6 278.9 425.7 278.9ZM425.8 277.1C426.3 277.1 426.7 276.9 427.1 276.6C427.5 276.3 427.7 275.8 427.9 275.3C428.1 274.7 428.2 274 428.2 273.2C428.2 272.4 428.1 271.7 427.9 271.1C427.7 270.5 427.4 270.1 427.1 269.8C426.7 269.5 426.3 269.3 425.8 269.3C425.3 269.3 424.9 269.5 424.5 269.8C424.1 270.1 423.9 270.6 423.7 271.1C423.5 271.7 423.4 272.4 423.4 273.2C423.4 274 423.5 274.7 423.7 275.3C423.9 275.9 424.2 276.3 424.5 276.6C424.8 276.9 425.2 277.1 425.8 277.1ZM431.4 278.8V277.3L434.4 274.2C435 273.6 435.5 273.1 435.8 272.7C436.1 272.3 436.4 272 436.5 271.7C436.6 271.4 436.7 271.2 436.7 270.9C436.7 270.4 436.6 270.1 436.3 269.8C436 269.5 435.6 269.4 435.2 269.4C434.7 269.4 434.3 269.5 434 269.8C433.7 270.1 433.4 270.5 433.2 271L431.4 270.4C431.5 269.8 431.8 269.3 432.1 268.9C432.5 268.5 432.9 268.1 433.4 267.9C433.9 267.7 434.5 267.5 435.1 267.5C435.8 267.5 436.4 267.6 437 267.9C437.5 268.2 438 268.5 438.3 269C438.6 269.5 438.8 270 438.8 270.6C438.8 271 438.7 271.4 438.6 271.8C438.4 272.2 438.2 272.6 437.9 273C437.6 273.4 437.2 273.8 436.7 274.3L434 277H438.8V278.7H431.4V278.8ZM440 278.8V277.3L443 274.2C443.6 273.6 444.1 273.1 444.4 272.7C444.7 272.3 445 272 445.1 271.7C445.2 271.4 445.3 271.2 445.3 270.9C445.3 270.4 445.2 270.1 444.9 269.8C444.6 269.5 444.2 269.4 443.8 269.4C443.3 269.4 442.9 269.5 442.6 269.8C442.3 270.1 442 270.5 441.8 271L440 270.4C440.1 269.8 440.4 269.3 440.7 268.9C441.1 268.5 441.5 268.1 442 267.9C442.5 267.7 443.1 267.5 443.7 267.5C444.4 267.5 445 267.6 445.6 267.9C446.1 268.2 446.6 268.5 446.9 269C447.2 269.5 447.4 270 447.4 270.6C447.4 271 447.3 271.4 447.2 271.8C447.1 272.2 446.8 272.6 446.5 273C446.2 273.4 445.8 273.8 445.3 274.3L442.7 277H447.5V278.7H440V278.8Z" fill="#1A202C"/>
<path d="M548.5 278.9C547.8 278.9 547.1 278.8 546.5 278.5C545.9 278.2 545.4 277.9 544.9 277.4C544.5 276.9 544.2 276.4 544 275.8L545.7 275.1C546 275.7 546.4 276.2 546.9 276.6C547.4 277 548 277.1 548.6 277.1C549 277.1 549.3 277 549.5 276.9C549.8 276.8 550 276.6 550.1 276.4C550.2 276.2 550.3 276 550.3 275.7C550.3 275.4 550.2 275.1 550 274.9C549.8 274.7 549.5 274.5 549.1 274.4L547 273.7C546.1 273.4 545.5 273 545 272.5C544.6 272 544.3 271.3 544.3 270.6C544.3 270 544.5 269.4 544.8 268.9C545.1 268.4 545.6 268 546.1 267.8C546.7 267.5 547.3 267.4 548 267.4C548.7 267.4 549.3 267.5 549.8 267.8C550.4 268 550.8 268.4 551.2 268.8C551.6 269.2 551.9 269.7 552.1 270.2L550.4 270.9C550.2 270.3 549.9 269.9 549.4 269.6C549 269.3 548.5 269.1 547.9 269.1C547.6 269.1 547.3 269.2 547 269.3C546.7 269.4 546.5 269.6 546.4 269.8C546.3 270 546.2 270.2 546.2 270.5C546.2 270.8 546.3 271.1 546.5 271.3C546.7 271.5 547 271.7 547.4 271.8L549.4 272.4C550.3 272.7 550.9 273.1 551.4 273.6C551.8 274.1 552.1 274.7 552.1 275.5C552.1 276.1 551.9 276.7 551.6 277.2C551.3 277.7 550.8 278.1 550.2 278.3C550 278.8 549.3 278.9 548.5 278.9ZM547.8 280.2V266.1H549.1V280.2H547.8ZM553.5 278.8V277.3L556.5 274.2C557.1 273.6 557.6 273.1 557.9 272.7C558.2 272.3 558.5 272 558.6 271.7C558.7 271.4 558.8 271.2 558.8 270.9C558.8 270.4 558.7 270.1 558.4 269.8C558.1 269.5 557.7 269.4 557.3 269.4C556.8 269.4 556.4 269.5 556.1 269.8C555.8 270.1 555.5 270.5 555.3 271L553.5 270.4C553.6 269.8 553.9 269.3 554.2 268.9C554.6 268.5 555 268.1 555.5 267.9C556 267.7 556.6 267.5 557.2 267.5C557.9 267.5 558.5 267.6 559.1 267.9C559.6 268.2 560.1 268.5 560.4 269C560.7 269.5 560.9 270 560.9 270.6C560.9 271 560.8 271.4 560.7 271.8C560.6 272.2 560.3 272.6 560 273C559.7 273.4 559.3 273.8 558.8 274.3L556.2 277H561V278.7H553.5V278.8ZM563 281.1V280.1C563.3 280 563.6 279.9 563.8 279.6C564 279.4 564.1 279.1 564.2 278.7H563.3V276.6H565.3V277.9C565.3 278.8 565.1 279.5 564.7 280C564.3 280.6 563.7 280.9 563 281.1ZM571.8 278.9C570.9 278.9 570.1 278.7 569.5 278.2C568.8 277.7 568.3 277.1 567.9 276.2C567.5 275.3 567.3 274.3 567.3 273.2C567.3 272 567.5 271 567.9 270.2C568.3 269.3 568.8 268.7 569.5 268.2C570.2 267.7 570.9 267.5 571.8 267.5C572.7 267.5 573.5 267.7 574.1 268.2C574.8 268.7 575.3 269.3 575.7 270.2C576.1 271.1 576.3 272.1 576.3 273.2C576.3 274.3 576.1 275.3 575.7 276.2C575.3 277.1 574.8 277.7 574.1 278.2C573.5 278.7 572.7 278.9 571.8 278.9ZM571.8 277.1C572.3 277.1 572.7 276.9 573.1 276.6C573.5 276.3 573.7 275.8 573.9 275.3C574.1 274.7 574.2 274 574.2 273.2C574.2 272.4 574.1 271.7 573.9 271.1C573.7 270.5 573.4 270.1 573.1 269.8C572.7 269.5 572.3 269.3 571.8 269.3C571.3 269.3 570.9 269.5 570.5 269.8C570.1 270.1 569.9 270.6 569.7 271.1C569.5 271.7 569.4 272.4 569.4 273.2C569.4 274 569.5 274.7 569.7 275.3C569.9 275.9 570.2 276.3 570.5 276.6C570.9 276.9 571.3 277.1 571.8 277.1ZM582 278.9C581.1 278.9 580.3 278.7 579.7 278.2C579 277.7 578.5 277.1 578.1 276.2C577.7 275.3 577.5 274.3 577.5 273.2C577.5 272 577.7 271 578.1 270.2C578.5 269.3 579 268.7 579.7 268.2C580.4 267.7 581.1 267.5 582 267.5C582.9 267.5 583.7 267.7 584.3 268.2C585 268.7 585.5 269.3 585.9 270.2C586.3 271.1 586.5 272.1 586.5 273.2C586.5 274.3 586.3 275.3 585.9 276.2C585.5 277.1 585 277.7 584.3 278.2C583.7 278.7 582.9 278.9 582 278.9ZM582.1 277.1C582.6 277.1 583 276.9 583.4 276.6C583.8 276.3 584 275.8 584.2 275.3C584.4 274.7 584.5 274 584.5 273.2C584.5 272.4 584.4 271.7 584.2 271.1C584 270.5 583.7 270.1 583.4 269.8C583 269.5 582.6 269.3 582.1 269.3C581.6 269.3 581.2 269.5 580.8 269.8C580.4 270.1 580.2 270.6 580 271.1C579.8 271.7 579.7 272.4 579.7 273.2C579.7 274 579.8 274.7 580 275.3C580.2 275.9 580.5 276.3 580.8 276.6C581.1 276.9 581.6 277.1 582.1 277.1Z" fill="#1A202C"/>
<path d="M90.4 306.5H589.2" stroke="#F3F5F7" stroke-width="1.0661"/>
<path d="M118.1 359.8C128.704 359.8 137.3 351.204 137.3 340.6C137.3 329.996 128.704 321.4 118.1 321.4C107.496 321.4 98.9 329.996 98.9 340.6C98.9 351.204 107.496 359.8 118.1 359.8Z" fill="#EAECF1"/>
<mask id="mask1_1_6465" style="mask-type:luminance" maskUnits="userSpaceOnUse" x="110" y="330" width="17" height="24">
<path d="M126.2 330H110.6V353.5H126.2V330Z" fill="white"/>
</mask>
<g mask="url(#mask1_1_6465)">
<path d="M114.6 353.4C116.8 353.4 118.5 351.6 118.5 349.5V345.6H114.6C112.4 345.6 110.7 347.4 110.7 349.5C110.6 351.7 112.4 353.4 114.6 353.4Z" fill="#0ACF83"/>
<path d="M110.6 341.7C110.6 339.5 112.4 337.8 114.5 337.8H118.4V345.6H114.5C112.4 345.6 110.6 343.9 110.6 341.7Z" fill="#A259FF"/>
<path d="M110.6 333.9C110.6 331.7 112.4 330 114.5 330H118.4V337.8H114.5C112.4 337.8 110.6 336 110.6 333.9Z" fill="#F24E1E"/>
<path d="M118.5 330H122.4C124.6 330 126.3 331.8 126.3 333.9C126.3 336.1 124.5 337.8 122.4 337.8H118.5V330Z" fill="#FF7262"/>
<path d="M126.3 341.7C126.3 343.9 124.5 345.6 122.4 345.6C120.2 345.6 118.5 343.8 118.5 341.7C118.5 339.5 120.3 337.8 122.4 337.8C124.5 337.8 126.3 339.6 126.3 341.7Z" fill="#1ABCFE"/>
</g>
<path d="M149 347V335.9H156.4V337.7H151V340.8H155.7V342.6H151V347.1H149V347ZM162.6 347.2C161.8 347.2 161.1 347.1 160.4 346.8C159.7 346.5 159.1 346.1 158.6 345.6C158.1 345.1 157.7 344.5 157.4 343.8C157.1 343.1 157 342.3 157 341.5C157 340.7 157.1 339.9 157.4 339.2C157.7 338.5 158.1 337.9 158.6 337.4C159.1 336.9 159.7 336.5 160.4 336.2C161.1 335.9 161.8 335.8 162.6 335.8C163.4 335.8 164.1 335.9 164.7 336.2C165.3 336.5 165.9 336.8 166.3 337.3C166.7 337.7 167.1 338.2 167.2 338.7L165.4 339.6C165.2 339 164.8 338.6 164.3 338.2C163.8 337.8 163.2 337.7 162.5 337.7C161.8 337.7 161.2 337.9 160.6 338.2C160.1 338.5 159.7 339 159.4 339.6C159.1 340.2 159 340.9 159 341.6C159 342.4 159.1 343.1 159.4 343.6C159.7 344.2 160.1 344.6 160.7 345C161.2 345.3 161.9 345.5 162.6 345.5C163.2 345.5 163.7 345.4 164.2 345.2C164.7 345 165.1 344.7 165.3 344.2C165.6 343.8 165.7 343.3 165.7 342.7V341.9L166.6 342.7H162.5V341H167.7V342.1C167.7 343 167.6 343.7 167.3 344.4C167 345.1 166.6 345.6 166.1 346.1C165.6 346.5 165.1 346.9 164.4 347.1C163.9 347.1 163.3 347.2 162.6 347.2ZM169.3 343.8V342.1H175.6V343.8H169.3ZM179.2 347V337.6H177V335.9H181.2V347H179.2ZM188 347V344.6H182.9V342.9L187.9 335.9H190V342.9H191.6V344.6H190V347H188ZM184.4 343.6L184 342.9H188V337.5L188.5 337.7L184.4 343.6ZM197.1 347.2C196.2 347.2 195.4 347 194.8 346.5C194.1 346 193.6 345.4 193.2 344.5C192.8 343.6 192.6 342.6 192.6 341.5C192.6 340.3 192.8 339.3 193.2 338.5C193.6 337.6 194.1 337 194.8 336.5C195.5 336 196.2 335.8 197.1 335.8C198 335.8 198.8 336 199.4 336.5C200.1 337 200.6 337.6 201 338.5C201.4 339.4 201.6 340.4 201.6 341.5C201.6 342.6 201.4 343.6 201 344.5C200.6 345.4 200.1 346 199.4 346.5C198.8 346.9 198 347.2 197.1 347.2ZM197.2 345.3C197.7 345.3 198.1 345.1 198.5 344.8C198.9 344.5 199.1 344 199.3 343.5C199.5 342.9 199.6 342.2 199.6 341.4C199.6 340.6 199.5 339.9 199.3 339.3C199.1 338.7 198.8 338.3 198.5 338C198.1 337.7 197.7 337.5 197.2 337.5C196.7 337.5 196.3 337.7 195.9 338C195.5 338.3 195.3 338.8 195.1 339.3C194.9 339.9 194.8 340.6 194.8 341.4C194.8 342.2 194.9 342.9 195.1 343.5C195.3 344.1 195.6 344.5 195.9 344.8C196.2 345.2 196.6 345.3 197.2 345.3Z" fill="#1A202C"/>
<path d="M362.8 347V345.1H363.4C363.9 345.1 364.3 345 364.5 344.7C364.8 344.4 364.9 344.1 364.9 343.6V335.9H366.9V343.6C366.9 344.3 366.8 344.9 366.5 345.4C366.2 345.9 365.8 346.3 365.2 346.6C364.7 346.9 364 347 363.3 347H362.8ZM371.2 347.2C370.6 347.2 370.1 347.1 369.7 346.9C369.3 346.7 369 346.4 368.7 346.1C368.5 345.7 368.4 345.3 368.4 344.9C368.4 344.5 368.5 344.1 368.7 343.7C368.9 343.3 369.2 343 369.6 342.8C370 342.6 370.5 342.4 371.2 342.3L373.9 341.9V343.4L371.6 343.8C371.2 343.9 370.9 344 370.7 344.2C370.5 344.4 370.4 344.6 370.4 344.9C370.4 345.2 370.5 345.4 370.7 345.6C370.9 345.8 371.2 345.8 371.5 345.8C371.9 345.8 372.3 345.7 372.6 345.5C372.9 345.3 373.2 345.1 373.3 344.8C373.5 344.5 373.6 344.2 373.6 343.8V341.7C373.6 341.4 373.5 341.1 373.2 340.8C372.9 340.6 372.6 340.4 372.1 340.4C371.7 340.4 371.3 340.5 371 340.7C370.7 340.9 370.4 341.2 370.3 341.6L368.7 340.8C368.9 340.4 369.1 340 369.4 339.7C369.7 339.4 370.2 339.1 370.6 339C371.1 338.8 371.6 338.7 372.1 338.7C372.8 338.7 373.4 338.8 373.9 339.1C374.4 339.3 374.8 339.7 375.1 340.1C375.4 340.5 375.5 341 375.5 341.6V347H373.6V345.6H374C373.8 345.9 373.5 346.2 373.3 346.5C373 346.7 372.7 346.9 372.3 347C372 347.1 371.6 347.2 371.2 347.2ZM377.1 347V338.9H378.9V340.5L378.8 340.2C379 339.7 379.3 339.3 379.7 339.1C380.1 338.8 380.6 338.7 381.2 338.7C381.8 338.7 382.3 338.8 382.8 339.1C383.3 339.4 383.6 339.7 383.9 340.2C384.2 340.7 384.3 341.2 384.3 341.8V347H382.3V342.2C382.3 341.8 382.2 341.5 382.1 341.3C382 341 381.8 340.8 381.5 340.7C381.3 340.5 381 340.5 380.6 340.5C380.3 340.5 380 340.6 379.7 340.7C379.5 340.8 379.3 341 379.1 341.3C379 341.6 378.9 341.9 378.9 342.2V347H377.1ZM392.4 347.2C391.5 347.2 390.7 347 390.1 346.5C389.4 346 388.9 345.4 388.5 344.5C388.1 343.6 387.9 342.6 387.9 341.5C387.9 340.3 388.1 339.3 388.5 338.5C388.9 337.6 389.4 337 390.1 336.5C390.8 336 391.5 335.8 392.4 335.8C393.3 335.8 394.1 336 394.7 336.5C395.4 337 395.9 337.6 396.3 338.5C396.7 339.4 396.9 340.4 396.9 341.5C396.9 342.6 396.7 343.6 396.3 344.5C395.9 345.4 395.4 346 394.7 346.5C394 346.9 393.3 347.2 392.4 347.2ZM392.4 345.3C392.9 345.3 393.3 345.1 393.7 344.8C394.1 344.5 394.3 344 394.5 343.5C394.7 342.9 394.8 342.2 394.8 341.4C394.8 340.6 394.7 339.9 394.5 339.3C394.3 338.7 394 338.3 393.7 338C393.3 337.7 392.9 337.5 392.4 337.5C391.9 337.5 391.5 337.7 391.1 338C390.7 338.3 390.5 338.8 390.3 339.3C390.1 339.9 390 340.6 390 341.4C390 342.2 390.1 342.9 390.3 343.5C390.5 344.1 390.8 344.5 391.1 344.8C391.4 345.2 391.9 345.3 392.4 345.3ZM401.8 347.2C401 347.2 400.4 347 399.8 346.7C399.2 346.4 398.8 345.9 398.4 345.4C398.1 344.8 397.9 344.2 397.9 343.5C397.9 343.1 397.9 342.8 398 342.4C398.1 342 398.2 341.7 398.4 341.3C398.6 340.9 398.9 340.4 399.3 339.9L402.4 335.9H404.8L401 340.8L400.7 340.4C400.8 340.3 401 340.2 401.1 340.1C401.2 340 401.4 340 401.5 340C401.7 340 401.8 340 402 340C402.7 340 403.3 340.2 403.8 340.5C404.3 340.8 404.7 341.2 405 341.8C405.3 342.3 405.5 342.9 405.5 343.6C405.5 344.3 405.3 345 405 345.5C404.7 346.1 404.2 346.5 403.6 346.8C403.3 347 402.6 347.2 401.8 347.2ZM401.8 345.3C402.1 345.3 402.4 345.2 402.7 345.1C403 344.9 403.2 344.7 403.4 344.4C403.6 344.1 403.7 343.8 403.7 343.4C403.7 343 403.6 342.7 403.4 342.4C403.2 342.1 403 341.9 402.8 341.7C402.5 341.5 402.2 341.5 401.9 341.5C401.6 341.5 401.3 341.6 401 341.7C400.7 341.9 400.5 342.1 400.3 342.4C400.1 342.7 400.1 343 400.1 343.4C400.1 343.8 400.2 344.1 400.3 344.4C400.5 344.7 400.7 344.9 401 345.1C401.2 345.3 401.5 345.3 401.8 345.3ZM407.6 349.3V348.3C407.9 348.2 408.2 348.1 408.4 347.8C408.6 347.6 408.7 347.3 408.8 346.9H407.9V344.8H409.9V346.1C409.9 347 409.7 347.7 409.3 348.2C408.9 348.8 408.3 349.2 407.6 349.3ZM411.7 347V345.5L414.7 342.4C415.3 341.8 415.8 341.3 416.1 340.9C416.4 340.5 416.7 340.2 416.8 339.9C416.9 339.6 417 339.4 417 339.1C417 338.6 416.9 338.3 416.6 338C416.3 337.7 415.9 337.6 415.5 337.6C415 337.6 414.6 337.7 414.3 338C414 338.3 413.7 338.7 413.5 339.2L411.7 338.6C411.8 338 412.1 337.5 412.4 337.1C412.8 336.7 413.2 336.3 413.7 336.1C414.2 335.9 414.8 335.7 415.4 335.7C416.1 335.7 416.7 335.8 417.3 336.1C417.8 336.4 418.3 336.7 418.6 337.2C418.9 337.7 419.1 338.2 419.1 338.8C419.1 339.2 419 339.6 418.9 340C418.8 340.4 418.5 340.8 418.2 341.2C417.9 341.6 417.5 342 417 342.5L414.4 345.2H419.2V346.9H411.7V347ZM424.9 347.2C424 347.2 423.2 347 422.6 346.5C421.9 346 421.4 345.4 421 344.5C420.6 343.6 420.4 342.6 420.4 341.5C420.4 340.3 420.6 339.3 421 338.5C421.4 337.6 421.9 337 422.6 336.5C423.3 336 424 335.8 424.9 335.8C425.8 335.8 426.6 336 427.2 336.5C427.9 337 428.4 337.6 428.8 338.5C429.2 339.4 429.4 340.4 429.4 341.5C429.4 342.6 429.2 343.6 428.8 344.5C428.4 345.4 427.9 346 427.2 346.5C426.6 346.9 425.8 347.2 424.9 347.2ZM425 345.3C425.5 345.3 425.9 345.1 426.3 344.8C426.7 344.5 426.9 344 427.1 343.5C427.3 342.9 427.4 342.2 427.4 341.4C427.4 340.6 427.3 339.9 427.1 339.3C426.9 338.7 426.6 338.3 426.3 338C425.9 337.7 425.5 337.5 425 337.5C424.5 337.5 424.1 337.7 423.7 338C423.3 338.3 423.1 338.8 422.9 339.3C422.7 339.9 422.6 340.6 422.6 341.4C422.6 342.2 422.7 342.9 422.9 343.5C423.1 344.1 423.4 344.5 423.7 344.8C424 345.2 424.5 345.3 425 345.3ZM430.6 347V345.5L433.6 342.4C434.2 341.8 434.7 341.3 435 340.9C435.3 340.5 435.6 340.2 435.7 339.9C435.8 339.6 435.9 339.4 435.9 339.1C435.9 338.6 435.8 338.3 435.5 338C435.2 337.7 434.8 337.6 434.4 337.6C433.9 337.6 433.5 337.7 433.2 338C432.9 338.3 432.6 338.7 432.4 339.2L430.6 338.6C430.7 338 431 337.5 431.3 337.1C431.7 336.7 432.1 336.3 432.6 336.1C433.1 335.9 433.7 335.7 434.3 335.7C435 335.7 435.6 335.8 436.2 336.1C436.7 336.4 437.2 336.7 437.5 337.2C437.8 337.7 438 338.2 438 338.8C438 339.2 437.9 339.6 437.8 340C437.7 340.4 437.4 340.8 437.1 341.2C436.8 341.6 436.4 342 435.9 342.5L433.3 345.2H438.1V346.9H430.6V347ZM439.2 347V345.5L442.2 342.4C442.8 341.8 443.3 341.3 443.6 340.9C443.9 340.5 444.2 340.2 444.3 339.9C444.4 339.6 444.5 339.4 444.5 339.1C444.5 338.6 444.4 338.3 444.1 338C443.8 337.7 443.4 337.6 443 337.6C442.5 337.6 442.1 337.7 441.8 338C441.5 338.3 441.2 338.7 441 339.2L439.2 338.6C439.3 338 439.6 337.5 439.9 337.1C440.3 336.7 440.7 336.3 441.2 336.1C441.7 335.9 442.3 335.7 442.9 335.7C443.6 335.7 444.2 335.8 444.8 336.1C445.3 336.4 445.8 336.7 446.1 337.2C446.4 337.7 446.6 338.2 446.6 338.8C446.6 339.2 446.5 339.6 446.4 340C446.3 340.4 446 340.8 445.7 341.2C445.4 341.6 445 342 444.5 342.5L441.9 345.2H446.7V346.9H439.2V347Z" fill="#1A202C"/>
<path d="M548.5 347.2C547.8 347.2 547.1 347.1 546.5 346.8C545.9 346.5 545.4 346.2 544.9 345.7C544.5 345.2 544.2 344.7 544 344.1L545.7 343.4C546 344 546.4 344.5 546.9 344.9C547.4 345.3 548 345.4 548.6 345.4C549 345.4 549.3 345.3 549.5 345.2C549.8 345.1 550 344.9 550.1 344.7C550.2 344.5 550.3 344.3 550.3 344C550.3 343.7 550.2 343.4 550 343.2C549.8 343 549.5 342.8 549.1 342.7L547 342C546.1 341.7 545.5 341.3 545 340.8C544.6 340.3 544.3 339.6 544.3 338.9C544.3 338.3 544.5 337.7 544.8 337.2C545.1 336.7 545.6 336.3 546.1 336.1C546.7 335.8 547.3 335.7 548 335.7C548.7 335.7 549.3 335.8 549.8 336.1C550.4 336.3 550.8 336.7 551.2 337.1C551.6 337.5 551.9 338 552.1 338.5L550.4 339.2C550.2 338.6 549.9 338.2 549.4 337.9C549 337.6 548.5 337.4 547.9 337.4C547.6 337.4 547.3 337.5 547 337.6C546.7 337.7 546.5 337.9 546.4 338.1C546.3 338.3 546.2 338.5 546.2 338.8C546.2 339.1 546.3 339.4 546.5 339.6C546.7 339.8 547 340 547.4 340.1L549.4 340.7C550.3 341 550.9 341.4 551.4 341.9C551.8 342.4 552.1 343 552.1 343.8C552.1 344.4 551.9 345 551.6 345.5C551.3 346 550.8 346.4 550.2 346.6C550 347 549.3 347.2 548.5 347.2ZM547.8 348.5V334.4H549.1V348.5H547.8ZM555.4 347V337.6H553.3V335.9H557.5V347H555.4ZM560.1 349.3V348.3C560.4 348.2 560.7 348.1 560.9 347.8C561.1 347.6 561.2 347.3 561.3 346.9H560.4V344.8H562.4V346.1C562.4 347 562.2 347.7 561.8 348.2C561.4 348.8 560.9 349.2 560.1 349.3ZM568.9 347.2C568 347.2 567.2 347 566.6 346.5C565.9 346 565.4 345.4 565 344.5C564.6 343.6 564.4 342.6 564.4 341.5C564.4 340.3 564.6 339.3 565 338.5C565.4 337.6 565.9 337 566.6 336.5C567.3 336 568 335.8 568.9 335.8C569.8 335.8 570.6 336 571.2 336.5C571.9 337 572.4 337.6 572.8 338.5C573.2 339.4 573.4 340.4 573.4 341.5C573.4 342.6 573.2 343.6 572.8 344.5C572.4 345.4 571.9 346 571.2 346.5C570.6 346.9 569.8 347.2 568.9 347.2ZM568.9 345.3C569.4 345.3 569.8 345.1 570.2 344.8C570.6 344.5 570.8 344 571 343.5C571.2 342.9 571.3 342.2 571.3 341.4C571.3 340.6 571.2 339.9 571 339.3C570.8 338.7 570.5 338.3 570.2 338C569.8 337.7 569.4 337.5 568.9 337.5C568.4 337.5 568 337.7 567.6 338C567.2 338.3 567 338.8 566.8 339.3C566.6 339.9 566.5 340.6 566.5 341.4C566.5 342.2 566.6 342.9 566.8 343.5C567 344.1 567.3 344.5 567.6 344.8C568 345.2 568.4 345.3 568.9 345.3ZM579.2 347.2C578.3 347.2 577.5 347 576.9 346.5C576.2 346 575.7 345.4 575.3 344.5C574.9 343.6 574.7 342.6 574.7 341.5C574.7 340.3 574.9 339.3 575.3 338.5C575.7 337.6 576.2 337 576.9 336.5C577.6 336 578.3 335.8 579.2 335.8C580.1 335.8 580.9 336 581.5 336.5C582.2 337 582.7 337.6 583.1 338.5C583.5 339.4 583.7 340.4 583.7 341.5C583.7 342.6 583.5 343.6 583.1 344.5C582.7 345.4 582.2 346 581.5 346.5C580.8 346.9 580.1 347.2 579.2 347.2ZM579.2 345.3C579.7 345.3 580.1 345.1 580.5 344.8C580.9 344.5 581.1 344 581.3 343.5C581.5 342.9 581.6 342.2 581.6 341.4C581.6 340.6 581.5 339.9 581.3 339.3C581.1 338.7 580.8 338.3 580.5 338C580.1 337.7 579.7 337.5 579.2 337.5C578.7 337.5 578.3 337.7 577.9 338C577.5 338.3 577.3 338.8 577.1 339.3C576.9 339.9 576.8 340.6 576.8 341.4C576.8 342.2 576.9 342.9 577.1 343.5C577.3 344.1 577.6 344.5 577.9 344.8C578.2 345.2 578.7 345.3 579.2 345.3Z" fill="#1A202C"/>
<path d="M90.4 374.8H589" stroke="#F3F5F7" stroke-width="1.0661"/>
</g>
<defs>
<clipPath id="clip0_1_6465">
<rect width="521" height="345" fill="white" transform="translate(68 40)"/>
</clipPath>
</defs>
</svg>
